<svg width="76" height="34" viewBox="0 0 76 34" fill="none" xmlns="http://www.w3.org/2000/svg">
<path d="M17.2 33.04C13.9467 33.04 11.04 32.32 8.48 30.88C5.92 29.44 3.92 27.4667 2.48 24.96C1.04 22.4 0.32 19.5467 0.32 16.4C0.32 13.2533 1.04 10.4533 2.48 8C3.92 5.49333 5.92 3.54667 8.48 2.16C11.04 0.773332 13.9467 0.0799985 17.2 0.0799985C20.4533 0.0799985 23.3333 0.799999 25.84 2.24C28.3467 3.62667 30.2933 5.57333 31.68 8.08C33.12 10.5867 33.84 13.4133 33.84 16.56C33.84 19.7067 33.12 22.5333 31.68 25.04C30.2933 27.5467 28.32 29.52 25.76 30.96C23.2533 32.3467 20.4 33.04 17.2 33.04ZM18 31.52C20.72 31.52 22.7733 30.2933 24.16 27.84C25.5467 25.3867 26.24 21.9733 26.24 17.6C26.24 12.2667 25.3067 8.26667 23.44 5.6C21.5733 2.93333 19.2533 1.6 16.48 1.6C13.76 1.6 11.6267 2.88 10.08 5.44C8.58667 7.94666 7.84 11.3333 7.84 15.6C7.84 20.2933 8.77333 24.1333 10.64 27.12C12.5067 30.0533 14.96 31.52 18 31.52ZM46.125 7.6C46.125 5.94667 45.965 4.74666 45.645 4C45.3783 3.25333 44.8183 2.74667 43.965 2.48C43.1117 2.21333 41.6983 2.08 39.725 2.08C39.6183 2.08 39.565 1.92 39.565 1.6C39.565 1.28 39.6183 1.12 39.725 1.12C41.4317 1.12 42.765 1.14667 43.725 1.2L49.405 1.28L55.005 1.2C56.0183 1.14667 57.3783 1.12 59.085 1.12C59.245 1.12 59.325 1.28 59.325 1.6C59.325 1.92 59.245 2.08 59.085 2.08C57.2183 2.08 55.8317 2.21333 54.925 2.48C54.0717 2.74667 53.485 3.28 53.165 4.08C52.845 4.82667 52.685 6 52.685 7.6V25.52C52.685 27.1733 52.8183 28.3733 53.085 29.12C53.405 29.8667 53.9917 30.3733 54.845 30.64C55.6983 30.9067 57.1117 31.04 59.085 31.04C59.245 31.04 59.325 31.2 59.325 31.52C59.325 31.84 59.245 32 59.085 32C57.3783 32 56.045 31.9733 55.085 31.92L49.405 31.84L43.805 31.92C42.7917 31.9733 41.4317 32 39.725 32C39.6183 32 39.565 31.84 39.565 31.52C39.565 31.2 39.6183 31.04 39.725 31.04C41.5917 31.04 42.9517 30.9067 43.805 30.64C44.7117 30.3733 45.325 29.8667 45.645 29.12C45.965 28.32 46.125 27.12 46.125 25.52V7.6ZM70.9275 32.88C69.5942 32.88 68.5275 32.48 67.7275 31.68C66.9275 30.88 66.5275 29.8133 66.5275 28.48C66.5275 27.2 66.9275 26.1867 67.7275 25.44C68.5275 24.6933 69.5942 24.32 70.9275 24.32C72.3142 24.32 73.3808 24.6933 74.1275 25.44C74.8742 26.1867 75.2475 27.2 75.2475 28.48C75.2475 29.8667 74.8742 30.96 74.1275 31.76C73.3808 32.5067 72.3142 32.88 70.9275 32.88Z" fill="#342F3F"/>
</svg>
