<svg width="95" height="42" viewBox="0 0 95 42" fill="none" xmlns="http://www.w3.org/2000/svg">
<path d="M22 41.3C17.9333 41.3 14.3 40.4 11.1 38.6C7.9 36.8 5.4 34.3333 3.6 31.2C1.8 28 0.9 24.4333 0.9 20.5C0.9 16.5667 1.8 13.0667 3.6 10C5.4 6.86667 7.9 4.43333 11.1 2.7C14.3 0.966665 17.9333 0.0999981 22 0.0999981C26.0667 0.0999981 29.6667 0.999998 32.8 2.8C35.9333 4.53333 38.3667 6.96666 40.1 10.1C41.9 13.2333 42.8 16.7667 42.8 20.7C42.8 24.6333 41.9 28.1667 40.1 31.3C38.3667 34.4333 35.9 36.9 32.7 38.7C29.5667 40.4333 26 41.3 22 41.3ZM23 39.4C26.4 39.4 28.9667 37.8667 30.7 34.8C32.4333 31.7333 33.3 27.4667 33.3 22C33.3 15.3333 32.1333 10.3333 29.8 7C27.4667 3.66666 24.5667 2 21.1 2C17.7 2 15.0333 3.6 13.1 6.8C11.2333 9.93333 10.3 14.1667 10.3 19.5C10.3 25.3667 11.4667 30.1667 13.8 33.9C16.1333 37.5667 19.2 39.4 23 39.4ZM58.1562 9.5C58.1562 7.43333 57.9563 5.93333 57.5563 5C57.2229 4.06666 56.5229 3.43333 55.4563 3.1C54.3896 2.76667 52.6229 2.6 50.1563 2.6C50.0229 2.6 49.9563 2.4 49.9563 2C49.9563 1.6 50.0229 1.4 50.1563 1.4C52.2896 1.4 53.9563 1.43333 55.1563 1.5L62.2563 1.6L69.2563 1.5C70.5229 1.43333 72.2229 1.4 74.3563 1.4C74.5563 1.4 74.6563 1.6 74.6563 2C74.6563 2.4 74.5563 2.6 74.3563 2.6C72.0229 2.6 70.2896 2.76667 69.1563 3.1C68.0896 3.43333 67.3563 4.1 66.9563 5.1C66.5563 6.03333 66.3563 7.5 66.3563 9.5V31.9C66.3563 33.9667 66.5229 35.4667 66.8563 36.4C67.2563 37.3333 67.9896 37.9667 69.0563 38.3C70.1229 38.6333 71.8896 38.8 74.3563 38.8C74.5563 38.8 74.6563 39 74.6563 39.4C74.6563 39.8 74.5563 40 74.3563 40C72.2229 40 70.5563 39.9667 69.3563 39.9L62.2563 39.8L55.2563 39.9C53.9896 39.9667 52.2896 40 50.1563 40C50.0229 40 49.9563 39.8 49.9563 39.4C49.9563 39 50.0229 38.8 50.1563 38.8C52.4896 38.8 54.1896 38.6333 55.2563 38.3C56.3896 37.9667 57.1563 37.3333 57.5563 36.4C57.9563 35.4 58.1562 33.9 58.1562 31.9V9.5ZM89.1594 41.1C87.4927 41.1 86.1594 40.6 85.1594 39.6C84.1594 38.6 83.6594 37.2667 83.6594 35.6C83.6594 34 84.1594 32.7333 85.1594 31.8C86.1594 30.8667 87.4927 30.4 89.1594 30.4C90.8927 30.4 92.226 30.8667 93.1594 31.8C94.0927 32.7333 94.5594 34 94.5594 35.6C94.5594 37.3333 94.0927 38.7 93.1594 39.7C92.226 40.6333 90.8927 41.1 89.1594 41.1Z" fill="#C5F0F9"/>
</svg>
