<svg width="81" height="35" viewBox="0 0 81 35" fill="none" xmlns="http://www.w3.org/2000/svg">
<path d="M17.2 34.04C13.9467 34.04 11.04 33.32 8.48 31.88C5.92 30.44 3.92 28.4667 2.48 25.96C1.04 23.4 0.32 20.5467 0.32 17.4C0.32 14.2533 1.04 11.4533 2.48 9C3.92 6.49333 5.92 4.54667 8.48 3.16C11.04 1.77333 13.9467 1.08 17.2 1.08C20.4533 1.08 23.3333 1.8 25.84 3.24C28.3467 4.62667 30.2933 6.57333 31.68 9.08C33.12 11.5867 33.84 14.4133 33.84 17.56C33.84 20.7067 33.12 23.5333 31.68 26.04C30.2933 28.5467 28.32 30.52 25.76 31.96C23.2533 33.3467 20.4 34.04 17.2 34.04ZM18 32.52C20.72 32.52 22.7733 31.2933 24.16 28.84C25.5467 26.3867 26.24 22.9733 26.24 18.6C26.24 13.2667 25.3067 9.26667 23.44 6.6C21.5733 3.93333 19.2533 2.6 16.48 2.6C13.76 2.6 11.6267 3.88 10.08 6.44C8.58667 8.94666 7.84 12.3333 7.84 16.6C7.84 21.2933 8.77333 25.1333 10.64 28.12C12.5067 31.0533 14.96 32.52 18 32.52ZM39.085 31.16C43.7783 27 47.245 23.8 49.485 21.56C51.725 19.32 53.325 17.3733 54.285 15.72C55.2983 14.0667 55.805 12.3867 55.805 10.68C55.805 8.6 55.245 6.86667 54.125 5.48C53.005 4.04 51.485 3.32 49.565 3.32C47.5383 3.32 45.8317 4.2 44.445 5.96C43.1117 7.66666 41.885 10.2533 40.765 13.72C40.765 13.7733 40.6583 13.8 40.445 13.8C39.965 13.8 39.7517 13.72 39.805 13.56L43.165 0.359998C43.165 0.253331 43.2717 0.199998 43.485 0.199998C43.645 0.199998 43.7783 0.253331 43.885 0.359998C44.045 0.413332 44.0983 0.466666 44.045 0.519999C43.9917 0.786665 43.965 1.10666 43.965 1.48C43.965 2.33333 44.365 2.76 45.165 2.76C45.645 2.76 46.445 2.57333 47.565 2.2C49.9117 1.45333 51.965 1.08 53.725 1.08C56.605 1.08 58.845 1.8 60.445 3.24C62.0983 4.62667 62.925 6.46667 62.925 8.76C62.925 10.68 62.3383 12.52 61.165 14.28C59.9917 16.04 58.5517 17.6667 56.845 19.16C55.1917 20.6 52.925 22.4133 50.045 24.6C49.405 25.08 48.845 25.5067 48.365 25.88C47.885 26.2533 47.4583 26.5733 47.085 26.84C46.8717 27 46.7917 27.1333 46.845 27.24C46.9517 27.3467 47.1383 27.4 47.405 27.4C52.2583 27.4 55.7783 27.32 57.965 27.16C60.1517 27 61.8317 26.6267 63.005 26.04C64.1783 25.4533 64.9517 24.44 65.325 23C65.325 22.8933 65.4583 22.84 65.725 22.84C66.0983 22.84 66.285 22.92 66.285 23.08L64.765 32.12C64.765 32.3333 64.685 32.5467 64.525 32.76C64.4183 32.92 64.2583 33 64.045 33H39.565C39.2983 33 39.085 32.76 38.925 32.28C38.8183 31.7467 38.8717 31.3733 39.085 31.16ZM76.5525 33.88C75.2192 33.88 74.1525 33.48 73.3525 32.68C72.5525 31.88 72.1525 30.8133 72.1525 29.48C72.1525 28.2 72.5525 27.1867 73.3525 26.44C74.1525 25.6933 75.2192 25.32 76.5525 25.32C77.9392 25.32 79.0058 25.6933 79.7525 26.44C80.4992 27.1867 80.8725 28.2 80.8725 29.48C80.8725 30.8667 80.4992 31.96 79.7525 32.76C79.0058 33.5067 77.9392 33.88 76.5525 33.88Z" fill="black"/>
</svg>
