<svg width="102" height="43" viewBox="0 0 102 43" fill="none" xmlns="http://www.w3.org/2000/svg">
<path d="M22 42.3C17.9333 42.3 14.3 41.4 11.1 39.6C7.9 37.8 5.4 35.3333 3.6 32.2C1.8 29 0.9 25.4333 0.9 21.5C0.9 17.5667 1.8 14.0667 3.6 11C5.4 7.86667 7.9 5.43333 11.1 3.7C14.3 1.96666 17.9333 1.1 22 1.1C26.0667 1.1 29.6667 2 32.8 3.8C35.9333 5.53333 38.3667 7.96666 40.1 11.1C41.9 14.2333 42.8 17.7667 42.8 21.7C42.8 25.6333 41.9 29.1667 40.1 32.3C38.3667 35.4333 35.9 37.9 32.7 39.7C29.5667 41.4333 26 42.3 22 42.3ZM23 40.4C26.4 40.4 28.9667 38.8667 30.7 35.8C32.4333 32.7333 33.3 28.4667 33.3 23C33.3 16.3333 32.1333 11.3333 29.8 8C27.4667 4.66666 24.5667 3 21.1 3C17.7 3 15.0333 4.6 13.1 7.8C11.2333 10.9333 10.3 15.1667 10.3 20.5C10.3 26.3667 11.4667 31.1667 13.8 34.9C16.1333 38.5667 19.2 40.4 23 40.4ZM49.3563 38.7C55.2229 33.5 59.5563 29.5 62.3563 26.7C65.1563 23.9 67.1563 21.4667 68.3563 19.4C69.6229 17.3333 70.2563 15.2333 70.2563 13.1C70.2563 10.5 69.5563 8.33333 68.1563 6.6C66.7563 4.8 64.8563 3.9 62.4563 3.9C59.9229 3.9 57.7896 5 56.0563 7.2C54.3896 9.33333 52.8563 12.5667 51.4563 16.9C51.4563 16.9667 51.3229 17 51.0563 17C50.4563 17 50.1896 16.9 50.2563 16.7L54.4563 0.199998C54.4563 0.0666642 54.5896 -2.6226e-06 54.8563 -2.6226e-06C55.0563 -2.6226e-06 55.2229 0.0666642 55.3563 0.199998C55.5563 0.266666 55.6229 0.333332 55.5563 0.399998C55.4896 0.733331 55.4563 1.13333 55.4563 1.6C55.4563 2.66666 55.9563 3.2 56.9563 3.2C57.5563 3.2 58.5563 2.96666 59.9563 2.5C62.8896 1.56666 65.4563 1.1 67.6563 1.1C71.2563 1.1 74.0563 2 76.0563 3.8C78.1229 5.53333 79.1563 7.83333 79.1563 10.7C79.1563 13.1 78.4229 15.4 76.9563 17.6C75.4896 19.8 73.6896 21.8333 71.5563 23.7C69.4896 25.5 66.6563 27.7667 63.0563 30.5C62.2563 31.1 61.5563 31.6333 60.9563 32.1C60.3563 32.5667 59.8229 32.9667 59.3563 33.3C59.0896 33.5 58.9896 33.6667 59.0563 33.8C59.1896 33.9333 59.4229 34 59.7563 34C65.8229 34 70.2229 33.9 72.9563 33.7C75.6896 33.5 77.7896 33.0333 79.2563 32.3C80.7229 31.5667 81.6896 30.3 82.1563 28.5C82.1563 28.3667 82.3229 28.3 82.6563 28.3C83.1229 28.3 83.3563 28.4 83.3563 28.6L81.4563 39.9C81.4563 40.1667 81.3563 40.4333 81.1563 40.7C81.0229 40.9 80.8229 41 80.5563 41H49.9563C49.6229 41 49.3563 40.7 49.1563 40.1C49.0229 39.4333 49.0896 38.9667 49.3563 38.7ZM96.1906 42.1C94.524 42.1 93.1906 41.6 92.1906 40.6C91.1906 39.6 90.6906 38.2667 90.6906 36.6C90.6906 35 91.1906 33.7333 92.1906 32.8C93.1906 31.8667 94.524 31.4 96.1906 31.4C97.924 31.4 99.2573 31.8667 100.191 32.8C101.124 33.7333 101.591 35 101.591 36.6C101.591 38.3333 101.124 39.7 100.191 40.7C99.2573 41.6333 97.924 42.1 96.1906 42.1Z" fill="#F2D7F1"/>
</svg>
