<svg width="81" height="56" viewBox="0 0 81 56" fill="none" xmlns="http://www.w3.org/2000/svg">
<path d="M17.2 34.04C13.9467 34.04 11.04 33.32 8.48 31.88C5.92 30.44 3.92 28.4667 2.48 25.96C1.04 23.4 0.32 20.5467 0.32 17.4C0.32 14.2533 1.04 11.4533 2.48 9C3.92 6.49333 5.92 4.54667 8.48 3.16C11.04 1.77333 13.9467 1.08 17.2 1.08C20.4533 1.08 23.3333 1.8 25.84 3.24C28.3467 4.62667 30.2933 6.57333 31.68 9.08C33.12 11.5867 33.84 14.4133 33.84 17.56C33.84 20.7067 33.12 23.5333 31.68 26.04C30.2933 28.5467 28.32 30.52 25.76 31.96C23.2533 33.3467 20.4 34.04 17.2 34.04ZM18 32.52C20.72 32.52 22.7733 31.2933 24.16 28.84C25.5467 26.3867 26.24 22.9733 26.24 18.6C26.24 13.2667 25.3067 9.26667 23.44 6.6C21.5733 3.93333 19.2533 2.6 16.48 2.6C13.76 2.6 11.6267 3.88 10.08 6.44C8.58667 8.94666 7.84 12.3333 7.84 16.6C7.84 21.2933 8.77333 25.1333 10.64 28.12C12.5067 31.0533 14.96 32.52 18 32.52ZM53.645 22.52C57.325 23.0533 60.0983 24.3867 61.965 26.52C63.8317 28.6 64.765 31.0533 64.765 33.88C64.765 36.44 63.885 39.0267 62.125 41.64C60.365 44.3067 57.6717 46.8133 54.045 49.16C50.4183 51.5067 45.9383 53.4533 40.605 55C40.3917 55.0533 40.205 54.92 40.045 54.6C39.9383 54.3333 39.9917 54.1733 40.205 54.12C46.2317 51.88 50.5517 48.9733 53.165 45.4C55.7783 41.88 57.085 38.36 57.085 34.84C57.085 31.8 56.285 29.32 54.685 27.4C53.1383 25.48 50.9517 24.52 48.125 24.52C47.0583 24.52 45.9117 24.68 44.685 25C44.525 25.0533 44.3917 24.92 44.285 24.6C44.1783 24.28 44.205 24.0933 44.365 24.04C48.205 23.0267 50.9783 21.56 52.685 19.64C54.445 17.6667 55.325 14.9733 55.325 11.56C55.325 8.89333 54.845 6.84 53.885 5.4C52.9783 3.90666 51.6183 3.16 49.805 3.16C47.565 3.16 45.565 3.93333 43.805 5.48C42.045 7.02666 40.605 9.32 39.485 12.36C39.4317 12.4133 39.325 12.44 39.165 12.44C38.685 12.44 38.4717 12.3333 38.525 12.12L41.485 0.44C41.5917 0.333333 41.6983 0.279999 41.805 0.279999C41.965 0.279999 42.125 0.333333 42.285 0.44C42.445 0.493332 42.4983 0.546665 42.445 0.599998C42.3383 1.02667 42.285 1.32 42.285 1.48C42.285 2.38667 42.7383 2.84 43.645 2.84C44.285 2.84 45.165 2.62667 46.285 2.2C47.5117 1.82667 48.5517 1.56 49.405 1.4C50.3117 1.18667 51.325 1.08 52.445 1.08C55.5383 1.08 57.965 1.98667 59.725 3.8C61.485 5.56 62.365 7.69333 62.365 10.2C62.365 12.76 61.5917 15.1867 60.045 17.48C58.4983 19.72 56.365 21.4 53.645 22.52ZM75.6931 33.88C74.3598 33.88 73.2931 33.48 72.4931 32.68C71.6931 31.88 71.2931 30.8133 71.2931 29.48C71.2931 28.2 71.6931 27.1867 72.4931 26.44C73.2931 25.6933 74.3598 25.32 75.6931 25.32C77.0798 25.32 78.1465 25.6933 78.8931 26.44C79.6398 27.1867 80.0131 28.2 80.0131 29.48C80.0131 30.8667 79.6398 31.96 78.8931 32.76C78.1465 33.5067 77.0798 33.88 75.6931 33.88Z" fill="black"/>
</svg>
