<svg width="101" height="69" viewBox="0 0 101 69" fill="none" xmlns="http://www.w3.org/2000/svg">
<path d="M22 42.3C17.9333 42.3 14.3 41.4 11.1 39.6C7.9 37.8 5.4 35.3333 3.6 32.2C1.8 29 0.9 25.4333 0.9 21.5C0.9 17.5667 1.8 14.0667 3.6 11C5.4 7.86667 7.9 5.43333 11.1 3.7C14.3 1.96666 17.9333 1.1 22 1.1C26.0667 1.1 29.6667 2 32.8 3.8C35.9333 5.53333 38.3667 7.96666 40.1 11.1C41.9 14.2333 42.8 17.7667 42.8 21.7C42.8 25.6333 41.9 29.1667 40.1 32.3C38.3667 35.4333 35.9 37.9 32.7 39.7C29.5667 41.4333 26 42.3 22 42.3ZM23 40.4C26.4 40.4 28.9667 38.8667 30.7 35.8C32.4333 32.7333 33.3 28.4667 33.3 23C33.3 16.3333 32.1333 11.3333 29.8 8C27.4667 4.66666 24.5667 3 21.1 3C17.7 3 15.0333 4.6 13.1 7.8C11.2333 10.9333 10.3 15.1667 10.3 20.5C10.3 26.3667 11.4667 31.1667 13.8 34.9C16.1333 38.5667 19.2 40.4 23 40.4ZM67.5563 27.9C72.1563 28.5667 75.6229 30.2333 77.9563 32.9C80.2896 35.5 81.4563 38.5667 81.4563 42.1C81.4563 45.3 80.3563 48.5333 78.1563 51.8C75.9563 55.1333 72.5896 58.2667 68.0563 61.2C63.5229 64.1333 57.9229 66.5667 51.2563 68.5C50.9896 68.5667 50.7563 68.4 50.5563 68C50.4229 67.6667 50.4896 67.4667 50.7563 67.4C58.2896 64.6 63.6896 60.9667 66.9563 56.5C70.2229 52.1 71.8563 47.7 71.8563 43.3C71.8563 39.5 70.8563 36.4 68.8563 34C66.9229 31.6 64.1896 30.4 60.6563 30.4C59.3229 30.4 57.8896 30.6 56.3563 31C56.1563 31.0667 55.9896 30.9 55.8563 30.5C55.7229 30.1 55.7563 29.8667 55.9563 29.8C60.7563 28.5333 64.2229 26.7 66.3563 24.3C68.5563 21.8333 69.6563 18.4667 69.6563 14.2C69.6563 10.8667 69.0563 8.3 67.8563 6.5C66.7229 4.63333 65.0229 3.7 62.7563 3.7C59.9563 3.7 57.4563 4.66666 55.2563 6.6C53.0563 8.53333 51.2563 11.4 49.8563 15.2C49.7896 15.2667 49.6563 15.3 49.4563 15.3C48.8563 15.3 48.5896 15.1667 48.6563 14.9L52.3563 0.299999C52.4896 0.166666 52.6229 0.0999991 52.7563 0.0999991C52.9563 0.0999991 53.1563 0.166666 53.3563 0.299999C53.5563 0.366665 53.6229 0.433331 53.5563 0.499997C53.4229 1.03333 53.3563 1.4 53.3563 1.6C53.3563 2.73333 53.9229 3.3 55.0563 3.3C55.8563 3.3 56.9563 3.03333 58.3563 2.5C59.8896 2.03333 61.1896 1.7 62.2563 1.5C63.3896 1.23333 64.6563 1.1 66.0563 1.1C69.9229 1.1 72.9563 2.23333 75.1563 4.5C77.3563 6.7 78.4563 9.36666 78.4563 12.5C78.4563 15.7 77.4896 18.7333 75.5563 21.6C73.6229 24.4 70.9563 26.5 67.5563 27.9ZM95.1164 42.1C93.4497 42.1 92.1164 41.6 91.1164 40.6C90.1164 39.6 89.6164 38.2667 89.6164 36.6C89.6164 35 90.1164 33.7333 91.1164 32.8C92.1164 31.8667 93.4497 31.4 95.1164 31.4C96.8497 31.4 98.1831 31.8667 99.1164 32.8C100.05 33.7333 100.516 35 100.516 36.6C100.516 38.3333 100.05 39.7 99.1164 40.7C98.1831 41.6333 96.8497 42.1 95.1164 42.1Z" fill="#F2EDC3"/>
</svg>
