<svg width="86" height="48" viewBox="0 0 86 48" fill="none" xmlns="http://www.w3.org/2000/svg">
<path d="M17.2 33.04C13.9467 33.04 11.04 32.32 8.48 30.88C5.92 29.44 3.92 27.4667 2.48 24.96C1.04 22.4 0.32 19.5467 0.32 16.4C0.32 13.2533 1.04 10.4533 2.48 8C3.92 5.49333 5.92 3.54667 8.48 2.16C11.04 0.773332 13.9467 0.0799985 17.2 0.0799985C20.4533 0.0799985 23.3333 0.799999 25.84 2.24C28.3467 3.62667 30.2933 5.57333 31.68 8.08C33.12 10.5867 33.84 13.4133 33.84 16.56C33.84 19.7067 33.12 22.5333 31.68 25.04C30.2933 27.5467 28.32 29.52 25.76 30.96C23.2533 32.3467 20.4 33.04 17.2 33.04ZM18 31.52C20.72 31.52 22.7733 30.2933 24.16 27.84C25.5467 25.3867 26.24 21.9733 26.24 17.6C26.24 12.2667 25.3067 8.26667 23.44 5.6C21.5733 2.93333 19.2533 1.6 16.48 1.6C13.76 1.6 11.6267 2.88 10.08 5.44C8.58667 7.94666 7.84 11.3333 7.84 15.6C7.84 20.2933 8.77333 24.1333 10.64 27.12C12.5067 30.0533 14.96 31.52 18 31.52ZM69.565 28.24C69.7783 28.24 69.885 28.6933 69.885 29.6C69.885 30.1333 69.8317 30.6667 69.725 31.2C69.6183 31.68 69.5117 31.92 69.405 31.92L67.485 31.84C65.7783 31.7333 64.4983 31.68 63.645 31.68V43.28C63.645 43.8133 63.4317 44.1867 63.005 44.4L57.725 47.04C57.405 47.1467 57.245 47.2 57.245 47.2C57.085 47.2 57.005 46.9867 57.005 46.56V31.44C53.7517 31.3867 47.645 31.36 38.685 31.36C38.4183 31.36 38.205 31.2533 38.045 31.04C37.885 30.8267 37.9117 30.6133 38.125 30.4L62.445 0.319998C62.5517 0.213331 62.7117 0.159997 62.925 0.159997C63.085 0.159997 63.245 0.213331 63.405 0.319998C63.565 0.373332 63.645 0.479999 63.645 0.639998V28.48L69.565 28.24ZM43.245 28.72C49.8583 28.72 54.445 28.6933 57.005 28.64V11.04L42.845 28.16C42.525 28.5333 42.6583 28.72 43.245 28.72ZM80.6931 32.88C79.3598 32.88 78.2931 32.48 77.4931 31.68C76.6931 30.88 76.2931 29.8133 76.2931 28.48C76.2931 27.2 76.6931 26.1867 77.4931 25.44C78.2931 24.6933 79.3598 24.32 80.6931 24.32C82.0798 24.32 83.1465 24.6933 83.8931 25.44C84.6398 26.1867 85.0131 27.2 85.0131 28.48C85.0131 29.8667 84.6398 30.96 83.8931 31.76C83.1465 32.5067 82.0798 32.88 80.6931 32.88Z" fill="black"/>
</svg>
