<svg width="107" height="59" viewBox="0 0 107 59" fill="none" xmlns="http://www.w3.org/2000/svg">
<path d="M22 41.3C17.9333 41.3 14.3 40.4 11.1 38.6C7.9 36.8 5.4 34.3333 3.6 31.2C1.8 28 0.9 24.4333 0.9 20.5C0.9 16.5667 1.8 13.0667 3.6 10C5.4 6.86667 7.9 4.43333 11.1 2.7C14.3 0.966665 17.9333 0.0999981 22 0.0999981C26.0667 0.0999981 29.6667 0.999998 32.8 2.8C35.9333 4.53333 38.3667 6.96666 40.1 10.1C41.9 13.2333 42.8 16.7667 42.8 20.7C42.8 24.6333 41.9 28.1667 40.1 31.3C38.3667 34.4333 35.9 36.9 32.7 38.7C29.5667 40.4333 26 41.3 22 41.3ZM23 39.4C26.4 39.4 28.9667 37.8667 30.7 34.8C32.4333 31.7333 33.3 27.4667 33.3 22C33.3 15.3333 32.1333 10.3333 29.8 7C27.4667 3.66666 24.5667 2 21.1 2C17.7 2 15.0333 3.6 13.1 6.8C11.2333 9.93333 10.3 14.1667 10.3 19.5C10.3 25.3667 11.4667 30.1667 13.8 33.9C16.1333 37.5667 19.2 39.4 23 39.4ZM87.4563 35.3C87.7229 35.3 87.8563 35.8667 87.8563 37C87.8563 37.6667 87.7896 38.3333 87.6563 39C87.5229 39.6 87.3896 39.9 87.2563 39.9L84.8563 39.8C82.7229 39.6667 81.1229 39.6 80.0563 39.6V54.1C80.0563 54.7667 79.7896 55.2333 79.2563 55.5L72.6563 58.8C72.2563 58.9333 72.0562 59 72.0562 59C71.8563 59 71.7563 58.7333 71.7563 58.2V39.3C67.6896 39.2333 60.0563 39.2 48.8563 39.2C48.5229 39.2 48.2563 39.0667 48.0563 38.8C47.8563 38.5333 47.8896 38.2667 48.1563 38L78.5563 0.399997C78.6896 0.266664 78.8896 0.199997 79.1563 0.199997C79.3563 0.199997 79.5563 0.266664 79.7563 0.399997C79.9563 0.466665 80.0563 0.599999 80.0563 0.799998V35.6L87.4563 35.3ZM54.5563 35.9C62.8229 35.9 68.5563 35.8667 71.7563 35.8V13.8L54.0563 35.2C53.6563 35.6667 53.8229 35.9 54.5563 35.9ZM101.366 41.1C99.6997 41.1 98.3664 40.6 97.3664 39.6C96.3664 38.6 95.8664 37.2667 95.8664 35.6C95.8664 34 96.3664 32.7333 97.3664 31.8C98.3664 30.8667 99.6997 30.4 101.366 30.4C103.1 30.4 104.433 30.8667 105.366 31.8C106.3 32.7333 106.766 34 106.766 35.6C106.766 37.3333 106.3 38.7 105.366 39.7C104.433 40.6333 103.1 41.1 101.366 41.1Z" fill="#F2D7F1"/>
</svg>
