<svg width="82" height="57" viewBox="0 0 82 57" fill="none" xmlns="http://www.w3.org/2000/svg">
<path d="M17.2 36.04C13.9467 36.04 11.04 35.32 8.48 33.88C5.92 32.44 3.92 30.4667 2.48 27.96C1.04 25.4 0.32 22.5467 0.32 19.4C0.32 16.2533 1.04 13.4533 2.48 11C3.92 8.49333 5.92 6.54667 8.48 5.16C11.04 3.77333 13.9467 3.08 17.2 3.08C20.4533 3.08 23.3333 3.8 25.84 5.24C28.3467 6.62667 30.2933 8.57333 31.68 11.08C33.12 13.5867 33.84 16.4133 33.84 19.56C33.84 22.7067 33.12 25.5333 31.68 28.04C30.2933 30.5467 28.32 32.52 25.76 33.96C23.2533 35.3467 20.4 36.04 17.2 36.04ZM18 34.52C20.72 34.52 22.7733 33.2933 24.16 30.84C25.5467 28.3867 26.24 24.9733 26.24 20.6C26.24 15.2667 25.3067 11.2667 23.44 8.6C21.5733 5.93333 19.2533 4.6 16.48 4.6C13.76 4.6 11.6267 5.88 10.08 8.44C8.58667 10.9467 7.84 14.3333 7.84 18.6C7.84 23.2933 8.77333 27.1333 10.64 30.12C12.5067 33.0533 14.96 34.52 18 34.52ZM43.085 19.32C50.4983 19.3733 55.9383 20.7333 59.405 23.4C62.925 26.0667 64.685 29.6933 64.685 34.28C64.685 37.32 63.885 40.0667 62.285 42.52C60.7383 45.0267 58.285 47.4267 54.925 49.72C51.565 52.0667 47.1117 54.4933 41.565 57H41.485C41.2717 57 41.085 56.8667 40.925 56.6C40.8183 56.3867 40.8717 56.2267 41.085 56.12C47.1117 52.8667 51.325 49.5867 53.725 46.28C56.1783 42.9733 57.405 39.4267 57.405 35.64C57.405 31.2133 56.045 27.7733 53.325 25.32C50.605 22.8667 46.685 21.64 41.565 21.64C41.2983 21.64 41.085 21.56 40.925 21.4C40.765 21.1867 40.7117 20.9467 40.765 20.68L43.325 6.44C43.3783 6.06666 43.4583 5.85333 43.565 5.8C43.6717 5.69333 43.9383 5.61333 44.365 5.56C51.085 4.76 55.5917 4.2 57.885 3.88C60.1783 3.56 61.645 3.24 62.285 2.92C62.9783 2.54666 63.4583 1.96 63.725 1.16C63.7783 0.999998 63.9383 0.946665 64.205 0.999999C64.525 0.999999 64.6583 1.10667 64.605 1.32L63.005 9.16C62.845 9.8 62.605 10.2 62.285 10.36C62.0183 10.52 61.5117 10.6 60.765 10.6L45.565 10.92C44.8717 10.92 44.4717 11.32 44.365 12.12L43.085 19.32ZM77.0994 35.88C75.766 35.88 74.6994 35.48 73.8994 34.68C73.0994 33.88 72.6994 32.8133 72.6994 31.48C72.6994 30.2 73.0994 29.1867 73.8994 28.44C74.6994 27.6933 75.766 27.32 77.0994 27.32C78.486 27.32 79.5527 27.6933 80.2994 28.44C81.046 29.1867 81.4194 30.2 81.4194 31.48C81.4194 32.8667 81.046 33.96 80.2994 34.76C79.5527 35.5067 78.486 35.88 77.0994 35.88Z" fill="black"/>
</svg>
