<svg width="103" height="71" viewBox="0 0 103 71" fill="none" xmlns="http://www.w3.org/2000/svg">
<path d="M22 44.3C17.9333 44.3 14.3 43.4 11.1 41.6C7.9 39.8 5.4 37.3333 3.6 34.2C1.8 31 0.9 27.4333 0.9 23.5C0.9 19.5667 1.8 16.0667 3.6 13C5.4 9.86667 7.9 7.43333 11.1 5.7C14.3 3.96666 17.9333 3.1 22 3.1C26.0667 3.1 29.6667 4 32.8 5.8C35.9333 7.53333 38.3667 9.96666 40.1 13.1C41.9 16.2333 42.8 19.7667 42.8 23.7C42.8 27.6333 41.9 31.1667 40.1 34.3C38.3667 37.4333 35.9 39.9 32.7 41.7C29.5667 43.4333 26 44.3 22 44.3ZM23 42.4C26.4 42.4 28.9667 40.8667 30.7 37.8C32.4333 34.7333 33.3 30.4667 33.3 25C33.3 18.3333 32.1333 13.3333 29.8 10C27.4667 6.66666 24.5667 5 21.1 5C17.7 5 15.0333 6.6 13.1 9.8C11.2333 12.9333 10.3 17.1667 10.3 22.5C10.3 28.3667 11.4667 33.1667 13.8 36.9C16.1333 40.5667 19.2 42.4 23 42.4ZM54.3563 23.4C63.6229 23.4667 70.4229 25.1667 74.7563 28.5C79.1563 31.8333 81.3563 36.3667 81.3563 42.1C81.3563 45.9 80.3563 49.3333 78.3563 52.4C76.4229 55.5333 73.3563 58.5333 69.1563 61.4C64.9563 64.3333 59.3896 67.3667 52.4563 70.5H52.3563C52.0896 70.5 51.8563 70.3333 51.6563 70C51.5229 69.7333 51.5896 69.5333 51.8563 69.4C59.3896 65.3333 64.6563 61.2333 67.6563 57.1C70.7229 52.9667 72.2563 48.5333 72.2563 43.8C72.2563 38.2667 70.5563 33.9667 67.1563 30.9C63.7563 27.8333 58.8563 26.3 52.4563 26.3C52.1229 26.3 51.8563 26.2 51.6563 26C51.4563 25.7333 51.3896 25.4333 51.4563 25.1L54.6563 7.3C54.7229 6.83333 54.8229 6.56666 54.9563 6.5C55.0896 6.36667 55.4229 6.26666 55.9563 6.2C64.3563 5.2 69.9896 4.5 72.8563 4.1C75.7229 3.7 77.5563 3.3 78.3563 2.9C79.2229 2.43333 79.8229 1.7 80.1563 0.699999C80.2229 0.499998 80.4229 0.433331 80.7563 0.499999C81.1563 0.499999 81.3229 0.633331 81.2563 0.899997L79.2563 10.7C79.0563 11.5 78.7563 12 78.3563 12.2C78.0229 12.4 77.3896 12.5 76.4563 12.5L57.4563 12.9C56.5896 12.9 56.0896 13.4 55.9563 14.4L54.3563 23.4ZM96.8742 44.1C95.2076 44.1 93.8742 43.6 92.8742 42.6C91.8742 41.6 91.3742 40.2667 91.3742 38.6C91.3742 37 91.8742 35.7333 92.8742 34.8C93.8742 33.8667 95.2076 33.4 96.8742 33.4C98.6076 33.4 99.9409 33.8667 100.874 34.8C101.808 35.7333 102.274 37 102.274 38.6C102.274 40.3333 101.808 41.7 100.874 42.7C99.9409 43.6333 98.6076 44.1 96.8742 44.1Z" fill="#DCCDFF"/>
</svg>
