<svg width="108" height="69" viewBox="0 0 108 69" fill="none" xmlns="http://www.w3.org/2000/svg">
<path d="M22 68.3C17.9333 68.3 14.3 67.4 11.1 65.6C7.9 63.8 5.4 61.3333 3.6 58.2C1.8 55 0.9 51.4333 0.9 47.5C0.9 43.5667 1.8 40.0667 3.6 37C5.4 33.8667 7.9 31.4333 11.1 29.7C14.3 27.9667 17.9333 27.1 22 27.1C26.0667 27.1 29.6667 28 32.8 29.8C35.9333 31.5333 38.3667 33.9667 40.1 37.1C41.9 40.2333 42.8 43.7667 42.8 47.7C42.8 51.6333 41.9 55.1667 40.1 58.3C38.3667 61.4333 35.9 63.9 32.7 65.7C29.5667 67.4333 26 68.3 22 68.3ZM23 66.4C26.4 66.4 28.9667 64.8667 30.7 61.8C32.4333 58.7333 33.3 54.4667 33.3 49C33.3 42.3333 32.1333 37.3333 29.8 34C27.4667 30.6667 24.5667 29 21.1 29C17.7 29 15.0333 30.6 13.1 33.8C11.2333 36.9333 10.3 41.1667 10.3 46.5C10.3 52.3667 11.4667 57.1667 13.8 60.9C16.1333 64.5667 19.2 66.4 23 66.4ZM76.2563 38.4C80.5896 38.4 83.8563 39.6667 86.0563 42.2C88.2563 44.6667 89.3563 47.6333 89.3563 51.1C89.3563 54.2333 88.4229 57.1333 86.5563 59.8C84.6896 62.4 82.1563 64.4667 78.9563 66C75.8229 67.5333 72.3896 68.3 68.6563 68.3C62.7896 68.3 58.1563 66.3667 54.7563 62.5C51.3563 58.5667 49.6563 53.1667 49.6563 46.3C49.6563 40.0333 51.0896 33.9 53.9563 27.9C56.8896 21.8333 61.0563 16.4333 66.4563 11.7C71.9229 6.96666 78.3229 3.36667 85.6563 0.899999C85.9229 0.833329 86.1229 0.966662 86.2563 1.3C86.3896 1.63333 86.3563 1.86666 86.1563 2C80.2229 4.86666 75.1896 8.63333 71.0563 13.3C66.9229 17.9 63.8229 22.9333 61.7563 28.4C59.6896 33.8667 58.6563 39.3333 58.6563 44.8C58.6563 48.7333 59.1563 52.3333 60.1563 55.6C61.2229 58.8 62.7229 61.3667 64.6563 63.3C66.5896 65.1667 68.8229 66.1 71.3562 66.1C74.0896 66.1 76.2563 65.0333 77.8563 62.9C79.5229 60.7 80.3563 57.7 80.3563 53.9C80.3563 50.3667 79.5896 47.5333 78.0563 45.4C76.5896 43.2 74.3896 42.1 71.4563 42.1C70.1229 42.1 68.8229 42.3667 67.5563 42.9C66.3563 43.4333 64.9896 44.3 63.4563 45.5C63.3896 45.5667 63.2896 45.6 63.1563 45.6C62.9563 45.6 62.7563 45.5 62.5563 45.3C62.3563 45.1 62.2896 44.9333 62.3563 44.8C66.0896 40.5333 70.7229 38.4 76.2563 38.4ZM102.441 68.1C100.774 68.1 99.4406 67.6 98.4406 66.6C97.4406 65.6 96.9406 64.2667 96.9406 62.6C96.9406 61 97.4406 59.7333 98.4406 58.8C99.4406 57.8667 100.774 57.4 102.441 57.4C104.174 57.4 105.507 57.8667 106.441 58.8C107.374 59.7333 107.841 61 107.841 62.6C107.841 64.3333 107.374 65.7 106.441 66.7C105.507 67.6333 104.174 68.1 102.441 68.1Z" fill="#C5F0F9"/>
</svg>
