<svg width="40" height="41" viewBox="0 0 40 41" fill="none" xmlns="http://www.w3.org/2000/svg">
<path d="M37.1764 21.938C35.6935 21.6298 33.6847 21.4668 31.3672 21.4668C30.4107 21.4668 29.5079 21.495 28.6719 21.5493V3.14648C28.6719 1.96187 27.708 0.998047 26.5234 0.998047H2.14844C0.903516 0.998047 0 2.03305 0 3.45898V35.8809C0 36.7298 0.938516 37.7168 2.14844 37.7168H22.7344V38.6152C22.7344 39.9398 24.8595 40.3816 25.558 40.5268C27.0409 40.8351 29.0497 40.998 31.3672 40.998C33.6847 40.998 35.6935 40.8351 37.1764 40.5268C37.8748 40.3816 40 39.9398 40 38.6152V23.8496C40 22.5251 37.8748 22.0833 37.1764 21.938ZM38.8281 31.2287C38.816 31.2538 38.5722 31.6845 36.742 32.0359C35.353 32.3025 33.4945 32.4434 31.3672 32.4434C29.2399 32.4434 27.3813 32.3025 25.9923 32.0359C24.1172 31.6759 23.9073 31.2324 23.9062 31.2324V28.9491C24.5195 29.2363 25.2128 29.3808 25.558 29.4525C27.0409 29.7608 29.0497 29.9237 31.3672 29.9237C33.6847 29.9237 35.6935 29.7608 37.1764 29.4525C37.5215 29.3808 38.2148 29.2363 38.8281 28.9491V31.2287ZM15.0781 31.3496C14.7545 31.3496 14.4922 31.6119 14.4922 31.9355V33.4199H5.58594C5.28055 33.4199 5.07812 33.1698 5.07812 33.0684V27.248H14.4922V29.2012C14.4922 29.5248 14.7545 29.7871 15.0781 29.7871C15.4018 29.7871 15.6641 29.5248 15.6641 29.2012V27.248H22.7344V33.4199H15.6641V31.9355C15.6641 31.6119 15.4018 31.3496 15.0781 31.3496ZM25.0781 22.0451C24.1797 22.2654 22.7344 22.7571 22.7344 23.8496V26.0762H15.6641V19.9043H24.5703C24.8503 19.9043 25.0781 20.1321 25.0781 20.4121V22.0451ZM14.4922 26.0762H5.07812V20.5684C5.07812 20.1712 5.28219 19.9043 5.58594 19.9043H14.4922V26.0762ZM38.8281 27.5373C38.816 27.5624 38.5722 27.993 36.742 28.3445C35.353 28.6111 33.4945 28.752 31.3672 28.752C29.2399 28.752 27.3813 28.6111 25.9923 28.3445C24.1172 27.9845 23.9073 27.541 23.9062 27.541V25.2577C24.5195 25.5449 25.2128 25.6894 25.558 25.7611C27.0409 26.0695 29.0497 26.2324 31.3672 26.2324C33.6847 26.2324 35.6935 26.0695 37.1764 25.7612C37.5215 25.6895 38.2148 25.545 38.8281 25.2577V27.5373ZM36.742 23.0463C38.5094 23.3855 38.7975 23.799 38.8262 23.8496C38.7975 23.9002 38.5094 24.3137 36.742 24.653C35.353 24.9196 33.4945 25.0605 31.3672 25.0605C29.2399 25.0605 27.3813 24.9196 25.9923 24.653C24.225 24.3137 23.9369 23.9002 23.9082 23.8496C23.9369 23.799 24.225 23.3855 25.9923 23.0463C27.3813 22.7796 29.2399 22.6387 31.3672 22.6387C33.4945 22.6387 35.353 22.7796 36.742 23.0463ZM2.14844 36.5449C1.58422 36.5449 1.17188 36.0789 1.17188 35.8809V16.7793H20.4688C20.7924 16.7793 21.0547 16.517 21.0547 16.1934C21.0547 15.8697 20.7924 15.6074 20.4688 15.6074H1.17188V3.45898C1.17188 2.67594 1.55516 2.16992 2.14844 2.16992H26.5234C27.062 2.16992 27.5 2.60797 27.5 3.14648V15.6074H23.2031C22.8795 15.6074 22.6172 15.8697 22.6172 16.1934C22.6172 16.517 22.8795 16.7793 23.2031 16.7793H27.5V21.6471C27.057 21.6933 26.6398 21.7482 26.25 21.8114V20.4121C26.25 19.4859 25.4965 18.7324 24.5703 18.7324H5.58594C4.62836 18.7324 3.90625 19.5217 3.90625 20.5684V33.0684C3.90625 33.8799 4.69117 34.5918 5.58594 34.5918H22.7344V36.5449H2.14844ZM36.742 39.4186C35.353 39.6852 33.4945 39.8262 31.3672 39.8262C29.2399 39.8262 27.3813 39.6852 25.9923 39.4186C24.1172 39.0587 23.9073 38.6152 23.9062 38.6152V36.3319C24.5195 36.6191 25.2128 36.7636 25.558 36.8353C27.0409 37.1436 29.0497 37.3066 31.3672 37.3066C32.4838 37.3066 33.5416 37.2679 34.5109 37.1915C34.8335 37.1661 35.0745 36.884 35.0491 36.5614C35.0237 36.2388 34.7408 35.9978 34.419 36.0233C33.4801 36.0972 32.4534 36.1347 31.3672 36.1347C29.2399 36.1347 27.3813 35.9938 25.9923 35.7271C24.1172 35.3673 23.9073 34.9238 23.9062 34.9238V32.6405C24.5195 32.9277 25.2128 33.0722 25.558 33.1439C27.0409 33.4522 29.0497 33.6152 31.3672 33.6152C33.6847 33.6152 35.6935 33.4522 37.1764 33.1439C37.5215 33.0722 38.2148 32.9277 38.8281 32.6405V34.92C38.8161 34.945 38.6003 35.3264 37.0495 35.6643C36.7333 35.7332 36.5328 36.0454 36.6017 36.3616C36.6692 36.68 36.9909 36.8791 37.299 36.8093C37.6196 36.7395 38.2544 36.6007 38.8281 36.3323V38.6114C38.816 38.6366 38.5722 39.0672 36.742 39.4186Z" fill="#B796F5"/>
<path d="M26.3281 11.9746V5.80273C26.3281 4.87656 25.5746 4.12305 24.6484 4.12305H11.7188C11.3951 4.12305 11.1328 4.38531 11.1328 4.70898C11.1328 5.03266 11.3951 5.29492 11.7188 5.29492H24.6484C24.9284 5.29492 25.1562 5.52273 25.1562 5.80273V11.9746C25.1562 12.2546 24.9284 12.4824 24.6484 12.4824H5.58594C5.30594 12.4824 5.07812 12.2546 5.07812 11.9746V5.80273C5.07812 5.52273 5.30594 5.29492 5.58594 5.29492H8.98438C9.30805 5.29492 9.57031 5.03266 9.57031 4.70898C9.57031 4.38531 9.30805 4.12305 8.98438 4.12305H5.58594C4.65977 4.12305 3.90625 4.87656 3.90625 5.80273V11.9746C3.90625 12.9008 4.65977 13.6543 5.58594 13.6543H24.6484C25.5746 13.6543 26.3281 12.9008 26.3281 11.9746Z" fill="#B796F5"/>
<path d="M12.3047 29.748H8.08594C7.76227 29.748 7.5 30.0103 7.5 30.334C7.5 30.6577 7.76227 30.9199 8.08594 30.9199H12.3047C12.6284 30.9199 12.8906 30.6577 12.8906 30.334C12.8906 30.0103 12.6284 29.748 12.3047 29.748Z" fill="#B796F5"/>
<path d="M8.47656 23.5762H9.60938V24.709C9.60938 25.0327 9.87164 25.2949 10.1953 25.2949C10.519 25.2949 10.7812 25.0327 10.7812 24.709V23.5762H11.9141C12.2377 23.5762 12.5 23.3139 12.5 22.9902C12.5 22.6666 12.2377 22.4043 11.9141 22.4043H10.7812V21.2715C10.7812 20.9478 10.519 20.6855 10.1953 20.6855C9.87164 20.6855 9.60938 20.9478 9.60938 21.2715V22.4043H8.47656C8.15289 22.4043 7.89062 22.6666 7.89062 22.9902C7.89062 23.3139 8.15289 23.5762 8.47656 23.5762Z" fill="#B796F5"/>
<path d="M21.6302 21.361C21.4013 21.1323 21.0304 21.1323 20.8015 21.361L20.0005 22.162L19.1995 21.361C18.9706 21.1323 18.5997 21.1323 18.3708 21.361C18.142 21.5899 18.142 21.9609 18.3708 22.1897L19.1719 22.9907L18.3708 23.7917C18.142 24.0206 18.142 24.3916 18.3708 24.6204C18.5997 24.8491 18.9706 24.8491 19.1995 24.6204L20.0005 23.8194L20.8015 24.6204C21.0304 24.8491 21.4013 24.8491 21.6302 24.6204C21.859 24.3915 21.859 24.0205 21.6302 23.7917L20.8292 22.9907L21.6302 22.1897C21.859 21.9608 21.859 21.5898 21.6302 21.361Z" fill="#B796F5"/>
<path d="M18.6836 32.2597C18.8335 32.2597 18.9835 32.2025 19.0979 32.0881L21.7542 29.4319C21.983 29.203 21.983 28.832 21.7542 28.6032C21.5253 28.3745 21.1544 28.3745 20.9255 28.6032L18.2693 31.2594C18.0404 31.4884 18.0404 31.8593 18.2693 32.0881C18.3837 32.2025 18.5337 32.2597 18.6836 32.2597Z" fill="#B796F5"/>
<path d="M18.8672 29.4355C19.1908 29.4355 19.4531 29.1732 19.4531 28.8496C19.4531 28.526 19.1908 28.2637 18.8672 28.2637C18.5436 28.2637 18.2812 28.526 18.2812 28.8496C18.2812 29.1732 18.5436 29.4355 18.8672 29.4355Z" fill="#B796F5"/>
<path d="M21.2109 32.4043C21.5345 32.4043 21.7969 32.142 21.7969 31.8184C21.7969 31.4948 21.5345 31.2324 21.2109 31.2324C20.8873 31.2324 20.625 31.4948 20.625 31.8184C20.625 32.142 20.8873 32.4043 21.2109 32.4043Z" fill="#B796F5"/>
<path d="M22.6953 11.3887C23.4491 11.3887 24.0625 10.7753 24.0625 10.0215V7.75586C24.0625 7.00203 23.4491 6.38867 22.6953 6.38867H21.6016C20.8477 6.38867 20.2344 7.00203 20.2344 7.75586V10.0215C20.2344 10.7753 20.8477 11.3887 21.6016 11.3887H22.6953ZM21.4062 10.0215V7.75586C21.4062 7.64813 21.4938 7.56055 21.6016 7.56055H22.6953C22.803 7.56055 22.8906 7.64813 22.8906 7.75586V10.0215C22.8906 10.1292 22.803 10.2168 22.6953 10.2168H21.6016C21.4938 10.2168 21.4062 10.1292 21.4062 10.0215Z" fill="#B796F5"/>
</svg>
