<svg width="554" height="278" viewBox="0 0 554 278" fill="none" xmlns="http://www.w3.org/2000/svg">
<path d="M150.582 10.3467C122.081 4.34736 91.6572 -0.82224 61.1572 1.6186C47.7002 2.69553 26.2329 5.38992 9.15727 27.6185C1.65724 38.1185 -1.41839 53.3471 3.12746 67.3472C10.2159 89.1779 34.5815 100.347 48.6276 105.347C60.7993 109.68 81.736 113.46 94.1572 115.118C109.5 117.166 133.826 116.594 144.157 115.118C175.657 110.618 187.674 103.479 197.628 97.8473C205.581 93.347 213.354 85.3471 216.128 78.3473C221.082 65.8471 214.328 54.7347 212.128 51.3473C207.581 44.347 199.891 36.3972 179.082 28.8471C170.563 25.7565 157.734 21.4084 144.157 19.1182C125.978 16.0515 107.46 13.98 95.1572 13.6182C78.1572 13.1182 60.1572 16.2967 53.6572 18.6182C47.1572 20.9396 38.5232 25.286 32.6572 32.6185C28.6572 37.6185 27.2296 44.2341 27.0814 51.3467C26.5814 75.3467 61.5261 91.6084 88.6571 93.6181C102.157 94.6181 145.424 95.6179 167.97 82.1181" stroke="white" stroke-width="1.5" stroke-linecap="round" stroke-linejoin="round"/>
<path d="M217 77C257.167 80.051 319.83 100.262 367.754 130.42C410.772 157.49 438.306 190.773 448.751 211.798C454.952 224.279 455.73 234.264 456.114 239.756C456.826 249.938 454.566 258.323 453.014 262.722C447.201 279.197 428.137 282.781 416.197 266.216C411.159 259.227 407.158 247.744 408.446 227.774C408.999 219.217 413.484 197.32 423.561 185.338C435.977 170.573 458.444 173.698 459.99 173.855C474.716 175.353 500.778 185.601 517.734 199.317C534.398 212.796 538.39 221.997 540.599 226.276C542.808 230.555 546.635 240.613 547.187 247.744M547.187 247.744L534.398 241.254M547.187 247.744L553 233.266" stroke="white" stroke-width="1.5"/>
</svg>
