<svg width="651" height="278" viewBox="0 0 651 278" fill="none" xmlns="http://www.w3.org/2000/svg">
<path d="M150.424 10.2285C121.924 4.2292 91.5 -0.940404 61 1.50043C47.543 2.57736 26.0757 5.27176 9.00004 27.5003C1.50001 38.0003 -1.57561 53.2289 2.97024 67.2291C10.0586 89.0597 34.4242 100.229 48.4704 105.229C60.6421 109.562 81.5 114.113 94 115C110.5 116.17 132.5 116.643 144 115C175.5 110.5 187.516 103.361 197.47 97.7291C205.424 93.2289 213.196 85.229 215.97 78.2291C220.924 65.729 214.17 54.6165 211.97 51.2291C207.424 44.2289 199.734 36.279 178.924 28.729C170.406 25.6383 157.577 21.2903 144 19C125.821 15.9334 107.303 13.8618 95 13.5C78 13 60 16.1786 53.5 18.5C47 20.8214 38.366 25.1678 32.5 32.5003C28.5 37.5003 27.0724 44.116 26.9242 51.2285C26.4242 75.2285 61.3689 91.4903 88.4999 93.5C102 94.5 145.267 95.4997 167.813 82" stroke="white" stroke-width="1.5" stroke-linecap="round" stroke-linejoin="round"/>
<path d="M216.5 76.5C268.322 79.5556 349.169 99.7964 411 130C466.5 157.111 502.024 190.443 515.5 211.5C523.5 224 524.505 234 525 239.5C525.918 249.698 523.002 258.095 521 262.5C513.5 279 488.904 282.589 473.5 266C467 259 461.837 247.5 463.5 227.5C464.212 218.93 470 197 483 185C499.019 170.213 528.006 173.343 530 173.5C549 175 582.624 185.264 604.5 199C626 212.5 631.15 221.715 634 226C636.85 230.285 641.788 240.358 642.5 247.5M642.5 247.5L626 241M642.5 247.5L650 233" stroke="white" stroke-width="1.5"/>
</svg>
