<svg width="41" height="41" viewBox="0 0 41 41" fill="none" xmlns="http://www.w3.org/2000/svg">
<path d="M12.3491 23.9485C12.1766 23.8876 12.0001 23.8236 11.8242 23.757V20.9475C12.2664 21.0534 12.5299 21.277 12.5534 21.2974C12.7948 21.516 13.1677 21.4996 13.3889 21.2597C13.6114 21.0185 13.5962 20.6427 13.355 20.4202C13.3212 20.389 12.7536 19.8776 11.8242 19.7382V19.1644C11.8242 18.8363 11.5582 18.5703 11.2301 18.5703C10.902 18.5703 10.636 18.8363 10.636 19.1644V19.7838C10.5478 19.8032 10.4584 19.8255 10.367 19.8532C9.51708 20.1092 8.88206 20.8365 8.70965 21.7513C8.55254 22.5854 8.81968 23.3897 9.40705 23.8504C9.71824 24.0945 10.1056 24.3181 10.6361 24.5542V28.1165C10.1772 28.0827 9.85926 27.9707 9.33835 27.6299C9.06376 27.4502 8.69548 27.5272 8.51595 27.8018C8.33633 28.0764 8.41329 28.4446 8.68787 28.6242C9.44733 29.121 9.96624 29.2692 10.6361 29.3069V29.9493C10.6361 30.2774 10.9021 30.5434 11.2302 30.5434C11.5583 30.5434 11.8243 30.2774 11.8243 29.9493V29.2596C13.1572 28.9981 13.9358 27.899 14.1084 26.8723C14.3301 25.5524 13.6397 24.4047 12.3491 23.9485ZM10.1402 22.9155C9.9033 22.7297 9.80248 22.3679 9.87719 21.9714C9.94414 21.6161 10.1787 21.1892 10.6359 21.0165V23.2324C10.4494 23.1312 10.2806 23.0256 10.1402 22.9155ZM12.9364 26.6754C12.845 27.2193 12.4662 27.7958 11.8241 28.0255V25.0227C11.867 25.0381 11.9089 25.0533 11.9531 25.0689C13.0509 25.4569 12.9833 26.3966 12.9364 26.6754Z" fill="#B796F5"/>
<path d="M40.9672 23.185C40.8651 22.7207 40.5378 22.3457 40.0916 22.1817L38.3911 21.5567C38.0833 21.4436 37.7418 21.6014 37.6286 21.9094C37.5154 22.2174 37.6732 22.5588 37.9813 22.672L39.6818 23.297C39.7702 23.3295 39.7981 23.4008 39.8068 23.4403C39.8155 23.4799 39.8201 23.5562 39.7533 23.6229L24.5741 38.8022C24.5073 38.8691 24.4309 38.8643 24.3915 38.8556C24.3519 38.8469 24.2807 38.8191 24.2482 38.7304L22.115 32.9265C21.9744 32.544 21.6744 32.2441 21.2921 32.1036L15.4881 29.9705C15.3996 29.9379 15.3718 29.8667 15.3631 29.8271C15.3543 29.7876 15.3497 29.7112 15.4164 29.6445L30.5958 14.4652C30.6626 14.3985 30.7387 14.4032 30.7783 14.4118C30.8179 14.4206 30.8891 14.4483 30.9216 14.5369L33.0547 20.3408C33.1953 20.7233 33.4953 21.0232 33.8778 21.1638L35.3539 21.7063C35.6619 21.8196 36.0034 21.6616 36.1165 21.3536C36.2297 21.0457 36.0718 20.7042 35.7638 20.5911L34.2875 20.0484C34.233 20.0284 34.1902 19.9856 34.1701 19.931L32.037 14.1271C31.873 13.6809 31.498 13.3536 31.0338 13.2514C30.5697 13.1492 30.0918 13.289 29.7556 13.6251L29.181 14.1997V8.30547C29.181 7.54112 28.5591 6.91924 27.7947 6.91924H21.7437C22.2973 5.84299 22.1243 4.48662 21.2237 3.58614C20.4528 2.81515 19.3347 2.56186 18.333 2.88218C17.9461 1.75996 16.8801 0.951172 15.6282 0.951172C14.3763 0.951172 13.3104 1.7598 12.9235 2.88186C11.9219 2.56098 10.8049 2.81379 10.0327 3.58606C9.49238 4.12635 9.19481 4.84473 9.19481 5.60892C9.19481 6.07241 9.305 6.51884 9.51176 6.91916H9.01335C8.68527 6.91916 8.41925 7.18517 8.41925 7.51326C8.41925 7.84134 8.68527 8.10735 9.01335 8.10735H13.2471V13.7304C12.5898 13.6107 11.9207 13.5488 11.2479 13.5488C10.0096 13.5488 8.84431 13.7418 7.72914 14.1132L3.26382 14.1134V8.30539C3.26382 8.19616 3.35263 8.10735 3.46186 8.10735H6.1705C6.49858 8.10735 6.7646 7.84134 6.7646 7.51326C6.7646 7.18517 6.49858 6.91916 6.1705 6.91916H3.4617C2.69735 6.91916 2.07546 7.54104 2.07546 8.30539V18.2818C2.07546 18.2854 2.07595 18.289 2.07603 18.2927C0.76915 20.1301 0 22.3753 0 24.7967C0 27.2126 0.757699 29.5168 2.19118 31.4601C2.30769 31.6181 2.48747 31.7016 2.66972 31.7016C2.79224 31.7016 2.9158 31.6639 3.02191 31.5855C3.28601 31.3908 3.34214 31.0188 3.14731 30.7547C1.86558 29.0172 1.18812 26.9569 1.18812 24.7966C1.18812 19.2497 5.70084 14.7371 11.2477 14.7371C15.897 14.7371 19.8938 17.8694 21.0108 22.3697L20.005 23.3755C19.7042 21.5076 18.8139 19.7872 17.4332 18.4427C15.7659 16.8194 13.5692 15.9253 11.2477 15.9253C6.35604 15.9253 2.37632 19.9049 2.37632 24.7966C2.37632 29.6883 6.35596 33.668 11.2477 33.668C13.2666 33.668 15.2221 32.977 16.7933 31.7161L18.0667 32.184C16.2155 33.8912 13.7763 34.8562 11.2477 34.8562C8.95265 34.8562 6.70622 34.0595 4.92224 32.6129C4.66743 32.4063 4.29331 32.4453 4.08663 32.7002C3.87995 32.9551 3.91902 33.3292 4.17391 33.5359C6.16882 35.1536 8.68103 36.0445 11.2477 36.0445C14.2762 36.0445 17.1895 34.8073 19.3029 32.6384L20.8821 33.2188C20.9367 33.2389 20.9796 33.2818 20.9996 33.3364L23.1327 39.1403C23.2967 39.5865 23.6717 39.9138 24.1359 40.0159C24.236 40.038 24.3367 40.0488 24.4365 40.0488C24.7996 40.0488 25.1504 39.906 25.4142 39.6423L40.5935 24.4631C40.9296 24.127 41.0693 23.6492 40.9672 23.185ZM3.26366 16.8824V15.3017H5.22446C4.51264 15.7549 3.85512 16.2857 3.26366 16.8824ZM27.9927 8.30547V14.1135H18.0093V8.10744H27.7946C27.9039 8.10744 27.9927 8.19632 27.9927 8.30547ZM20.3836 4.42632C21.0356 5.07848 21.0356 6.13959 20.3836 6.79159C20.3576 6.8177 20.3071 6.86094 20.2194 6.91924H17.3248C18.1872 5.29709 18.4108 4.50336 18.4685 4.10457C19.105 3.79339 19.8739 3.91663 20.3836 4.42632ZM15.6281 2.13937C16.5504 2.13937 17.3007 2.8897 17.3007 3.81188C17.3007 3.98357 17.203 4.71164 15.9715 6.91916H15.2848C14.0535 4.7122 13.9556 3.98389 13.9556 3.81188C13.9556 2.8897 14.7059 2.13937 15.6281 2.13937ZM10.8728 6.79167C10.5569 6.47576 10.3829 6.05575 10.3829 5.609C10.3829 5.16224 10.5569 4.74223 10.8728 4.42632C11.3834 3.91575 12.1512 3.79323 12.7878 4.10489C12.8457 4.50384 13.0691 5.29717 13.9314 6.91924H11.037C10.9493 6.86102 10.899 6.81778 10.8728 6.79167ZM14.4351 8.10744H16.8211V14.1135H14.764C14.7614 14.1135 14.7589 14.1138 14.7562 14.1139C14.6497 14.0788 14.5426 14.0458 14.4351 14.0139V8.10744ZM18.2776 16.022C17.9544 15.7627 17.6175 15.5225 17.2694 15.3017H27.9928V15.3879L25.6929 17.6877H19.9557C19.4581 17.0781 18.8961 16.5185 18.2776 16.022ZM20.8042 18.8759H24.5046L21.9727 21.4079C21.6903 20.5187 21.2963 19.6676 20.8042 18.8759ZM11.2478 32.4799C7.01124 32.4799 3.56468 29.0332 3.56468 24.7968C3.56468 20.5603 7.01132 17.1137 11.2478 17.1137C15.3262 17.1137 18.7444 20.3975 18.9229 24.4578L14.5763 28.8044C14.2402 29.1405 14.1005 29.6183 14.2027 30.0826C14.3048 30.5468 14.6322 30.9218 15.0783 31.0858L15.4528 31.2234C14.2087 32.039 12.7484 32.4799 11.2478 32.4799Z" fill="#B796F5"/>
<path d="M29.1316 31.6391C29.2063 31.6391 29.2826 31.6249 29.3561 31.5948C29.6598 31.4707 29.8054 31.1238 29.6812 30.82L26.2604 22.4516C26.1364 22.1479 25.7896 22.0021 25.4857 22.1264C25.1819 22.2506 25.0364 22.5975 25.1606 22.9012L28.5813 31.2697C28.6754 31.4998 28.8973 31.6391 29.1316 31.6391Z" fill="#B796F5"/>
<path d="M22.068 24.9295C21.6518 25.3457 21.4482 25.9173 21.4948 26.539C21.5389 27.1271 21.8054 27.6932 22.2452 28.1329C22.6849 28.5727 23.251 28.8392 23.8392 28.8833C23.8975 28.8877 23.9554 28.8898 24.0127 28.8898C24.5667 28.8898 25.0714 28.6872 25.4487 28.3101C25.8649 27.8938 26.0685 27.3222 26.0219 26.7006C25.9777 26.1124 25.7112 25.5463 25.2715 25.1065C24.8318 24.6667 24.2657 24.4002 23.6775 24.3562C23.0554 24.3094 22.4842 24.5132 22.068 24.9295ZM24.4314 25.9468C24.6701 26.1856 24.8142 26.4848 24.837 26.7895C24.8574 27.0605 24.7762 27.3022 24.6084 27.47C24.4407 27.6376 24.1988 27.7185 23.928 27.6985C23.6234 27.6757 23.3241 27.5316 23.0853 27.2928C22.8466 27.054 22.7025 26.7548 22.6797 26.4502C22.6593 26.1792 22.7405 25.9375 22.9083 25.7697C23.0591 25.619 23.2696 25.5382 23.5077 25.5382C23.5343 25.5382 23.5614 25.5392 23.5887 25.5412C23.8933 25.5639 24.1926 25.708 24.4314 25.9468C24.4313 25.9468 24.4313 25.9468 24.4314 25.9468Z" fill="#B796F5"/>
<path d="M31.3833 29.5787C31.9373 29.5787 32.4421 29.3761 32.8192 28.999C33.6536 28.1646 33.5741 26.7275 32.6422 25.7954C32.6422 25.7954 32.6422 25.7954 32.6421 25.7954C31.7101 24.8634 30.2731 24.784 29.4386 25.6183C28.6043 26.4526 28.6837 27.8897 29.6158 28.8217C30.0556 29.2615 30.6216 29.528 31.2098 29.5721C31.2682 29.5766 31.326 29.5787 31.3833 29.5787ZM30.2789 26.4586C30.4363 26.3012 30.6497 26.2249 30.8792 26.2249C31.1908 26.2249 31.532 26.3657 31.8019 26.6357C32.2707 27.1045 32.3501 27.7878 31.979 28.1589C31.8113 28.3265 31.5695 28.4077 31.2986 28.3874C30.994 28.3646 30.6947 28.2205 30.456 27.9817C29.9873 27.5129 29.9078 26.8296 30.2789 26.4586Z" fill="#B796F5"/>
</svg>
