<svg width="40" height="40" viewBox="0 0 40 40" fill="none" xmlns="http://www.w3.org/2000/svg">
<path d="M5.61391 32.6652L9.375 34.5454V39.2188C9.375 39.6502 9.72484 40 10.1562 40H18.4375C18.8689 40 19.2188 39.6502 19.2188 39.2188V28.5508C19.2188 26.1573 17.4232 24.1723 15.0476 23.9341C15.0384 23.9316 11.7429 23.4171 10.214 21.8881L8.45945 20.1344C7.86914 19.5439 7.08445 19.2188 6.25 19.2188V12.9688C6.25 11.2456 4.84812 9.84375 3.125 9.84375C1.40188 9.84375 0 11.2456 0 12.9688V23.5812C0 27.4259 2.17172 30.9437 5.61391 32.6652ZM1.5625 12.9688C1.5625 12.1072 2.26344 11.4062 3.125 11.4062C3.98656 11.4062 4.6875 12.1072 4.6875 12.9688V19.6376C3.73469 20.1885 3.125 21.2157 3.125 22.3438C3.125 23.1781 3.45016 23.9627 4.04055 24.5531L8.04133 28.5547C8.34625 28.8598 8.84102 28.8599 9.14617 28.5548C9.45125 28.2497 9.45133 27.7551 9.14625 27.4499L5.14547 23.4483C4.85016 23.153 4.6875 22.7608 4.6875 22.3438C4.6875 21.6825 5.10602 21.0903 5.72906 20.8702C5.7293 20.8702 5.72953 20.87 5.72977 20.8699H5.72984C6.26859 20.679 6.90773 20.7923 7.35477 21.2393L9.1093 22.9931C10.9207 24.8045 14.8783 25.4861 14.8862 25.4883C16.4654 25.6466 17.6562 26.9632 17.6562 28.5508V38.4375H10.9375V34.0625C10.9375 33.7666 10.7702 33.496 10.5056 33.3638L6.31273 31.2677C3.38273 29.8023 1.5625 26.857 1.5625 23.5812V12.9688Z" fill="#B796F5"/>
<path d="M10.625 19.2188H29.375C29.8064 19.2188 30.1562 18.869 30.1562 18.4375V0.78125C30.1562 0.349766 29.8064 0 29.375 0H10.625C10.1936 0 9.84375 0.349766 9.84375 0.78125V18.4375C9.84375 18.869 10.1936 19.2188 10.625 19.2188ZM17.6562 1.5625H22.3438V5.77289L20.3145 4.76859C20.0941 4.65945 19.8351 4.66062 19.6157 4.77148L17.6562 5.76133V1.5625ZM11.4062 1.5625H16.0938V7.03125C16.0938 7.30258 16.2345 7.55453 16.4657 7.69672C16.6967 7.83883 16.9852 7.85094 17.2273 7.72859L19.9716 6.34227L22.7785 7.73148C23.0165 7.8493 23.3037 7.84 23.5371 7.695C23.7666 7.55242 23.9062 7.30141 23.9062 7.03125V1.5625H28.5938V17.6562H11.4062V1.5625Z" fill="#B796F5"/>
<path d="M26.25 13.75H21.5625C21.1311 13.75 20.7812 14.0998 20.7812 14.5312C20.7812 14.9627 21.1311 15.3125 21.5625 15.3125H26.25C26.6814 15.3125 27.0312 14.9627 27.0312 14.5312C27.0312 14.0998 26.6814 13.75 26.25 13.75Z" fill="#B796F5"/>
<path d="M35.8594 31.5625C36.2908 31.5625 36.6406 31.2127 36.6406 30.7812C36.6406 30.3498 36.2908 30 35.8594 30C35.4279 30 35.0781 30.3498 35.0781 30.7812C35.0781 31.2127 35.4279 31.5625 35.8594 31.5625Z" fill="#B796F5"/>
<path d="M36.875 9.84375C35.1519 9.84375 33.75 11.2456 33.75 12.9688V19.2188C32.9155 19.2188 32.1309 19.5439 31.5407 20.1341L29.7859 21.8882C28.8249 22.8492 26.3906 23.7895 25.0102 23.9279L24.958 23.9335C22.5768 24.1723 20.7812 26.1573 20.7812 28.5508V39.2188C20.7812 39.6502 21.1311 40 21.5625 40H29.8438C30.2752 40 30.625 39.6502 30.625 39.2188V34.5454L33.182 33.2671C33.5679 33.0741 33.7244 32.6049 33.5315 32.2189C33.3386 31.8331 32.8695 31.6766 32.4834 31.8695L29.4944 33.3636C29.2298 33.496 29.0625 33.7666 29.0625 34.0625V38.4375H22.3438V28.5508C22.3438 26.9632 23.5346 25.6466 25.1195 25.4877L25.1717 25.482C26.8663 25.3121 29.6721 24.2116 30.8905 22.9932L32.6454 21.2391C33.0926 20.792 33.7323 20.6793 34.2702 20.8699H34.2702C34.2705 20.87 34.2707 20.8702 34.2709 20.8702C35.3468 21.2503 35.6707 22.632 34.8546 23.4484L30.8538 27.45C30.5487 27.7552 30.5488 28.2498 30.8539 28.5548C31.1589 28.8598 31.6537 28.8599 31.9587 28.5548L35.9595 24.5532C37.4038 23.1087 37.103 20.6728 35.3126 19.6376V12.9688C35.3126 12.1072 36.0135 11.4062 36.8751 11.4062C37.7366 11.4062 38.4376 12.1072 38.4376 12.9688V23.5812C38.4376 25.0106 38.0769 26.4297 37.3944 27.685C37.1882 28.0641 37.3284 28.5384 37.7076 28.7445C38.0866 28.9505 38.561 28.8104 38.7671 28.4313C39.5737 26.9477 40 25.2705 40 23.5812V12.9688C40 11.2456 38.5981 9.84375 36.875 9.84375Z" fill="#B796F5"/>
</svg>
