<svg width="40" height="40" viewBox="0 0 40 40" fill="none" xmlns="http://www.w3.org/2000/svg">
<g clip-path="url(#clip0)">
<path d="M38.8278 40H1.17187C0.524683 40 0 39.4753 0 38.8281C0 38.1809 0.524683 37.6562 1.17187 37.6562H38.8278C39.475 37.6562 39.9997 38.1809 39.9997 38.8281C39.9997 39.4753 39.475 40 38.8278 40Z" fill="#B796F5"/>
<path d="M8.2812 39.9999H3.59374C2.94656 39.9999 2.42188 39.4752 2.42188 38.8281V30.2344C2.42188 29.1574 3.29804 28.2812 4.37498 28.2812H7.49996C8.5769 28.2812 9.45307 29.1574 9.45307 30.2344V38.8281C9.45307 39.4752 8.92839 39.9999 8.2812 39.9999ZM4.76561 37.6562H7.10934V30.625H4.76561V37.6562ZM7.49996 30.625H7.50074H7.49996Z" fill="#B796F5"/>
<path d="M17.6562 39.9999H12.9687C12.3216 39.9999 11.7969 39.4752 11.7969 38.828V27.4219C11.7969 26.3449 12.673 25.4688 13.75 25.4688H16.875C17.9519 25.4688 18.8281 26.3449 18.8281 27.4219V38.828C18.8281 39.4752 18.3034 39.9999 17.6562 39.9999ZM14.1406 37.6561H16.4843V27.8125H14.1406V37.6561ZM16.875 27.8125H16.8757H16.875Z" fill="#B796F5"/>
<path d="M27.0307 39.9998H22.3433C21.6961 39.9998 21.1714 39.4752 21.1714 38.828V23.125C21.1714 22.048 22.0476 21.1719 23.1245 21.1719H26.2495C27.3264 21.1719 28.2026 22.048 28.2026 23.125V38.828C28.2026 39.4752 27.6779 39.9998 27.0307 39.9998ZM23.5151 37.6561H25.8589V23.5156H23.5151V37.6561ZM26.2495 23.5156H26.2503H26.2495Z" fill="#B796F5"/>
<path d="M36.4057 39.9998H31.7183C31.0711 39.9998 30.5464 39.4751 30.5464 38.8279V15.3125C30.5464 14.2355 31.4226 13.3594 32.4995 13.3594H35.6245C36.7014 13.3594 37.5776 14.2355 37.5776 15.3125V38.8279C37.5776 39.4751 37.0529 39.9998 36.4057 39.9998ZM32.8901 37.6561H35.2339V15.7031H32.8901V37.6561ZM35.6245 15.7031H35.6253H35.6245Z" fill="#B796F5"/>
<path d="M1.17187 25.1808C0.524683 25.1808 0 24.6561 0 24.009C0 23.3618 0.524683 22.8371 1.17187 22.8371C8.06291 22.8371 15.5658 20.3277 22.2983 15.7713C28.4921 11.5795 33.4276 6.08426 35.8391 0.694534C36.1035 0.103757 36.7967 -0.160928 37.3874 0.103523C37.9781 0.367817 38.2427 1.06102 37.9784 1.65179C35.3936 7.42886 30.1572 13.2827 23.612 17.7123C16.4957 22.5284 8.52626 25.1808 1.17187 25.1808Z" fill="#B796F5"/>
<path d="M38.8272 9.50595C38.3097 9.50595 37.8363 9.16064 37.6961 8.63705L36.0804 2.60733L30.0506 4.22302C29.4253 4.39068 28.7829 4.01959 28.6154 3.39444C28.4479 2.76928 28.8189 2.12671 29.444 1.95921L36.6057 0.0402427C37.2311 -0.127334 37.8734 0.243757 38.0409 0.86883L39.9599 8.03049C40.1274 8.65564 39.7564 9.29822 39.1313 9.46572C39.0296 9.4929 38.9276 9.50595 38.8272 9.50595Z" fill="#B796F5"/>
</g>
<defs>
<clipPath id="clip0">
<rect width="40" height="40" fill="white"/>
</clipPath>
</defs>
</svg>
