<svg width="111" height="383" viewBox="0 0 111 383" fill="none" xmlns="http://www.w3.org/2000/svg">
<path d="M59.7566 335.073L18.599 325.179L65.1804 312.273L103.998 322.92V352.927L5.83691 382.61L5.83691 349.7L59.7566 335.073ZM103.998 264.951L103.998 296.463L5.83691 323.673L5.83691 290.332L103.998 264.951ZM5.83691 264.628L5.83691 234.514L98.8935 261.402L46.5691 274.845L5.83691 264.628Z" fill="white"/>
<path d="M50.0792 90.7718C50.2919 90.8794 50.3982 90.8794 50.6109 90.9869C50.7173 91.0945 50.8236 91.3096 50.93 91.4171C51.0363 91.6322 51.0363 91.8473 51.0363 92.17C51.0363 92.4926 51.0363 92.8153 51.0363 93.2455C51.0363 93.6757 51.0363 94.1059 51.0363 94.4285C51.0363 94.7512 50.93 94.9663 50.93 95.1814C50.8236 95.3965 50.8236 95.504 50.6109 95.6116C50.5046 95.7192 50.2919 95.8267 50.0792 95.8267L28.9155 101.742L50.0792 107.227C50.2919 107.227 50.3982 107.335 50.6109 107.442C50.7173 107.55 50.8236 107.657 50.93 107.872C51.0363 108.087 51.0363 108.303 51.0363 108.625C51.0363 108.948 51.0363 109.27 51.0363 109.808C51.0363 110.238 51.0363 110.669 51.0363 110.991C51.0363 111.314 50.93 111.529 50.93 111.744C50.8236 111.959 50.8236 112.067 50.6109 112.174C50.5046 112.282 50.2919 112.389 50.0792 112.389L24.2361 119.81C23.917 119.918 23.598 119.918 23.4916 119.918C23.2789 119.918 23.1726 119.918 23.0662 119.703C22.9599 119.595 22.8535 119.38 22.8535 119.058V117.982V116.907C22.8535 116.691 22.9599 116.476 22.9599 116.261C23.0662 116.154 23.0662 116.046 23.1726 115.939C23.2789 115.939 23.3853 115.831 23.598 115.831L46.995 109.486L23.598 103.463C23.4916 103.463 23.2789 103.355 23.1726 103.248C23.0662 103.14 22.9599 103.033 22.9599 102.925C22.8535 102.817 22.8535 102.602 22.8535 102.28V101.204V100.236C22.8535 100.021 22.9599 99.806 22.9599 99.6985C23.0662 99.5909 23.0662 99.4834 23.1726 99.3759C23.2789 99.2683 23.3853 99.2683 23.598 99.1607L46.995 92.7077L23.598 86.4698C23.4916 86.4698 23.2789 86.3623 23.1726 86.3623C23.0662 86.3623 22.9599 86.2547 22.9599 86.0396C22.8535 85.9321 22.8535 85.717 22.8535 85.5019V84.5339C22.8535 84.1037 22.8535 83.7811 22.9599 83.4584C22.9599 83.2433 23.0662 83.0282 23.1726 82.9206C23.2789 82.8131 23.3853 82.7056 23.598 82.7056C23.8107 82.7056 24.0234 82.7056 24.3424 82.8131L50.0792 90.7718Z" fill="white"/>
<path d="M49.3344 62.3787H49.9725C50.1852 62.3787 50.2915 62.4862 50.5042 62.4862C50.6106 62.5938 50.7169 62.5938 50.8233 62.7014C50.9296 62.8089 50.9296 62.9164 50.9296 63.024V76.6829C50.9296 77.0056 50.8233 77.3282 50.6106 77.6509C50.3979 77.9735 49.9725 78.0811 49.4407 78.0811H24.4484C23.9166 78.0811 23.4912 77.9735 23.2785 77.6509C23.0658 77.3282 22.9595 77.0056 22.9595 76.6829V63.2391C22.9595 63.1316 22.9595 63.024 23.0658 62.9165C23.1722 62.8089 23.1722 62.7014 23.3849 62.7014C23.4912 62.5938 23.7039 62.5938 23.9166 62.5938C24.1293 62.5938 24.342 62.4862 24.6611 62.4862C24.8738 62.4862 25.1928 62.4863 25.2992 62.5938C25.5119 62.5938 25.6182 62.7014 25.7246 62.7014C25.8309 62.8089 25.9373 62.8089 26.0436 62.9165C26.15 63.024 26.15 63.1316 26.15 63.2391V74.3168H34.7644V64.8524C34.7644 64.7448 34.7644 64.6373 34.8707 64.5297C34.9771 64.4222 34.9771 64.3146 35.1898 64.3146C35.2961 64.2071 35.5088 64.2071 35.6152 64.2071H36.3596H36.9977C37.2104 64.2071 37.3168 64.3146 37.4231 64.3146C37.5295 64.4222 37.6358 64.4222 37.6358 64.5297C37.6358 64.6373 37.7422 64.7448 37.7422 64.8524V74.3168H47.7391V63.1316C47.7391 63.024 47.7391 62.9165 47.8455 62.8089C47.9518 62.7014 47.9518 62.5938 48.1645 62.5938C48.2709 62.4863 48.4836 62.4862 48.5899 62.4862C48.8026 62.3787 49.1217 62.3787 49.3344 62.3787Z" fill="white"/>
<path d="M42.847 37.5344C43.6978 37.5344 44.5486 37.642 45.2931 37.8571C46.0375 38.0722 46.6756 38.3948 47.3137 38.825C47.9518 39.2552 48.3772 39.6854 48.909 40.3307C49.3344 40.8685 49.7598 41.5138 50.0788 42.2666C50.3979 43.0194 50.6106 43.7723 50.7169 44.6327C50.8233 45.4931 50.9296 46.3535 50.9296 47.429V54.8499C50.9296 55.1726 50.8233 55.4952 50.6106 55.8179C50.3979 56.1405 49.9725 56.248 49.4407 56.248H24.4484C23.9166 56.248 23.4912 56.1405 23.2785 55.8179C23.0658 55.4952 22.9595 55.1726 22.9595 54.8499V48.3969C22.9595 46.6761 23.0658 45.278 23.3849 44.2025C23.7039 43.127 24.1293 42.2666 24.7674 41.5137C25.4055 40.7609 26.15 40.2231 27.0008 39.9005C27.8516 39.5778 28.9151 39.3627 29.9786 39.3627C30.6167 39.3627 31.2548 39.4703 31.8929 39.5779C32.531 39.6854 33.0628 40.0081 33.5945 40.3307C34.1263 40.6534 34.5517 41.0835 34.9771 41.5137C35.4025 41.9439 35.7215 42.4817 35.9342 43.127C36.0406 42.3741 36.3596 41.6213 36.6787 40.976C37.1041 40.3307 37.5295 39.6854 38.1676 39.2552C38.8057 38.7175 39.4438 38.3948 40.2946 38.0722C41.039 37.7495 41.8898 37.5344 42.847 37.5344ZM30.404 43.2345C29.7659 43.2345 29.1278 43.3421 28.596 43.5572C28.0643 43.7723 27.5325 44.0949 27.2135 44.4176C26.8944 44.7402 26.5754 45.3855 26.3627 46.0308C26.15 46.6761 26.0436 47.5365 26.0436 48.612V52.4838H35.0834V48.1818C35.0834 47.2139 34.9771 46.461 34.658 45.8157C34.4453 45.1704 34.0199 44.7402 33.5945 44.31C33.1691 43.8798 32.6374 43.6648 32.1056 43.4497C31.5739 43.3421 30.9358 43.2345 30.404 43.2345ZM43.0597 41.5137C42.2089 41.5137 41.4644 41.6213 40.8263 41.944C40.1882 42.2666 39.6565 42.5892 39.2311 43.127C38.8057 43.6647 38.4866 44.31 38.2739 45.0629C38.0612 45.8157 37.9549 46.7837 37.9549 47.9667V52.4838H47.8455V46.9988C47.8455 46.1384 47.7391 45.3855 47.5264 44.7402C47.3137 44.0949 46.9947 43.5572 46.6756 43.0195C46.2502 42.4817 45.8248 42.1591 45.1867 41.8364C44.5486 41.7289 43.9105 41.5137 43.0597 41.5137Z" fill="white"/>
<path d="M77.6241 103.033H78.3685C78.5812 103.033 78.6876 103.141 78.9003 103.141C79.0066 103.248 79.113 103.248 79.2193 103.356C79.3257 103.463 79.3257 103.571 79.3257 103.679V114.003H88.7909V104.216C88.7909 104.109 88.7909 104.001 88.8972 103.894C88.8972 103.786 89.0036 103.679 89.1099 103.679C89.2163 103.571 89.429 103.571 89.5353 103.571H90.2798H91.0242C91.2369 103.571 91.3433 103.679 91.4496 103.679C91.556 103.786 91.6623 103.786 91.7687 103.894C91.875 104.001 91.875 104.109 91.875 104.216V114.003H103.574C103.68 114.003 103.786 114.003 103.893 114.111C103.999 114.218 104.105 114.218 104.105 114.434C104.105 114.541 104.212 114.756 104.212 114.971C104.212 115.186 104.318 115.509 104.318 115.939C104.318 116.262 104.318 116.585 104.212 116.8C104.212 117.015 104.105 117.23 104.105 117.337C104.105 117.445 103.999 117.552 103.893 117.66C103.786 117.768 103.68 117.768 103.574 117.768H77.5177C76.986 117.768 76.5606 117.66 76.3479 117.337C76.1352 117.015 76.0288 116.692 76.0288 116.369V103.679C76.0288 103.571 76.0288 103.463 76.1352 103.356C76.2415 103.248 76.2415 103.141 76.4542 103.141C76.5606 103.033 76.7733 103.033 76.986 103.033C77.1987 103.033 77.4114 103.033 77.6241 103.033Z" fill="white"/>
<path d="M89.7478 73.9943C91.9812 73.9943 94.0018 74.3169 95.9161 74.8547C97.7241 75.3924 99.3194 76.1453 100.596 77.2208C101.872 78.2963 102.829 79.5869 103.573 81.2002C104.211 82.8134 104.637 84.7493 104.637 86.9003C104.637 89.0513 104.318 90.8797 103.68 92.3854C103.042 93.8911 102.191 95.1817 100.915 96.2572C99.7448 97.2251 98.2559 97.9779 96.4479 98.5157C94.6399 99.0534 92.6193 99.2686 90.2796 99.2686C88.0462 99.2686 86.0256 98.9459 84.3239 98.4082C82.516 97.8704 81.0271 97.01 79.7509 95.9345C78.4747 94.859 77.5175 93.4609 76.8794 91.8476C76.2413 90.2344 75.8159 88.2984 75.8159 86.1474C75.8159 84.104 76.135 82.2757 76.7731 80.6624C77.4112 79.1567 78.262 77.8661 79.5382 76.7906C80.708 75.7151 82.1969 74.9622 83.8985 74.532C85.3875 74.3169 87.4081 73.9943 89.7478 73.9943ZM89.9605 77.9737C88.3653 77.9737 86.8764 78.0812 85.4938 78.4039C84.1112 78.7265 82.9414 79.1567 81.9842 79.802C81.0271 80.4473 80.1763 81.3077 79.6445 82.4907C79.1128 83.5662 78.7937 84.9644 78.7937 86.5777C78.7937 88.1909 79.1128 89.5891 79.7509 90.6646C80.389 91.7401 81.1334 92.708 82.1969 93.3533C83.1541 93.9986 84.4303 94.5363 85.7065 94.859C87.0891 95.1816 88.4716 95.2892 89.9605 95.2892C91.5558 95.2892 93.151 95.1816 94.5336 94.859C95.9161 94.5363 97.086 94.1062 98.1495 93.4609C99.213 92.8156 99.9575 91.9552 100.489 90.8797C101.021 89.8042 101.34 88.406 101.34 86.7927C101.34 85.1795 101.021 83.7813 100.383 82.5983C99.7448 81.5228 99.0003 80.5548 97.9368 79.9095C96.8733 79.2642 95.7034 78.7265 94.3209 78.4039C92.9383 78.1888 91.4494 77.9737 89.9605 77.9737Z" fill="white"/>
<path d="M100.064 49.2569H100.702C100.915 49.2569 101.021 49.2569 101.127 49.3645C101.234 49.3645 101.34 49.472 101.446 49.472C101.553 49.5796 101.659 49.5795 101.765 49.7946C101.872 49.9022 102.085 50.2248 102.404 50.7626C102.723 51.1928 102.935 51.8381 103.254 52.4834C103.573 53.1287 103.786 53.9891 103.999 54.8495C104.212 55.7099 104.318 56.6778 104.318 57.7533C104.318 59.5817 103.999 61.195 103.361 62.7007C102.723 64.2064 101.872 65.3894 100.702 66.4649C99.5321 67.5404 98.0432 68.2933 96.3416 68.831C94.64 69.3688 92.6193 69.6914 90.386 69.6914C88.0462 69.6914 86.0256 69.3688 84.2176 68.831C82.4097 68.1857 80.8144 67.3253 79.6445 66.2498C78.3683 65.1743 77.4112 63.8837 76.7731 62.378C76.135 60.8723 75.8159 59.1515 75.8159 57.3232C75.8159 56.4628 75.9223 55.7099 76.0286 54.957C76.135 54.2042 76.3477 53.4513 76.5604 52.806C76.7731 52.1607 77.0921 51.5155 77.4112 51.0853C77.7302 50.5475 77.9429 50.2249 78.1556 50.0098C78.3683 49.7947 78.4747 49.6871 78.581 49.5795C78.6874 49.472 78.7937 49.472 78.9001 49.472C79.0064 49.472 79.2191 49.3645 79.4318 49.3645H80.0699H80.8144C81.0271 49.3645 81.1335 49.472 81.3462 49.472C81.4525 49.5796 81.5588 49.5795 81.6652 49.6871C81.7715 49.7946 81.7715 49.9022 81.7715 50.0098C81.7715 50.2249 81.6652 50.5475 81.3462 50.8701C81.0271 51.1928 80.708 51.7305 80.389 52.2683C80.0699 52.806 79.7509 53.5589 79.4318 54.4193C79.1128 55.2797 79.0064 56.2477 79.0064 57.4307C79.0064 58.7213 79.2191 59.7968 79.7509 60.8723C80.2826 61.9478 81.0271 62.8082 81.9843 63.561C82.9414 64.3139 84.1113 64.8516 85.4938 65.2818C86.8764 65.712 88.4716 65.9272 90.2796 65.9272C92.0876 65.9272 93.5765 65.7121 94.959 65.3894C96.3416 64.9592 97.5114 64.4214 98.3622 63.6686C99.3194 62.9157 99.9575 62.0553 100.489 60.9798C100.915 59.9043 101.234 58.7213 101.234 57.4307C101.234 56.3552 101.127 55.2797 100.808 54.5268C100.489 53.6664 100.277 52.9136 99.8511 52.3758C99.5321 51.7305 99.213 51.3003 98.894 50.8701C98.5749 50.4399 98.4686 50.2249 98.4686 50.0098C98.4686 49.9022 98.4686 49.7946 98.5749 49.7946C98.5749 49.6871 98.6813 49.6871 98.7876 49.5795C98.894 49.5795 99.1067 49.472 99.3194 49.472C99.4257 49.2569 99.7448 49.2569 100.064 49.2569Z" fill="white"/>
<path d="M93.6828 23.0156C95.3844 23.0156 96.8733 23.2306 98.2559 23.7684C99.6384 24.3061 100.702 24.9514 101.659 25.9194C102.616 26.8873 103.254 27.9628 103.786 29.361C104.212 30.6516 104.531 32.2649 104.531 33.8781C104.531 35.4913 104.318 36.8895 103.892 38.1801C103.467 39.4707 102.829 40.5462 101.872 41.5141C101.021 42.4821 99.9575 43.1274 98.5749 43.6651C97.2987 44.2029 95.7035 44.418 94.0018 44.418H76.5604C76.454 44.418 76.3477 44.418 76.2413 44.3104C76.135 44.2029 76.135 44.2029 76.0286 43.9878C76.0286 43.8802 75.9223 43.6651 75.9223 43.45C75.9223 43.2349 75.8159 42.9123 75.8159 42.4821C75.8159 42.1594 75.8159 41.8368 75.9223 41.6217C75.9223 41.4066 76.0286 41.1915 76.0286 41.0839C76.0286 40.9764 76.135 40.8688 76.2413 40.7613C76.3477 40.6537 76.454 40.6537 76.5604 40.6537H93.4701C94.7463 40.6537 95.9162 40.5462 96.8733 40.2235C97.8305 39.9009 98.6813 39.4707 99.3194 38.8254C99.9575 38.1801 100.489 37.5348 100.808 36.6744C101.127 35.814 101.34 34.846 101.34 33.7705C101.34 32.695 101.234 31.7271 100.915 30.8667C100.596 30.0063 100.17 29.2534 99.5321 28.7157C98.894 28.1779 98.1495 27.6402 97.1924 27.3176C96.2352 26.9949 95.1717 26.8874 93.8955 26.8874H76.5604C76.454 26.8874 76.3477 26.8874 76.2413 26.7798C76.135 26.6723 76.135 26.6722 76.0286 26.4571C76.0286 26.3496 75.9223 26.1345 75.9223 25.9194C75.9223 25.7043 75.8159 25.3817 75.8159 25.059C75.8159 24.7364 75.8159 24.4137 75.9223 24.1986C75.9223 23.9835 76.0286 23.7684 76.0286 23.6609C76.0286 23.5533 76.135 23.4457 76.2413 23.3382C76.3477 23.2306 76.454 23.2306 76.5604 23.2306H93.6828V23.0156Z" fill="white"/>
<path d="M104.424 9.89515C104.424 10.8631 104.318 11.7235 104.211 12.4764C104.105 13.3368 103.892 13.9821 103.68 14.6274C103.467 15.2727 103.254 15.8104 102.935 16.2406C102.722 16.6708 102.51 16.9935 102.297 17.1011C102.084 17.3162 101.872 17.4237 101.659 17.4237C101.34 17.5312 101.021 17.5312 100.595 17.5312C100.276 17.5312 100.064 17.5312 99.851 17.5312C99.6383 17.5312 99.4256 17.4237 99.3193 17.4237C99.2129 17.3161 99.1066 17.3162 99.0002 17.2086C98.8939 17.1011 98.8939 16.9935 98.8939 16.8859C98.8939 16.6708 99.0002 16.3482 99.2129 16.0255C99.4256 15.7029 99.7447 15.1651 100.064 14.6274C100.383 14.0896 100.595 13.3368 100.915 12.4764C101.127 11.616 101.34 10.7556 101.34 9.57251C101.34 8.71211 101.234 7.95925 101.021 7.31395C100.808 6.66864 100.489 6.02333 100.064 5.59313C99.6383 5.05538 99.2129 4.73273 98.5748 4.51762C98.0431 4.30252 97.2986 4.08743 96.6605 4.08743C95.916 4.08743 95.1716 4.30253 94.6398 4.62518C94.1081 4.94783 93.5763 5.48557 93.1509 6.02333C92.7255 6.66863 92.3001 7.31396 91.9811 8.06681C91.662 8.81967 91.2366 9.5725 90.9176 10.4329C90.5985 11.1858 90.1731 12.0462 89.7477 12.799C89.3223 13.5519 88.7906 14.1972 88.1525 14.8425C87.5144 15.4878 86.8763 15.918 86.0255 16.3482C85.1747 16.6708 84.2175 16.8859 83.0477 16.8859C81.8778 16.8859 80.8143 16.6708 79.9635 16.2406C79.0063 15.8104 78.2619 15.1651 77.6238 14.4123C76.9857 13.6594 76.5603 12.6915 76.2412 11.7235C75.9222 10.648 75.7095 9.5725 75.7095 8.28189C75.7095 7.63659 75.8158 6.9913 75.9222 6.346C76.0285 5.70069 76.1349 5.16293 76.3476 4.51762C76.5603 3.97987 76.773 3.44213 76.9857 3.01192C77.1984 2.58172 77.4111 2.25908 77.5174 2.15153C77.6238 2.04398 77.7301 1.93641 77.8365 1.82886C77.9428 1.82886 78.0492 1.7213 78.1555 1.7213C78.2619 1.7213 78.4746 1.72133 78.5809 1.61378H79.219H79.9635C80.1762 1.61378 80.2825 1.7213 80.4952 1.7213C80.6016 1.7213 80.7079 1.82887 80.8143 1.93642C80.9206 2.04397 80.9206 2.1515 80.9206 2.25906C80.9206 2.36661 80.8143 2.68927 80.6016 3.01192C80.3889 3.33457 80.1762 3.76479 79.9635 4.30254C79.7508 4.8403 79.4317 5.37802 79.219 6.02333C79.0063 6.66863 78.9 7.42149 78.9 8.28189C78.9 9.03475 79.0063 9.7876 79.219 10.3253C79.4317 10.8631 79.7508 11.4009 80.0698 11.7235C80.3889 12.1537 80.8143 12.3688 81.346 12.5839C81.7714 12.799 82.3032 12.9066 82.8349 12.9066C83.5794 12.9066 84.3239 12.6915 84.8556 12.3688C85.3874 12.0462 85.9191 11.5084 86.3445 10.8631C86.7699 10.2178 87.1953 9.5725 87.5144 8.81965C87.8334 8.06679 88.2588 7.31396 88.5779 6.45355C88.8969 5.59315 89.3223 4.84028 89.7477 4.08743C90.1731 3.33457 90.7049 2.58173 91.343 2.04397C91.9811 1.39867 92.6192 0.968475 93.47 0.538273C94.3208 0.21562 95.2779 0.000518799 96.3414 0.000518799C97.6177 0.000518799 98.7875 0.215601 99.851 0.753353C100.915 1.29111 101.765 1.9364 102.403 2.79681C103.148 3.65721 103.68 4.73274 103.999 5.80824C104.211 7.31395 104.424 8.60455 104.424 9.89515Z" fill="white"/>
<path d="M42.1024 240.214V214.617L5.83691 208.272L5.83691 178.265L103.573 195.688V257.314L78.5806 248.926V221.07L65.4995 218.812V244.408L42.1024 240.214Z" fill="white"/>
<path d="M0.52002 152.271L0.52002 153.992H110.912V152.271H0.52002Z" fill="white"/>
</svg>
