<svg width="40" height="40" viewBox="0 0 40 40" fill="none" xmlns="http://www.w3.org/2000/svg">
<g clip-path="url(#clip0)">
<path d="M39.6446 36.925L25.7967 17.1912C25.6771 17.0209 25.5324 16.8735 25.3698 16.7516V12.5H35.1354C35.561 12.5 35.9531 12.2692 36.1598 11.8973C36.3664 11.5253 36.3552 11.0704 36.1304 10.7091L34.0851 7.42188L36.1304 4.13469C36.3553 3.77336 36.3665 3.31852 36.1598 2.94648C35.9531 2.57445 35.561 2.34375 35.1354 2.34375H25.3698V1.17188C25.3698 0.524687 24.8451 0 24.1979 0C23.5507 0 23.026 0.524687 23.026 1.17188V16.7516C22.8635 16.8735 22.7187 17.0209 22.5992 17.1912L16.0812 26.4795L13.5682 22.9941C13.2021 22.4864 12.6099 22.1833 11.9839 22.1833C11.358 22.1833 10.7657 22.4864 10.3996 22.9941L0.370173 36.9046C-0.0606864 37.5022 -0.119827 38.2809 0.215876 38.9367C0.551579 39.5926 1.21775 40 1.95447 40H38.0458C38.7773 40 39.4413 39.5968 39.7788 38.9478C40.1162 38.2988 40.0648 37.5237 39.6446 36.925ZM11.1014 37.6562L18.6398 26.9139L20.5713 28.7136C21.0213 29.1329 21.7189 29.133 22.169 28.7136L24.1977 26.8234L26.2267 28.7137C26.4517 28.9233 26.7386 29.0281 27.0256 29.0281C27.3125 29.0281 27.5994 28.9233 27.8244 28.7137L29.7562 26.9139L37.2945 37.6562H11.1014ZM8.75134 36.9249C8.59392 37.1492 8.4883 37.3983 8.43541 37.6562H2.71767L11.9839 24.8043L14.656 28.5105L8.75134 36.9249ZM24.1979 18.9932L28.3969 24.9769L27.0255 26.2545L24.9963 24.3641C24.5463 23.9448 23.8487 23.9449 23.3987 24.3642L21.3701 26.2545L19.999 24.9769L24.1979 18.9932ZM33.026 4.6875L31.7099 6.80281C31.474 7.18187 31.474 7.66195 31.7099 8.04102L33.026 10.1562H25.3698V4.6875H33.026Z" fill="#B796F5"/>
</g>
<defs>
<clipPath id="clip0">
<rect width="40" height="40" fill="white"/>
</clipPath>
</defs>
</svg>
