<svg width="40" height="40" viewBox="0 0 40 40" fill="none" xmlns="http://www.w3.org/2000/svg">
<g clip-path="url(#clip0_610_15068)">
<path d="M18.4572 27.1306C18.7626 26.8252 18.7626 26.3308 18.4572 26.0253C18.1514 25.7207 17.656 25.7207 17.35 26.0253C17.0448 26.3308 17.0448 26.8252 17.35 27.1306C17.656 27.4352 18.1514 27.4352 18.4572 27.1306Z" fill="#B796F5"/>
<path d="M14.751 8.59131C14.751 13.3286 18.6126 17.1829 23.3591 17.1829C28.1056 17.1829 31.9672 13.3286 31.9672 8.59131C31.9672 3.85407 28.1056 0 23.3591 0C18.6126 0 14.751 3.85407 14.751 8.59131ZM30.4023 8.59131C30.4023 12.4674 27.2427 15.6207 23.3591 15.6207C19.4755 15.6207 16.3159 12.4674 16.3159 8.59131C16.3159 4.71558 19.4755 1.5622 23.3591 1.5622C27.2427 1.5622 30.4023 4.71558 30.4023 8.59131Z" fill="#B796F5"/>
<path d="M9.05287 39.7694C9.3562 40.0746 9.85002 40.078 10.1573 39.7758L13.9514 36.0454C14.5959 35.4021 14.7919 34.4496 14.5085 33.6217L15.3246 32.8361C15.764 32.4126 16.3425 32.1791 16.954 32.1791H27.3574C29.203 32.1791 30.9474 31.4717 32.2699 30.1872C32.3243 30.1344 31.8568 30.684 39.3672 21.7253C40.4811 20.41 40.3145 18.4349 38.9954 17.3219C37.6845 16.2193 35.7209 16.3777 34.6039 17.6704L29.9861 22.4074C29.403 21.6911 28.5138 21.2447 27.5531 21.2447H18.8266C17.5849 20.7262 16.2673 20.4637 14.9078 20.4637C11.1395 20.4637 7.84904 22.2008 6.0832 25.4576C5.33926 25.3169 4.55464 25.5415 3.99019 26.1049L0.267399 29.8314C-0.0365394 30.1356 -0.0371509 30.6279 0.266176 30.9331L9.05287 39.7694ZM14.9075 22.0256C16.1061 22.0256 17.265 22.2664 18.3526 22.7412C18.4517 22.7846 18.5584 22.8068 18.6664 22.8068H27.5531C28.4016 22.8068 29.1183 23.4975 29.1183 24.3687C29.1183 25.2302 28.4162 25.9309 27.5531 25.9309H21.1682C20.7361 25.9309 20.3857 26.2807 20.3857 26.7119C20.3857 27.1434 20.7361 27.4928 21.1682 27.4928H27.5531C29.2791 27.4928 30.6833 26.0915 30.6833 24.3687C30.6833 24.2314 30.6735 24.0953 30.6557 23.9604C35.1228 19.3776 35.7527 18.7337 35.7796 18.7016C36.3373 18.0446 37.3274 17.9613 37.986 18.5155C38.6453 19.0718 38.7287 20.0593 38.1695 20.7201L31.1505 29.0947C30.1255 30.0767 28.7798 30.6172 27.3574 30.6172H16.954C15.9346 30.6172 14.9696 31.0063 14.2376 31.7122L13.5725 32.3527L7.44175 26.2343C8.8746 23.5515 11.5633 22.0256 14.9075 22.0256ZM5.09769 27.2087C5.35577 26.9511 5.75205 26.9047 6.06669 27.0988C6.20215 27.1812 5.8132 26.8278 12.8448 33.8359C13.1576 34.1481 13.1407 34.6455 12.849 34.9367L9.61457 38.1169L1.9253 30.3841L5.09769 27.2087Z" fill="#B796F5"/>
<path d="M22.42 3.90625V4.82147C21.5091 5.14374 20.8547 6.01196 20.8547 7.03034C20.8547 8.32215 21.9078 9.37348 23.2024 9.37348C23.6339 9.37348 23.9849 9.72382 23.9849 10.1544C23.9849 10.585 23.6339 10.9354 23.2024 10.9354C22.8682 10.9354 22.5071 10.7257 22.1864 10.3445C21.9081 10.0143 21.4146 9.97193 21.0837 10.2493C20.7529 10.527 20.7101 11.0196 20.9883 11.3498C21.4066 11.8463 21.8986 12.1924 22.42 12.3669V13.2785C22.42 13.71 22.7704 14.0595 23.2024 14.0595C23.6345 14.0595 23.9849 13.71 23.9849 13.2785V12.3633C24.8958 12.0407 25.5502 11.1725 25.5502 10.1544C25.5502 8.86231 24.4971 7.81128 23.2024 7.81128C22.771 7.81128 22.42 7.46094 22.42 7.03034C22.42 6.59973 22.771 6.24909 23.2024 6.24909C23.4798 6.24909 23.7724 6.39038 24.0488 6.65741C24.3595 6.9574 24.8548 6.94916 25.1554 6.63941C25.456 6.32935 25.4477 5.83496 25.1374 5.53497C24.7402 5.15137 24.3427 4.93439 23.9849 4.81598V3.90625C23.9849 3.47473 23.6345 3.125 23.2024 3.125C22.7704 3.125 22.42 3.47473 22.42 3.90625Z" fill="#B796F5"/>
</g>
<defs>
<clipPath id="clip0_610_15068">
<rect width="40" height="40" fill="white"/>
</clipPath>
</defs>
</svg>
