<svg width="40" height="40" viewBox="0 0 40 40" fill="none" xmlns="http://www.w3.org/2000/svg">
<path d="M37.7726 10.8186C36.3627 8.09492 34.3079 5.69297 31.8304 3.87258C31.5691 3.68062 31.2014 3.73664 31.0093 3.99812C30.8173 4.25953 30.8734 4.62711 31.1348 4.81922C35.792 8.24117 38.6337 13.6618 38.8155 19.4125H34.3433V14.9326C34.3433 12.3369 32.4979 10.1643 30.0502 9.65734C29.059 6.8468 27.6703 4.48164 26.0214 2.80594C25.6691 2.44797 25.3062 2.12344 24.9347 1.83203C26.3082 2.20375 27.6378 2.72961 28.8906 3.40219C29.1765 3.55555 29.5327 3.44828 29.686 3.1625C29.8395 2.87664 29.7321 2.52055 29.4463 2.36711C26.5616 0.818516 23.2951 0 20 0C14.6578 0 9.63531 2.08031 5.85789 5.85781C2.08047 9.63531 0 14.6578 0 20C0 22.0278 0.302578 24.0287 0.899219 25.9473C0.9775 26.199 1.20953 26.3603 1.46 26.3603C1.51773 26.3603 1.57656 26.3517 1.63461 26.3336C1.94438 26.2373 2.11734 25.908 2.02102 25.5983C1.51719 23.9784 1.23695 22.2953 1.18461 20.5873H5.65672V24.9388C5.65672 27.5172 7.47781 29.6771 9.90102 30.2028C10.8877 33.0529 12.2802 35.453 13.9405 37.1551C14.3021 37.5256 14.6748 37.8608 15.0568 38.161C9.73352 36.7059 5.20234 32.9484 2.85375 27.7827C2.71953 27.4876 2.37156 27.3567 2.07594 27.4912C1.78062 27.6254 1.65008 27.9736 1.78437 28.269C3.3525 31.7181 5.85977 34.6435 9.03508 36.7289C12.2934 38.8689 16.0851 40 20 40C25.3422 40 30.3647 37.9196 34.1421 34.1421C37.9195 30.3646 40 25.3421 40 20C40 16.8087 39.2297 13.6337 37.7726 10.8186ZM28.7589 9.54555H20.5874V1.20516C22.1966 1.3682 23.7745 2.19781 25.1841 3.63008C26.6153 5.08445 27.8417 7.11898 28.7589 9.54555ZM19.4126 9.54555H11.2411C12.1584 7.11867 13.3849 5.08398 14.8164 3.62953C16.2258 2.19758 17.8037 1.36812 19.4126 1.20516V9.54555ZM1.18484 19.4126C1.44414 10.9979 7.25203 3.95703 15.0648 1.8325C14.6937 2.12359 14.3311 2.44789 13.9791 2.80547C12.3298 4.48117 10.941 6.84656 9.94977 9.65742C7.50211 10.1644 5.65672 12.337 5.65672 14.9327V19.4126H1.18484ZM6.83148 24.9388V14.9327C6.83148 12.6099 8.72117 10.7203 11.0438 10.7203H28.956C31.2788 10.7203 33.1684 12.61 33.1684 14.9327V24.9388C33.1684 27.2616 31.2787 29.1512 28.956 29.1512H11.0438C8.72117 29.1513 6.83148 27.2616 6.83148 24.9388ZM11.1914 30.326H19.4126V38.7947C16.1082 38.4577 13.0368 35.2971 11.1914 30.326ZM24.9352 38.1675C26.5504 36.8999 27.9902 35.006 29.137 32.5769C29.2755 32.2835 29.1499 31.9334 28.8566 31.7949C28.5634 31.6564 28.2132 31.782 28.0747 32.0753C26.1776 36.0936 23.4751 38.5065 20.5874 38.7957V30.326H28.9561C31.9266 30.326 34.3433 27.9094 34.3433 24.9389V20.5874H38.8152C38.5559 29.002 32.748 36.0429 24.9352 38.1675Z" fill="#B796F5"/>
<path d="M19.8395 16.5928H27.7177C27.0973 17.8065 26.204 19.1199 25.1485 20.3603C25.0501 20.4759 24.9505 20.5898 24.8505 20.7028C24.3834 20.1447 23.9887 19.5832 23.6986 19.058C23.5419 18.7742 23.1844 18.6709 22.9004 18.828C22.6165 18.9848 22.5134 19.3422 22.6703 19.6262C23.0149 20.2501 23.4872 20.9149 24.044 21.5678C23.1089 22.5194 22.1409 23.3324 21.2329 23.9204C20.9605 24.0968 20.8827 24.4605 21.0591 24.7327C21.2366 25.0073 21.6029 25.0814 21.8714 24.9066C22.8354 24.2823 23.8567 23.4286 24.8398 22.4336C24.8991 22.4935 24.959 22.5531 25.0195 22.6123C26.0025 23.5751 27.0801 24.3873 28.0537 24.8991C28.3351 25.0487 28.6953 24.9425 28.847 24.6525C28.998 24.3654 28.8875 24.0103 28.6003 23.8593C27.725 23.3991 26.7452 22.6583 25.8415 21.7731C25.7752 21.7081 25.7098 21.6426 25.645 21.5768C25.7789 21.4271 25.912 21.2758 26.0431 21.1216C27.3099 19.633 28.3612 18.0335 29.0233 16.5929H30.2725C30.597 16.5929 30.8599 16.3299 30.8599 16.0055C30.8599 15.681 30.597 15.418 30.2725 15.418H25.5421V13.1792C25.5421 12.8548 25.2791 12.5918 24.9547 12.5918C24.6302 12.5918 24.3673 12.8548 24.3673 13.1792V15.418H19.8394C19.5149 15.418 19.252 15.681 19.252 16.0055C19.252 16.3299 19.5151 16.5928 19.8395 16.5928Z" fill="#B796F5"/>
<path d="M16.4058 23.2623L17.1452 25.2215C17.2597 25.525 17.5987 25.6782 17.9021 25.5636C18.2057 25.4491 18.3588 25.1102 18.2442 24.8066L14.6996 15.4141C14.6977 15.4087 14.6956 15.4035 14.6934 15.3982C14.569 15.0957 14.2775 14.9004 13.9505 14.9004C13.9503 14.9004 13.95 14.9004 13.9498 14.9004C13.6225 14.9006 13.3309 15.0966 13.2069 15.3995C13.2051 15.4039 13.2033 15.4084 13.2016 15.4129L9.62456 24.805C9.50909 25.1081 9.66128 25.4474 9.96448 25.563C10.2597 25.6778 10.6072 25.5293 10.7225 25.223L11.4692 23.2623H16.4058ZM13.9489 16.7517L15.9625 22.0875H11.9167L13.9489 16.7517Z" fill="#B796F5"/>
</svg>
