<svg width="183" height="57" viewBox="0 0 183 57" fill="none" xmlns="http://www.w3.org/2000/svg">
<path d="M137.347 25.8543C137.294 25.9619 137.294 26.0156 137.24 26.1232C137.186 26.1769 137.079 26.2307 137.025 26.2845C136.917 26.3383 136.81 26.3383 136.648 26.3383C136.487 26.3383 136.326 26.3383 136.111 26.3383C135.896 26.3383 135.68 26.3383 135.519 26.3383C135.358 26.3383 135.25 26.2845 135.143 26.2845C135.035 26.2307 134.981 26.2307 134.928 26.1232C134.874 26.0694 134.82 25.9619 134.82 25.8543L131.862 15.154L129.12 25.8543C129.12 25.9619 129.066 26.0156 129.012 26.1232C128.959 26.1769 128.905 26.2307 128.797 26.2845C128.69 26.3383 128.582 26.3383 128.421 26.3383C128.259 26.3383 128.098 26.3383 127.829 26.3383C127.614 26.3383 127.399 26.3383 127.238 26.3383C127.076 26.3383 126.969 26.2845 126.861 26.2845C126.754 26.2307 126.7 26.2307 126.646 26.1232C126.592 26.0694 126.539 25.9619 126.539 25.8543L122.828 12.7881C122.774 12.6268 122.774 12.4655 122.774 12.4117C122.774 12.3042 122.774 12.2504 122.882 12.1967C122.936 12.1429 123.043 12.0891 123.205 12.0891H123.742H124.28C124.388 12.0891 124.495 12.1429 124.603 12.1429C124.657 12.1967 124.71 12.1967 124.764 12.2504C124.764 12.3042 124.818 12.358 124.818 12.4655L127.991 24.295L131.002 12.4655C131.002 12.4117 131.056 12.3042 131.11 12.2504C131.163 12.1967 131.217 12.1429 131.271 12.1429C131.325 12.0891 131.432 12.0891 131.594 12.0891H132.131H132.615C132.723 12.0891 132.83 12.1429 132.884 12.1429C132.938 12.1967 132.992 12.1967 133.045 12.2504C133.099 12.3042 133.099 12.358 133.153 12.4655L136.38 24.295L139.498 12.4655C139.498 12.4117 139.552 12.3042 139.552 12.2504C139.552 12.1967 139.606 12.1429 139.714 12.1429C139.767 12.0891 139.875 12.0891 139.982 12.0891H140.466C140.682 12.0891 140.843 12.0891 141.004 12.1429C141.112 12.1429 141.219 12.1967 141.273 12.2504C141.327 12.3042 141.381 12.358 141.381 12.4655C141.381 12.573 141.381 12.6806 141.327 12.8419L137.347 25.8543Z" fill="#B796F5"/>
<path d="M151.545 25.478V25.8006C151.545 25.9082 151.491 25.9619 151.491 26.0695C151.437 26.1232 151.437 26.177 151.383 26.2308C151.329 26.2845 151.276 26.2845 151.222 26.2845H144.392C144.231 26.2845 144.07 26.2308 143.908 26.1232C143.747 26.0157 143.693 25.8006 143.693 25.5318V12.8957C143.693 12.6269 143.747 12.4118 143.908 12.3043C144.07 12.1967 144.231 12.1429 144.392 12.1429H151.114C151.168 12.1429 151.222 12.1429 151.276 12.1967C151.329 12.2505 151.383 12.2505 151.383 12.358C151.437 12.4118 151.437 12.5193 151.437 12.6269C151.437 12.7344 151.491 12.842 151.491 13.0033C151.491 13.1108 151.491 13.2721 151.437 13.3259C151.437 13.4334 151.383 13.4872 151.383 13.541C151.329 13.5947 151.329 13.6485 151.276 13.7023C151.222 13.7561 151.168 13.7561 151.114 13.7561H145.575V18.1115H150.308C150.361 18.1115 150.415 18.1115 150.469 18.1652C150.523 18.219 150.577 18.219 150.577 18.3265C150.63 18.3803 150.63 18.4878 150.63 18.5416V18.918V19.2406C150.63 19.3482 150.577 19.4019 150.577 19.4557C150.523 19.5095 150.523 19.5633 150.469 19.5633C150.415 19.5633 150.361 19.617 150.308 19.617H145.575V24.6714H151.168C151.222 24.6714 151.276 24.6714 151.329 24.7252C151.383 24.779 151.437 24.779 151.437 24.8865C151.491 24.9403 151.491 25.0478 151.491 25.1016C151.545 25.2091 151.545 25.3705 151.545 25.478Z" fill="#B796F5"/>
<path d="M163.966 22.198C163.966 22.6282 163.912 23.0583 163.805 23.4347C163.697 23.8111 163.536 24.1337 163.321 24.4564C163.106 24.779 162.891 24.9941 162.568 25.2629C162.299 25.478 161.977 25.6931 161.6 25.8544C161.224 26.0157 160.847 26.1232 160.417 26.177C159.987 26.2308 159.557 26.2845 159.019 26.2845H155.308C155.147 26.2845 154.986 26.2308 154.824 26.1232C154.663 26.0157 154.609 25.8006 154.609 25.5318V12.8957C154.609 12.6269 154.663 12.4118 154.824 12.3043C154.986 12.1967 155.147 12.1429 155.308 12.1429H158.535C159.395 12.1429 160.094 12.1967 160.632 12.358C161.17 12.5193 161.6 12.7344 161.977 13.057C162.353 13.3797 162.622 13.7561 162.783 14.1862C162.944 14.6164 163.052 15.1541 163.052 15.6918C163.052 16.0144 162.998 16.337 162.944 16.6597C162.891 16.9823 162.729 17.2511 162.568 17.52C162.407 17.7888 162.192 18.0039 161.977 18.219C161.761 18.4341 161.493 18.5954 161.17 18.7029C161.546 18.7567 161.923 18.918 162.245 19.0793C162.568 19.2944 162.891 19.5095 163.106 19.8321C163.375 20.1547 163.536 20.4773 163.697 20.9075C163.859 21.2839 163.966 21.7141 163.966 22.198ZM161.116 15.9069C161.116 15.5842 161.062 15.2616 160.955 14.9928C160.847 14.7239 160.686 14.4551 160.525 14.2938C160.363 14.1324 160.041 13.9711 159.718 13.8636C159.395 13.7561 158.965 13.7023 158.427 13.7023H156.491V18.2728H158.642C159.126 18.2728 159.503 18.219 159.826 18.0577C160.148 17.9501 160.363 17.7351 160.578 17.52C160.793 17.3049 160.901 17.036 161.009 16.7672C161.062 16.4983 161.116 16.1757 161.116 15.9069ZM161.977 22.3055C161.977 21.8754 161.923 21.499 161.761 21.1764C161.6 20.8537 161.439 20.5849 161.17 20.3698C160.901 20.1547 160.578 19.9934 160.202 19.8859C159.826 19.7783 159.342 19.7246 158.75 19.7246H156.491V24.7252H159.234C159.664 24.7252 160.041 24.6714 160.363 24.5639C160.686 24.4564 160.955 24.295 161.224 24.1337C161.493 23.9187 161.654 23.7036 161.815 23.3809C161.869 23.0583 161.977 22.7357 161.977 22.3055Z" fill="#B796F5"/>
<path d="M131.217 39.7809V40.1573C131.217 40.2649 131.163 40.3186 131.163 40.4262C131.11 40.4799 131.11 40.5337 131.056 40.5875C131.002 40.6412 130.948 40.6412 130.895 40.6412H125.732V45.4268H130.626C130.68 45.4268 130.733 45.4268 130.787 45.4806C130.841 45.4806 130.895 45.5343 130.895 45.5881C130.948 45.6419 130.948 45.7494 130.948 45.8032V46.1796V46.556C130.948 46.6635 130.895 46.7173 130.895 46.7711C130.841 46.8248 130.841 46.8786 130.787 46.9324C130.733 46.9861 130.68 46.9861 130.626 46.9861H125.732V52.9009C125.732 52.9547 125.732 53.0084 125.678 53.0622C125.625 53.116 125.625 53.1697 125.517 53.1697C125.463 53.1697 125.356 53.2235 125.248 53.2235C125.141 53.2235 124.979 53.2773 124.764 53.2773C124.603 53.2773 124.442 53.2773 124.334 53.2235C124.227 53.2235 124.119 53.1697 124.065 53.1697C124.011 53.1697 123.958 53.116 123.904 53.0622C123.85 53.0084 123.85 52.9547 123.85 52.9009V39.7271C123.85 39.4583 123.904 39.2432 124.065 39.1357C124.227 39.0281 124.388 38.9744 124.549 38.9744H130.895C130.948 38.9744 131.002 38.9744 131.056 39.0281C131.11 39.0819 131.163 39.0819 131.163 39.1894C131.217 39.2432 131.217 39.3508 131.217 39.4583C131.217 39.5658 131.217 39.6734 131.217 39.7809Z" fill="#B796F5"/>
<path d="M145.737 45.9107C145.737 47.0399 145.575 48.0616 145.307 49.0294C145.038 49.9435 144.661 50.7501 144.123 51.3953C143.586 52.0406 142.94 52.5245 142.134 52.9009C141.327 53.2235 140.359 53.4386 139.284 53.4386C138.208 53.4386 137.294 53.2773 136.541 52.9547C135.788 52.632 135.143 52.2019 134.605 51.5566C134.121 50.9652 133.745 50.2124 133.476 49.2983C133.207 48.3842 133.1 47.3625 133.1 46.1796C133.1 45.0504 133.261 44.0288 133.53 43.1685C133.799 42.2544 134.229 41.5016 134.767 40.8563C135.304 40.2111 136.003 39.7271 136.81 39.4045C137.617 39.0819 138.585 38.8668 139.66 38.8668C140.682 38.8668 141.596 39.0281 142.403 39.3508C143.156 39.6734 143.801 40.1035 144.339 40.7488C144.876 41.3403 145.253 42.093 145.468 42.9534C145.575 43.7062 145.737 44.7278 145.737 45.9107ZM143.747 46.0183C143.747 45.2117 143.693 44.4589 143.532 43.7599C143.371 43.0609 143.156 42.4694 142.833 41.9855C142.51 41.5016 142.08 41.0714 141.489 40.8026C140.951 40.5337 140.252 40.3724 139.445 40.3724C138.638 40.3724 137.939 40.5337 137.402 40.8563C136.864 41.179 136.38 41.5553 136.057 42.093C135.735 42.577 135.466 43.2222 135.304 43.8675C135.143 44.5665 135.089 45.2655 135.089 46.0183C135.089 46.8248 135.143 47.6314 135.304 48.3304C135.466 49.0294 135.681 49.6209 136.003 50.1586C136.326 50.6963 136.756 51.0727 137.294 51.3416C137.832 51.6104 138.531 51.7717 139.338 51.7717C140.144 51.7717 140.843 51.6104 141.435 51.2878C141.972 50.9652 142.456 50.5888 142.779 50.0511C143.102 49.5134 143.371 48.9219 143.532 48.2229C143.64 47.5239 143.747 46.7711 143.747 46.0183Z" fill="#B796F5"/>
<path d="M158.105 51.1265V51.4491C158.105 51.5566 158.105 51.6104 158.051 51.6642C158.051 51.7179 157.997 51.7717 157.997 51.8255C157.944 51.8792 157.944 51.933 157.836 51.9868C157.782 52.0406 157.621 52.1481 157.352 52.3094C157.137 52.4707 156.814 52.5783 156.492 52.7396C156.169 52.9009 155.739 53.0084 155.309 53.116C154.878 53.2235 154.394 53.2773 153.857 53.2773C152.943 53.2773 152.136 53.116 151.383 52.7933C150.63 52.4707 150.039 52.0406 149.501 51.4491C148.963 50.8576 148.587 50.1048 148.318 49.2445C148.049 48.3842 147.888 47.3625 147.888 46.2334C147.888 45.0504 148.049 44.0288 148.318 43.1147C148.641 42.2006 149.071 41.394 149.608 40.8026C150.146 40.1573 150.792 39.6734 151.544 39.3508C152.297 39.0281 153.158 38.8668 154.072 38.8668C154.502 38.8668 154.878 38.9206 155.255 38.9744C155.631 39.0281 156.008 39.1357 156.33 39.2432C156.653 39.3508 156.976 39.5121 157.191 39.6734C157.46 39.8347 157.621 39.9422 157.728 40.0498C157.836 40.1573 157.89 40.2111 157.944 40.2648C157.997 40.3186 157.997 40.3724 157.997 40.4262C157.997 40.4799 158.051 40.5875 158.051 40.695V41.0176V41.394C158.051 41.5016 157.997 41.5553 157.997 41.6629C157.944 41.7167 157.944 41.7704 157.89 41.8242C157.836 41.878 157.782 41.878 157.728 41.878C157.621 41.878 157.46 41.8242 157.298 41.6629C157.137 41.5016 156.868 41.3403 156.599 41.1789C156.33 41.0176 155.954 40.8563 155.524 40.695C155.094 40.5337 154.61 40.4799 154.018 40.4799C153.373 40.4799 152.835 40.5875 152.297 40.8563C151.759 41.1252 151.329 41.5016 150.953 41.9855C150.576 42.4694 150.308 43.0609 150.092 43.7599C149.877 44.4589 149.77 45.2655 149.77 46.1796C149.77 47.0937 149.877 47.8465 150.039 48.5455C150.254 49.2445 150.523 49.836 150.899 50.2661C151.276 50.7501 151.706 51.0727 152.243 51.3415C152.781 51.5566 153.373 51.7179 154.018 51.7179C154.556 51.7179 155.094 51.6642 155.47 51.5029C155.9 51.3415 156.277 51.234 156.545 51.0189C156.868 50.8576 157.083 50.6963 157.298 50.535C157.513 50.3737 157.621 50.3199 157.728 50.3199C157.782 50.3199 157.836 50.3199 157.836 50.3737C157.89 50.3737 157.89 50.4274 157.944 50.4812C157.944 50.535 157.997 50.6425 157.997 50.7501C158.105 50.8038 158.105 50.9652 158.105 51.1265Z" fill="#B796F5"/>
<path d="M171.226 47.9002C171.226 48.7606 171.118 49.5134 170.849 50.2124C170.58 50.9114 170.258 51.4491 169.774 51.933C169.29 52.417 168.752 52.7396 168.053 53.0084C167.408 53.2235 166.601 53.3848 165.794 53.3848C164.988 53.3848 164.289 53.2773 163.643 53.0622C162.998 52.8471 162.46 52.5245 161.976 52.0406C161.492 51.6104 161.17 51.0727 160.901 50.3737C160.632 49.7284 160.524 48.9219 160.524 48.0616V39.2432C160.524 39.1894 160.524 39.1357 160.578 39.0819C160.632 39.0281 160.632 39.0281 160.74 38.9744C160.793 38.9744 160.901 38.9206 161.008 38.9206C161.116 38.9206 161.277 38.8668 161.492 38.8668C161.654 38.8668 161.815 38.8668 161.923 38.9206C162.03 38.9206 162.138 38.9744 162.191 38.9744C162.245 38.9744 162.299 39.0281 162.353 39.0819C162.407 39.1357 162.407 39.1894 162.407 39.2432V47.7927C162.407 48.4379 162.46 49.0294 162.622 49.5134C162.783 49.9973 162.998 50.4275 163.321 50.7501C163.643 51.0727 163.966 51.3415 164.396 51.5029C164.826 51.6642 165.31 51.7717 165.848 51.7717C166.386 51.7717 166.87 51.7179 167.3 51.5566C167.73 51.3953 168.107 51.1802 168.376 50.8576C168.644 50.535 168.913 50.1586 169.075 49.6747C169.236 49.1907 169.29 48.653 169.29 48.0078V39.2432C169.29 39.1894 169.29 39.1357 169.344 39.0819C169.397 39.0281 169.397 39.0281 169.505 38.9744C169.559 38.9744 169.666 38.9206 169.774 38.9206C169.881 38.9206 170.043 38.8668 170.204 38.8668C170.365 38.8668 170.527 38.8668 170.634 38.9206C170.742 38.9206 170.849 38.9744 170.903 38.9744C170.957 38.9744 171.011 39.0281 171.064 39.0819C171.118 39.1357 171.118 39.1894 171.118 39.2432V47.9002H171.226Z" fill="#B796F5"/>
<path d="M177.786 53.331C177.302 53.331 176.872 53.2772 176.496 53.2234C176.065 53.1697 175.743 53.0621 175.42 52.9546C175.098 52.847 174.829 52.7395 174.614 52.5782C174.398 52.4707 174.237 52.3631 174.183 52.2556C174.076 52.148 174.022 52.0405 174.022 51.933C173.968 51.7716 173.968 51.6103 173.968 51.3953C173.968 51.2339 173.968 51.1264 173.968 51.0189C173.968 50.9113 174.022 50.8038 174.022 50.75C174.076 50.6962 174.076 50.6425 174.13 50.5887C174.183 50.5349 174.237 50.5349 174.291 50.5349C174.398 50.5349 174.56 50.5887 174.721 50.6962C174.882 50.8038 175.151 50.9651 175.42 51.1264C175.689 51.2877 176.065 51.3952 176.496 51.5566C176.926 51.6641 177.356 51.7716 177.948 51.7716C178.378 51.7716 178.754 51.7179 179.077 51.6103C179.4 51.5028 179.722 51.3415 179.937 51.1264C180.206 50.9113 180.367 50.6962 180.475 50.3736C180.583 50.1048 180.69 49.7284 180.69 49.4057C180.69 49.0294 180.583 48.653 180.421 48.3841C180.26 48.1153 179.991 47.8464 179.722 47.6313C179.4 47.4162 179.077 47.2012 178.7 47.0399C178.324 46.8785 177.948 46.6635 177.517 46.5021C177.141 46.3408 176.711 46.1258 176.334 45.9107C175.958 45.6956 175.635 45.4267 175.313 45.1041C174.99 44.7815 174.775 44.4589 174.56 44.0287C174.398 43.5985 174.291 43.1146 174.291 42.5231C174.291 41.9317 174.398 41.394 174.614 40.9638C174.829 40.4799 175.151 40.1035 175.528 39.7809C175.904 39.4582 176.388 39.2432 176.872 39.0818C177.41 38.9205 177.948 38.813 178.593 38.813C178.916 38.813 179.238 38.8668 179.561 38.9205C179.884 38.9743 180.152 39.0281 180.475 39.1356C180.744 39.2432 181.013 39.3507 181.228 39.4582C181.443 39.5658 181.604 39.6733 181.658 39.7271C181.712 39.7809 181.766 39.8346 181.819 39.8884C181.819 39.9422 181.873 39.9959 181.873 40.0497C181.873 40.1035 181.873 40.211 181.927 40.2648V40.5874V40.9638C181.927 41.0713 181.873 41.1251 181.873 41.2327C181.873 41.2864 181.819 41.3402 181.766 41.394C181.712 41.4477 181.658 41.4477 181.604 41.4477C181.551 41.4477 181.389 41.394 181.228 41.2864C181.067 41.1789 180.851 41.0713 180.583 40.9638C180.314 40.8563 180.045 40.695 179.722 40.5874C179.4 40.4799 179.023 40.4261 178.593 40.4261C178.216 40.4261 177.84 40.4799 177.571 40.5874C177.302 40.695 177.033 40.8563 176.872 41.0176C176.657 41.1789 176.549 41.394 176.442 41.6628C176.334 41.8779 176.281 42.1467 176.281 42.4156C176.281 42.792 176.388 43.1684 176.549 43.4372C176.711 43.7061 176.98 43.9749 177.302 44.19C177.625 44.4051 177.948 44.6202 178.324 44.7815C178.7 44.9428 179.077 45.1579 179.507 45.3192C179.937 45.4805 180.314 45.6956 180.69 45.9107C181.067 46.1258 181.443 46.3946 181.712 46.7172C182.035 47.0398 182.25 47.3625 182.465 47.7926C182.626 48.2228 182.734 48.7067 182.734 49.2444C182.734 49.8897 182.626 50.4812 182.357 51.0189C182.088 51.5566 181.766 51.9867 181.335 52.3093C180.905 52.6857 180.367 52.9546 179.83 53.1159C179.077 53.2234 178.432 53.331 177.786 53.331Z" fill="#B796F5"/>
<path d="M23.7686 30.7474L28.7158 9.93828L35.1688 33.4897L29.8451 53.1159H14.8419L0 3.48584H16.4552L23.7686 30.7474ZM58.8299 53.1159H43.0738L29.4687 3.48584H46.139L58.8299 53.1159ZM58.9912 3.48584H74.0482L60.6044 50.5349L53.8825 24.0799L58.9912 3.48584Z" fill="#B796F5"/>
<path d="M71.1977 21.8215H83.9961L87.1689 3.48584H102.172L93.4605 52.9008H62.6475L66.8419 40.2648H80.7696L81.8989 33.651H69.1005L71.1977 21.8215Z" fill="#B796F5"/>
<path d="M113.74 0.797363H112.88V56.611H113.74V0.797363Z" fill="#B796F5"/>
</svg>
