<svg width="42" height="42" viewBox="0 0 42 42" fill="none" xmlns="http://www.w3.org/2000/svg">
<path d="M25.4848 33.9385V29.5977C25.4848 29.1737 25.1411 28.8301 24.7172 28.8301C24.2935 28.8301 23.9496 29.1737 23.9496 29.5977V33.9385C22.7744 34.2732 21.9111 35.3559 21.9111 36.6371C21.9111 38.1846 23.1697 39.4436 24.7172 39.4436C26.2649 39.4436 27.5235 38.1846 27.5235 36.6371C27.5235 35.3559 26.6602 34.2732 25.4848 33.9385ZM24.7172 37.9084C24.0164 37.9084 23.4461 37.3379 23.4461 36.6371C23.4461 35.9363 24.0164 35.366 24.7172 35.366C25.4182 35.366 25.9885 35.9363 25.9885 36.6371C25.9885 37.3379 25.4182 37.9084 24.7172 37.9084Z" fill="#B796F5"/>
<path d="M37.8605 26.4793C36.5794 26.4793 35.4967 27.3426 35.1619 28.5182H33.1189V21.7586H33.9189C34.3429 21.7586 34.6865 21.4151 34.6865 20.9912V20.9095C34.6865 19.2731 36.018 17.9417 37.6541 17.9417H37.8197C38.0502 17.9417 38.2686 17.8381 38.4142 17.6596C38.5599 17.4812 38.6178 17.2467 38.5719 17.021C37.8134 13.2976 35.9362 9.94989 33.1427 7.33994C32.9735 7.18205 32.7425 7.10875 32.513 7.14047C32.2838 7.17244 32.0814 7.30582 31.9615 7.50385C31.7368 7.87635 31.4412 8.1871 31.0833 8.42838C31.0735 8.43535 31.0682 8.43896 31.0586 8.44617C30.9903 8.49519 29.3717 9.63578 27.6202 8.34403C27.5823 8.31615 27.5613 8.30125 27.5203 8.28154C27.422 8.22483 26.3441 7.5572 26.395 5.65406C26.4051 5.27891 26.5352 4.87179 26.7856 4.43848C26.9009 4.23805 26.9197 3.99652 26.8368 3.78047C26.7543 3.5649 26.5784 3.39787 26.359 3.32601C24.5284 2.72736 22.6178 2.42383 20.6801 2.42383C18.8933 2.42383 17.1247 2.6829 15.4234 3.19311C15.2069 3.25848 15.03 3.41541 14.9401 3.62306C14.85 3.8307 14.856 4.06742 14.9567 4.26978C15.6513 5.66799 15.1348 7.37527 13.7815 8.15657L13.7111 8.19743C12.3203 9.00036 10.5638 8.56297 9.71279 7.20152C9.59286 7.00998 9.3946 6.88068 9.17085 6.84848C8.94687 6.81651 8.72048 6.88453 8.55201 7.03473C5.76735 9.51081 3.82888 12.7216 2.9464 16.3197C2.89257 16.5389 2.93799 16.7704 3.07017 16.953C3.20259 17.1356 3.40831 17.2508 3.63325 17.2678C5.1687 17.3851 6.37153 18.6843 6.37153 20.2258V20.9912C6.37153 21.4147 6.7152 21.7586 7.13913 21.7586H8.56211V28.5177H6.79691C6.46189 27.3426 5.37922 26.4791 4.09804 26.4791C2.55058 26.4793 1.29199 27.7379 1.29199 29.2853C1.29199 30.8328 2.55058 32.0919 4.09828 32.0919C5.3797 32.0919 6.46237 31.2284 6.79691 30.053H9.32971C9.75316 30.053 10.0973 29.7093 10.0973 29.2853V21.7586H12.3576V31.6156L10.2538 34.0993C9.88895 33.9258 9.48135 33.8285 9.05141 33.8285C7.50419 33.8285 6.24512 35.0871 6.24512 36.6348C6.24512 38.1822 7.50419 39.4411 9.05141 39.4411C10.5989 39.4411 11.8579 38.1822 11.8579 36.6348C11.8579 36.0741 11.6919 35.5514 11.4073 35.1123L13.7109 32.393C13.7121 32.3916 13.7125 32.3904 13.7137 32.3892C13.7246 32.3762 13.7342 32.3627 13.7443 32.3493C13.7493 32.3423 13.7551 32.3353 13.7601 32.3281C13.769 32.3147 13.7774 32.3002 13.7858 32.2861C13.7904 32.2786 13.7955 32.2712 13.7995 32.2637C13.8063 32.251 13.8123 32.2375 13.8183 32.2245C13.8228 32.2149 13.8279 32.2056 13.8322 32.1957C13.8351 32.1887 13.8373 32.1815 13.8399 32.1748C13.8464 32.1585 13.8529 32.1423 13.8579 32.1255C13.8599 32.1195 13.8611 32.113 13.8627 32.107C13.868 32.089 13.8731 32.071 13.8769 32.0527C13.8784 32.0457 13.8791 32.0385 13.8803 32.0318C13.8832 32.0138 13.8865 31.996 13.8885 31.9777C13.8892 31.9698 13.8892 31.9616 13.8899 31.9539C13.8911 31.9364 13.8923 31.9191 13.8925 31.9015C13.8925 31.8999 13.8925 31.8984 13.8925 31.8967V21.7586H16.1956V33.9359C15.0204 34.2709 14.1569 35.3534 14.1569 36.6348C14.1569 38.182 15.4157 39.4411 16.963 39.4411C18.5107 39.4411 19.7695 38.1822 19.7695 36.6348C19.7695 35.3534 18.906 34.2709 17.7306 33.9359V21.7586H23.9502V23.6084C23.9502 24.0321 24.2941 24.3757 24.7178 24.3757C25.1417 24.3757 25.4854 24.0321 25.4854 23.6084V21.7586H27.7882V31.8967C27.7882 31.8987 27.7885 31.9001 27.7885 31.9015C27.7889 31.9191 27.7901 31.9364 27.7913 31.9539C27.7918 31.9616 27.7918 31.9698 27.7928 31.978C27.7945 31.996 27.7978 32.0138 27.801 32.0318C27.8022 32.0385 27.8029 32.0457 27.8041 32.0527C27.8082 32.071 27.8132 32.089 27.8183 32.107C27.8202 32.113 27.8209 32.1195 27.8231 32.1258C27.8281 32.1423 27.8348 32.1585 27.8411 32.1748C27.8437 32.182 27.8459 32.1892 27.849 32.1959C27.8529 32.2056 27.8579 32.2149 27.8627 32.2245C27.8687 32.2378 27.8745 32.251 27.8815 32.2637C27.8855 32.2714 27.8906 32.2786 27.8952 32.2861C27.9036 32.3002 27.9117 32.3147 27.9211 32.3281C27.9262 32.3353 27.9319 32.3423 27.937 32.3493C27.9468 32.3627 27.9564 32.3762 27.9673 32.3892C27.9682 32.3904 27.9692 32.3918 27.9704 32.393L30.2739 35.1128C29.9894 35.5514 29.8233 36.0741 29.8233 36.6348C29.8233 38.1822 31.0821 39.4411 32.6296 39.4411C34.1771 39.4411 35.4356 38.1822 35.4356 36.6348C35.4356 35.0876 34.1771 33.8285 32.6296 33.8285C32.1994 33.8285 31.7921 33.9261 31.4275 34.0993L29.3237 31.6156V21.7586H31.5839V29.2853C31.5839 29.7093 31.9276 30.053 32.3513 30.053C32.3989 30.053 32.4455 30.0481 32.4904 30.0397C32.5356 30.0481 32.5818 30.053 32.6296 30.053H35.1619C35.4969 31.2284 36.5796 32.0919 37.8608 32.0919C39.4082 32.0919 40.6671 30.8328 40.6671 29.2853C40.6671 27.7379 39.4082 26.4793 37.8605 26.4793ZM4.09828 30.5567C3.39725 30.5567 2.82696 29.9866 2.82696 29.2853C2.82696 28.5846 3.39725 28.0143 4.09828 28.0143C4.79932 28.0143 5.36937 28.5846 5.36937 29.2853C5.36937 29.9866 4.79932 30.5567 4.09828 30.5567ZM9.05141 37.9059C8.35062 37.9059 7.78056 37.3353 7.78056 36.6345C7.78056 35.9337 8.35062 35.3634 9.05141 35.3634C9.75268 35.3634 10.3227 35.9337 10.3227 36.6345C10.3227 37.3353 9.75268 37.9059 9.05141 37.9059ZM18.2343 36.6345C18.2343 37.3353 17.664 37.9059 16.963 37.9059C16.2622 37.9059 15.6921 37.3353 15.6921 36.6345C15.6921 35.9337 16.2622 35.3634 16.963 35.3634C17.664 35.3634 18.2343 35.9337 18.2343 36.6345ZM33.9007 36.6345C33.9007 37.3353 33.3304 37.9059 32.6293 37.9059C31.9286 37.9059 31.3583 37.3353 31.3583 36.6345C31.3583 35.9337 31.9286 35.3634 32.6293 35.3634C33.3304 35.3634 33.9007 35.9337 33.9007 36.6345ZM4.64983 15.9001C5.45781 13.1832 6.9363 10.7343 8.97258 8.74105C10.378 10.221 12.639 10.5889 14.4787 9.52667L14.5489 9.48606C16.3314 8.45722 17.1564 6.36903 16.6541 4.44762C17.967 4.12318 19.3174 3.95927 20.6796 3.95927C22.1667 3.95927 23.6356 4.15394 25.0581 4.53894C24.9363 4.90063 24.8697 5.25992 24.8606 5.6132C24.7887 8.29164 26.3859 9.39281 26.7459 9.60622C28.867 11.1429 31.0687 10.3428 31.9557 9.69202C32.2287 9.50625 32.4775 9.2938 32.7007 9.05684C34.7221 11.1424 36.1482 13.6793 36.8706 16.4748C34.9824 16.8074 33.4957 18.3214 33.2037 20.2236H29.3201C29.2833 18.4711 28.7154 16.7987 27.6678 15.3769C27.4159 15.0359 26.9358 14.9631 26.5945 15.2142C26.2533 15.4659 26.1802 15.9465 26.4318 16.2878C27.2835 17.4437 27.7486 18.8009 27.7848 20.2236H13.8949C13.9406 18.4017 14.6808 16.704 15.9916 15.4267C16.2672 15.1578 16.5674 14.9102 16.8834 14.691C18.0485 13.8823 19.4164 13.4548 20.8404 13.4548C21.1696 13.4548 21.5022 13.4788 21.8291 13.5259C22.2497 13.5867 22.6378 13.2957 22.6983 12.8759C22.7591 12.4565 22.4681 12.0672 22.0487 12.0066C21.6493 11.9489 21.2429 11.9198 20.8404 11.9198C19.1023 11.9198 17.4311 12.4418 16.0081 13.4298C15.6227 13.6975 15.2564 13.9994 14.9199 14.3274C13.3105 15.8963 12.4056 17.984 12.3595 20.2234H7.90673C7.90553 18.1967 6.53327 16.4459 4.64983 15.9001ZM37.8605 30.5567C37.1597 30.5567 36.5894 29.9866 36.5894 29.2853C36.5894 28.5846 37.1597 28.0143 37.8605 28.0143C38.5618 28.0143 39.1319 28.5846 39.1319 29.2853C39.1319 29.9866 38.5618 30.5567 37.8605 30.5567Z" fill="#B796F5"/>
<path d="M24.2357 27.1983L24.2552 27.2135C24.3943 27.3195 24.5578 27.3704 24.72 27.3704C24.9514 27.3704 25.18 27.2666 25.3311 27.0683C25.5883 26.7311 25.5234 26.2498 25.186 25.9926L25.1665 25.9777C24.8291 25.7204 24.3475 25.7855 24.0906 26.1227C23.8339 26.4601 23.8988 26.9414 24.2357 27.1983Z" fill="#B796F5"/>
<path d="M24.2144 14.339L24.2338 14.3539C24.373 14.4601 24.5366 14.5111 24.6988 14.5111C24.9303 14.5111 25.1588 14.4072 25.31 14.209C25.5667 13.8718 25.5018 13.3902 25.1648 13.133L25.1454 13.1184C24.808 12.861 24.3263 12.9261 24.0694 13.2633C23.8123 13.6005 23.8772 14.0821 24.2144 14.339Z" fill="#B796F5"/>
</svg>
