<svg width="40" height="40" viewBox="0 0 40 40" fill="none" xmlns="http://www.w3.org/2000/svg">
<g clip-path="url(#clip0_610_15092)">
<path d="M38.3628 14.1684V11.752C38.3628 11.7353 38.3619 11.7185 38.3604 11.702C38.3601 11.6995 38.3604 11.6968 38.3601 11.6941C38.3579 11.6715 38.3543 11.6495 38.3497 11.6281C38.3488 11.6245 38.3479 11.6208 38.3469 11.6175C38.3427 11.5995 38.3375 11.5814 38.3316 11.564C38.331 11.5619 38.3304 11.5598 38.3298 11.5576L36.3389 5.90028C36.2992 5.78737 36.2448 5.6833 36.179 5.58778C36.1793 5.58015 36.1802 5.57283 36.1802 5.56489V1.99921C36.1802 0.853884 35.2464 -0.078125 34.0988 -0.078125H5.94693C4.79906 -0.078125 3.86553 0.853884 3.86553 1.99921V5.56489C3.86553 5.57252 3.86645 5.58015 3.86675 5.58778C3.80071 5.68299 3.74628 5.78737 3.70653 5.90028L1.71564 11.5576C1.71503 11.5598 1.71472 11.5619 1.71381 11.564C1.708 11.5814 1.7031 11.5991 1.69882 11.6168C1.69791 11.6205 1.69668 11.6245 1.69577 11.6281C1.69118 11.6495 1.68782 11.6715 1.68537 11.6937C1.68506 11.6968 1.68537 11.7002 1.68506 11.7032C1.68353 11.7194 1.68262 11.7356 1.68262 11.7517V14.1684C1.68262 15.7401 2.56722 17.1091 3.86553 17.8067V34.0635H3.22004C2.37244 34.0635 1.68262 34.7517 1.68262 35.5979V38.3872C1.68262 39.2335 2.37244 39.922 3.22004 39.922H36.8254C37.6733 39.922 38.3628 39.2335 38.3628 38.3872V35.5979C38.3628 34.7517 37.6733 34.0635 36.8254 34.0635H36.1802V17.807C37.4782 17.1094 38.3628 15.7401 38.3628 14.1684ZM34.2254 17.1262C32.5911 17.1262 31.2619 15.7993 31.2619 14.1684V12.338H37.189V14.1684C37.1887 15.7993 35.8595 17.1262 34.2254 17.1262ZM9.95806 12.338H12.0422C12.3666 12.338 12.6293 12.0755 12.6293 11.752C12.6293 11.4282 12.3666 11.1661 12.0422 11.1661H10.0966L11.1637 6.18074H16.2756L15.9249 11.1661H14.234C13.9099 11.1661 13.6469 11.4282 13.6469 11.752C13.6469 12.0755 13.9099 12.338 14.234 12.338H15.8852V14.1684V14.1687C15.8849 15.7996 14.5554 17.1262 12.9216 17.1262C11.2876 17.1262 9.95806 15.7993 9.95806 14.1684C9.95806 14.1681 9.95806 14.1678 9.95806 14.1675V12.338ZM28.8982 6.18074L29.951 11.1661H24.1209L23.7698 6.18074H28.8982ZM22.5929 6.18074L22.9436 11.1661H17.1018L17.4529 6.18074H22.5929ZM17.0593 12.338H22.9864V14.1684C22.9864 15.7993 21.6569 17.1262 20.0229 17.1262C18.3888 17.1262 17.0593 15.7993 17.0593 14.1684C17.0593 14.1681 17.0593 14.1678 17.0593 14.1675V12.338ZM24.1606 12.338H30.0874V14.1684C30.0874 15.7993 28.7582 17.1262 27.1242 17.1262C25.4898 17.1262 24.1606 15.7993 24.1606 14.1684V12.338ZM36.9474 11.1661H31.1509L30.0984 6.18074H35.0785C35.147 6.18074 35.2085 6.22407 35.2311 6.28847L36.9474 11.1661ZM5.94693 1.09375H34.0988C34.5991 1.09375 35.0061 1.49994 35.0061 1.99921V5.00855H29.3737C29.3725 5.00855 29.3713 5.00855 29.3701 5.00855H5.0397V1.99921C5.0397 1.49994 5.44668 1.09375 5.94693 1.09375ZM4.81434 6.28847C4.83697 6.22377 4.89843 6.18074 4.96692 6.18074H9.96295L8.89611 11.1661H3.09804L4.81434 6.28847ZM2.85679 14.1684V12.338H8.78389V14.1684V14.1687C8.78358 15.7996 7.45439 17.1262 5.82034 17.1262C4.18629 17.1262 2.85679 15.7993 2.85679 14.1684ZM35.0061 34.0635H30.476C30.1516 34.0635 29.889 34.3259 29.889 34.6494C29.889 34.9729 30.1516 35.2354 30.476 35.2354H35.5922H35.5931H35.5938H36.8254C37.0257 35.2354 37.1887 35.398 37.1887 35.5979V38.3875C37.1887 38.5874 37.0257 38.7501 36.8254 38.7501H3.22004C3.01976 38.7501 2.85679 38.5874 2.85679 38.3875V35.5979C2.85679 35.398 3.01976 35.2354 3.22004 35.2354H4.4517H4.45261H4.45323H28.2983C28.6224 35.2354 28.8854 34.9729 28.8854 34.6494C28.8854 34.3259 28.6224 34.0635 28.2983 34.0635H16.0698V20.7389C16.0698 19.9653 15.4393 19.336 14.6642 19.336H7.6192C6.84437 19.336 6.21356 19.9653 6.21356 20.7389V34.0635H5.03939V18.2233C5.29257 18.2718 5.5534 18.2981 5.82034 18.2981C7.32627 18.2981 8.64721 17.4906 9.37097 16.287C10.0947 17.4906 11.4154 18.2981 12.9216 18.2981C14.4275 18.2981 15.7482 17.4906 16.4719 16.287C17.196 17.4906 18.5166 18.2981 20.0226 18.2981C21.5288 18.2981 22.8494 17.4906 23.5732 16.287C24.2973 17.4906 25.6179 18.2981 27.1238 18.2981C28.6298 18.2981 29.9507 17.4906 30.6745 16.287C31.3982 17.4906 32.7192 18.2981 34.2251 18.2981C34.4921 18.2981 34.7529 18.2718 35.0058 18.2233V34.0635H35.0061ZM14.8957 34.0635H7.38804V20.7389C7.38804 20.6116 7.49169 20.5079 7.61951 20.5079H14.6645C14.792 20.5079 14.896 20.6113 14.896 20.7389V34.0635H14.8957Z" fill="#B796F5"/>
<path d="M32.427 19.3359H18.474C17.6992 19.3359 17.0684 19.9652 17.0684 20.7388V29.5206C17.0684 30.2942 17.6989 30.9235 18.474 30.9235H32.427C33.2022 30.9235 33.8327 30.2942 33.8327 29.5206V20.7388C33.8327 19.9652 33.2019 19.3359 32.427 19.3359ZM32.6585 29.5206C32.6585 29.6482 32.5545 29.7516 32.427 29.7516H18.474C18.3465 29.7516 18.2425 29.6482 18.2425 29.5206V20.7388C18.2425 20.6116 18.3465 20.5078 18.474 20.5078H32.427C32.5545 20.5078 32.6585 20.6113 32.6585 20.7388V29.5206Z" fill="#B796F5"/>
</g>
<defs>
<clipPath id="clip0_610_15092">
<rect width="40" height="40" fill="white"/>
</clipPath>
</defs>
</svg>
