<svg width="40" height="40" viewBox="0 0 40 40" fill="none" xmlns="http://www.w3.org/2000/svg">
<g clip-path="url(#clip0)">
<path d="M39.9527 2.98608C39.866 1.39718 38.6023 0.133662 37.0134 0.0469435C33.8073 -0.128213 27.5336 0.042178 21.5345 3.14507C18.4763 4.72694 15.242 7.4089 12.6608 10.5033C12.629 10.5414 12.598 10.5798 12.5665 10.618L6.70867 11.0705C5.74445 11.145 4.88562 11.6504 4.35234 12.4569L0.355937 18.5016C-0.0485157 19.1133 -0.112813 19.8789 0.183828 20.5494C0.480547 21.2201 1.09023 21.6874 1.81484 21.7997L6.75008 22.5641C6.73266 22.66 6.71516 22.7558 6.69914 22.8518C6.53484 23.8346 6.86047 24.8451 7.57031 25.5548L14.4447 32.4293C15.0332 33.0178 15.8284 33.3423 16.6433 33.3423C16.8111 33.3423 16.9798 33.3284 17.1478 33.3004C17.2437 33.2844 17.3396 33.2669 17.4355 33.2494L18.1999 38.1848C18.3122 38.9094 18.7795 39.5191 19.45 39.8158C19.729 39.9392 20.0242 40.0001 20.3181 40.0001C20.7309 40.0001 21.1407 39.8799 21.4979 39.6437L27.5426 35.6473C28.3492 35.1139 28.8545 34.2551 28.9289 33.2909L29.3814 27.4332C29.4196 27.4016 29.458 27.3707 29.4962 27.3389C32.5906 24.7577 35.2727 21.5233 36.8545 18.4651C39.9575 12.4658 40.1276 6.19194 39.9527 2.98608ZM26.25 33.6921L20.4679 37.515L19.7229 32.7052C22.1666 31.9867 24.5841 30.8359 26.8871 29.2943L26.5923 33.1103C26.574 33.3484 26.4491 33.5605 26.25 33.6921ZM16.102 30.772L9.2275 23.8976C9.05211 23.7221 8.97102 23.4756 9.01078 23.2382C9.21516 22.0161 9.53273 20.8527 9.92586 19.7568L20.2405 30.0715C18.9243 30.543 17.7453 30.8242 16.7613 30.9887C16.5235 31.0283 16.2773 30.9474 16.102 30.772ZM6.88922 13.4073L10.7052 13.1125C9.16344 15.4155 8.01266 17.833 7.29414 20.2767L2.48445 19.5318L6.30742 13.7496C6.43914 13.5504 6.65125 13.4256 6.88922 13.4073ZM27.9951 25.539C26.1019 27.1181 24.2641 28.2603 22.5702 29.0868L10.9123 17.4289C11.995 15.2176 13.3163 13.3763 14.4605 12.0046C16.8492 9.14093 19.8201 6.67054 22.6114 5.22679C28.1172 2.3789 33.918 2.22554 36.8859 2.3871C37.2787 2.40851 37.5911 2.72093 37.6125 3.11382C37.7743 6.08163 37.6206 11.8824 34.7727 17.3883C33.3291 20.1795 30.8587 23.1503 27.9951 25.539Z" fill="#B796F5"/>
<path d="M27.3997 18.457C28.8999 18.4568 30.4007 17.8857 31.5428 16.7436C32.6495 15.637 33.2589 14.1656 33.2589 12.6006C33.2589 11.0356 32.6494 9.56418 31.5428 8.45754C29.2583 6.17293 25.5411 6.17309 23.2567 8.45754C22.15 9.56418 21.5405 11.0356 21.5405 12.6006C21.5405 14.1656 22.1501 15.637 23.2567 16.7436C24.399 17.886 25.899 18.4571 27.3997 18.457ZM24.9138 10.1147C25.5991 9.42934 26.4994 9.08668 27.3996 9.08668C28.2999 9.08668 29.2001 9.42934 29.8855 10.1147C30.5494 10.7787 30.9151 11.6615 30.9151 12.6005C30.9151 13.5395 30.5494 14.4224 29.8855 15.0864C28.5148 16.4571 26.2844 16.457 24.9137 15.0864C24.2497 14.4224 23.884 13.5396 23.884 12.6006C23.884 11.6616 24.2498 10.7787 24.9138 10.1147Z" fill="#B796F5"/>
<path d="M1.19576 32.9638C1.49568 32.9638 1.79561 32.8494 2.02436 32.6205L5.85037 28.7945C6.30803 28.3368 6.30803 27.5948 5.85037 27.1372C5.39279 26.6795 4.65076 26.6795 4.19311 27.1372L0.367168 30.9632C-0.0904883 31.4209 -0.0904883 32.1628 0.367168 32.6205C0.595918 32.8493 0.89584 32.9638 1.19576 32.9638Z" fill="#B796F5"/>
<path d="M9.35629 30.643C8.89871 30.1854 8.15668 30.1854 7.69902 30.643L0.343242 37.9989C-0.114414 38.4566 -0.114414 39.1985 0.343242 39.6562C0.57207 39.885 0.871914 39.9994 1.17184 39.9994C1.47176 39.9994 1.77168 39.885 2.00043 39.6561L9.35621 32.3003C9.81394 31.8427 9.81394 31.1007 9.35629 30.643Z" fill="#B796F5"/>
<path d="M11.2054 34.1499L7.37937 37.9759C6.92172 38.4336 6.92172 39.1755 7.37937 39.6332C7.6082 39.862 7.90812 39.9765 8.20797 39.9765C8.50781 39.9765 8.80781 39.8621 9.03656 39.6332L12.8626 35.8072C13.3202 35.3495 13.3202 34.6075 12.8626 34.1499C12.405 33.6922 11.663 33.6922 11.2054 34.1499Z" fill="#B796F5"/>
</g>
<defs>
<clipPath id="clip0">
<rect width="40" height="40" fill="white"/>
</clipPath>
</defs>
</svg>
