<svg width="40" height="40" viewBox="0 0 40 40" fill="none" xmlns="http://www.w3.org/2000/svg">
<path d="M2.1393 24.5383C2.27 24.8926 2.47594 25.2115 2.73945 25.4728C3.20672 25.9401 3.84906 26.2302 4.55766 26.2302C5.26414 26.2302 5.90859 25.9401 6.37578 25.4728C6.84305 25.0056 7.13313 24.3612 7.13313 23.6547V22.2219C6.59063 22.2684 6.11445 22.151 5.74242 21.9959C5.70914 22.1576 5.67156 22.3148 5.62281 22.4698C5.43898 23.0677 5.13117 23.6126 4.64398 24.0045C4.15016 24.4032 3.49469 24.6335 2.62648 24.5891C2.47148 24.5825 2.30977 24.5648 2.1393 24.5383ZM17.3182 20.7005H22.4693V19.0816H18.503C18.1774 19.0816 17.8806 19.2167 17.6659 19.4315C17.451 19.6463 17.3182 19.9409 17.3182 20.2664V20.7005ZM22.4692 21.872H17.3181V23.6546C17.3181 24.3611 17.6082 25.0055 18.0755 25.4727C18.5427 25.94 19.1871 26.2301 19.8936 26.2301C20.6022 26.2301 21.2466 25.94 21.7118 25.4727C22.179 25.0055 22.4691 24.3611 22.4691 23.6546V21.872H22.4692ZM38.5251 25.7829C38.8395 25.949 39.1163 26.1749 39.3445 26.4428C39.7541 26.9256 40 27.5479 40 28.2233V32.1741C40 32.4974 39.7387 32.7587 39.4154 32.7587C39.0921 32.7587 38.8285 32.4973 38.8285 32.1741V28.2233C38.8285 27.8336 38.6867 27.4748 38.452 27.198C38.2438 26.9521 37.9626 26.7705 37.6415 26.6842C37.0237 27.1359 36.2639 27.4017 35.4446 27.4017C34.5965 27.4017 33.8124 27.1183 33.1813 26.6377C33.0617 26.651 32.9465 26.6843 32.8358 26.7352C32.6852 26.806 32.5479 26.9146 32.4371 27.0607L29.2902 31.2286C29.1795 31.3748 29.0067 31.4634 28.823 31.4634H24.7902C24.4913 31.4634 24.2211 31.5829 24.0263 31.7777C23.8313 31.9748 23.7095 32.245 23.7095 32.5418C23.7095 32.8407 23.8313 33.1109 24.0263 33.3058C24.2211 33.5006 24.4913 33.6225 24.7902 33.6225H29.6069C29.7997 33.6225 29.948 33.6026 30.1319 33.5095C30.4729 33.339 30.7918 32.8209 31.0243 32.5108L33.1083 29.7537C33.3031 29.4946 33.6685 29.4436 33.9276 29.6385C34.1845 29.8334 34.2354 30.2009 34.0405 30.4579L32.0585 33.0843V38.1911H38.8285V34.8271C38.8285 34.5037 39.092 34.2425 39.4154 34.2425C39.7388 34.2425 40 34.5038 40 34.8271V38.7779C40 39.1012 39.7387 39.3625 39.4154 39.3625C26.471 39.3625 13.529 39.3625 0.586875 39.3625C0.263594 39.3625 0 39.1012 0 38.7779V34.8271C0 34.5037 0.263594 34.2425 0.586875 34.2425C0.910234 34.2425 1.17148 34.5038 1.17148 34.8271V38.1911H7.94375V33.0843L5.95953 30.4579C5.76469 30.2009 5.81563 29.8334 6.07477 29.6385C6.33164 29.4436 6.69922 29.4945 6.89414 29.7537L8.93148 32.451C9.1175 32.6968 9.30359 32.9448 9.48953 33.1929C9.59578 33.3323 9.72648 33.4387 9.87047 33.5095C10.0321 33.5915 10.1827 33.6225 10.3599 33.6225H15.212C15.5088 33.6225 15.779 33.5006 15.976 33.3058C16.1709 33.1109 16.2905 32.8407 16.2905 32.5418C16.2905 32.245 16.1709 31.9748 15.976 31.7777C15.779 31.5829 15.5088 31.4634 15.212 31.4634H11.1771C10.9999 31.4634 10.825 31.3814 10.7099 31.2286L7.56297 27.0607C7.38352 26.8237 7.11555 26.671 6.81891 26.6377C6.18992 27.1161 5.40602 27.4017 4.55781 27.4017C3.73844 27.4017 2.97656 27.136 2.35875 26.6865C2.0443 26.7684 1.76523 26.9478 1.55703 27.187C1.31781 27.4659 1.17164 27.827 1.17164 28.2234V32.1741C1.17164 32.4975 0.910312 32.7588 0.587031 32.7588C0.26375 32.7588 0.00015625 32.4974 0.00015625 32.1741V28.2234C0.00015625 27.5391 0.254844 26.908 0.673359 26.423C0.899297 26.1639 1.17164 25.9446 1.47727 25.783C1.04102 25.1563 0.810703 24.4166 0.810703 23.6548V20.2665C0.810703 19.6176 1.07422 19.0285 1.50164 18.6012C1.92914 18.176 2.51594 17.9102 3.16477 17.9102H5.94844C6.59734 17.9102 7.18641 18.1759 7.61375 18.6012C8.04125 19.0286 8.30477 19.6177 8.30477 20.2665V23.6548C8.30477 24.4055 8.08109 25.1076 7.69789 25.6944C8.01461 25.8538 8.2825 26.073 8.49734 26.3566L11.4672 30.2896H13.8123V27.9134C13.8123 27.2402 14.1689 26.6312 14.7469 26.1152C15.1943 25.7166 15.7834 25.3688 16.4345 25.0943C16.2484 24.6491 16.1466 24.1641 16.1466 23.6548V21.2873V20.2664C16.1466 19.6175 16.4123 19.0284 16.8377 18.6011C17.2651 18.1759 17.8541 17.9102 18.503 17.9102H23.0561C23.3795 17.9102 23.643 18.1737 23.643 18.497V21.2874V23.6548C23.643 24.1353 23.5501 24.596 23.384 25.0212C24.0837 25.2958 24.7171 25.6501 25.1955 26.062C25.8089 26.5891 26.1877 27.218 26.1877 27.9134V30.2895H28.5328L31.5027 26.3565C31.722 26.0685 31.9965 25.8471 32.3044 25.6966C31.919 25.1075 31.6953 24.4055 31.6953 23.6547V20.2664C31.6953 19.6175 31.9611 19.0284 32.3863 18.6011C32.8138 18.1759 33.4028 17.9102 34.0516 17.9102H36.8355C37.4843 17.9102 38.0734 18.1759 38.5008 18.6011C38.9259 19.0285 39.1917 19.6176 39.1917 20.2664V23.6547C39.1916 24.4164 38.9591 25.1561 38.5251 25.7829ZM37.8607 24.5383C37.6924 24.5648 37.5285 24.5825 37.3735 24.5891C36.5076 24.6334 35.852 24.4031 35.3582 24.0045C34.8687 23.6126 34.5609 23.0678 34.3771 22.4698C34.3305 22.3148 34.2908 22.1576 34.2597 21.9959C33.8855 22.1509 33.4116 22.2683 32.8668 22.2219V23.6547C32.8668 24.3612 33.1569 25.0056 33.6241 25.4728C34.0913 25.9401 34.7359 26.2302 35.4445 26.2302C36.1509 26.2302 36.7955 25.9401 37.2627 25.4728C37.5241 25.2115 37.73 24.8926 37.8607 24.5383ZM32.8668 21.0481C33.6485 21.1588 34.2198 20.7048 34.3217 20.6163C34.437 20.5188 34.5454 20.4591 34.7027 20.4523C35.026 20.4369 35.2984 20.6849 35.3138 21.0082C35.3338 21.3891 35.3869 21.7745 35.4954 22.1266C35.615 22.5185 35.8032 22.864 36.089 23.0943C36.3702 23.3202 36.7667 23.4487 37.3181 23.422C37.5307 23.4109 37.7632 23.3778 38.0201 23.3202V20.2663C38.0201 19.9407 37.885 19.6462 37.6702 19.4313C37.4554 19.2166 37.1608 19.0814 36.8353 19.0814H34.0516C33.726 19.0814 33.4314 19.2166 33.2166 19.4313C33.0018 19.6462 32.8668 19.9407 32.8668 20.2663V21.0481ZM7.1332 21.0481V20.2663C7.1332 19.9408 7.00039 19.6462 6.78555 19.4314C6.57078 19.2166 6.27398 19.0815 5.94844 19.0815H3.16461C2.84133 19.0815 2.54453 19.2166 2.32969 19.4314C2.11492 19.6462 1.98203 19.9408 1.98203 20.2663V23.3202C2.23672 23.3778 2.46922 23.411 2.68187 23.4221C3.23336 23.4488 3.62977 23.3202 3.91094 23.0944C4.19664 22.8641 4.38484 22.5186 4.50672 22.1266C4.61523 21.7745 4.66836 21.3892 4.68609 21.0083C4.70156 20.6849 4.97617 20.437 5.29727 20.4524C5.44789 20.4591 5.56297 20.5145 5.67375 20.6119C5.75578 20.6849 6.33602 21.161 7.1332 21.0481ZM17.0613 26.1018C16.45 26.3388 15.9097 26.6399 15.5243 26.9855C15.1899 27.2822 14.9839 27.6011 14.9839 27.9134V30.2895H15.212C15.8322 30.2895 16.3969 30.542 16.8044 30.9495C17.2119 31.357 17.4643 31.9195 17.4643 32.5418C17.4643 32.9338 17.3624 33.3014 17.1875 33.6225H22.8125C22.6376 33.3014 22.5379 32.9338 22.5379 32.5418C22.5379 31.9195 22.7903 31.357 23.1979 30.9495C23.6054 30.542 24.1678 30.2895 24.7902 30.2895H25.0161V27.9134C25.0161 27.59 24.7946 27.2578 24.4359 26.95C24.0151 26.5891 23.4304 26.2768 22.7793 26.0398C22.704 26.1306 22.6243 26.2192 22.5423 26.3012C21.8625 26.981 20.9257 27.4018 19.8937 27.4018C18.8639 27.4018 17.925 26.981 17.2473 26.3012C17.183 26.2368 17.121 26.1705 17.0613 26.1018ZM4.8832 4.97695C4.55984 4.97695 4.29859 4.71344 4.29859 4.39008C4.29859 4.06672 4.55992 3.80547 4.8832 3.80547H15.7302C16.0536 3.80547 16.3149 4.0668 16.3149 4.39008C16.3149 4.71344 16.0535 4.97695 15.7302 4.97695H4.8832ZM4.8832 11.1423C4.55984 11.1423 4.29859 10.8788 4.29859 10.5555C4.29859 10.2321 4.55992 9.96859 4.8832 9.96859H10.3068C10.6302 9.96859 10.8937 10.2321 10.8937 10.5555C10.8937 10.8788 10.6302 11.1423 10.3068 11.1423H4.8832ZM4.8832 8.05969C4.55984 8.05969 4.29859 7.79609 4.29859 7.47281C4.29859 7.14945 4.55992 6.8882 4.8832 6.8882H15.7302C16.0536 6.8882 16.3149 7.14953 16.3149 7.47281C16.3149 7.79609 16.0535 8.05969 15.7302 8.05969H4.8832ZM16.3304 14.307C16.4123 14.5351 16.543 14.7387 16.7091 14.9048C17.0059 15.2038 17.4178 15.3898 17.8762 15.3898H21.3198C21.6432 15.3898 21.9045 15.6512 21.9045 15.9767C21.9045 16.3001 21.6431 16.5613 21.3198 16.5613H17.8762C17.0945 16.5613 16.3902 16.2425 15.8808 15.7287C15.4999 15.3456 15.2297 14.854 15.1145 14.307H6.945L4.29195 16.96C4.1857 17.0663 4.03953 17.1327 3.87563 17.1327C3.55227 17.1327 3.28875 16.8714 3.28875 16.5481V14.2583C2.54461 14.1342 1.87797 13.7777 1.36648 13.2639C0.722031 12.6216 0.323437 11.7336 0.323437 10.7548V4.19086C0.323437 3.21422 0.722109 2.32617 1.36648 1.6818C2.00867 1.03953 2.89672 0.638672 3.87563 0.638672H16.738C17.7168 0.638672 18.6049 1.03953 19.2471 1.6818C19.8916 2.32617 20.2902 3.21422 20.2902 4.19086V5.27602H30.2427C31.0199 5.27602 31.7242 5.59273 32.2358 6.1043C32.7473 6.61586 33.0641 7.32008 33.0641 8.09742V13.7402C33.0641 14.5175 32.7473 15.2217 32.2358 15.7333C31.857 16.112 31.3699 16.3844 30.8273 16.4996V18.8027C30.8273 18.9511 30.772 19.1016 30.6568 19.2169C30.4287 19.4449 30.0566 19.4449 29.8284 19.2169L27.1732 16.5616H23.9731C23.6498 16.5616 23.3862 16.3002 23.3862 15.977C23.3862 15.6514 23.6498 15.3901 23.9731 15.3901H27.4168C27.5807 15.3901 27.7268 15.4566 27.8331 15.565L29.6557 17.3876V15.9769C29.6557 15.6513 29.9192 15.39 30.2427 15.39C30.6944 15.39 31.1085 15.204 31.4075 14.905C31.7065 14.6061 31.8925 14.1941 31.8925 13.7402V8.09742C31.8925 7.64344 31.7065 7.23156 31.4075 6.93258C31.1085 6.63359 30.6944 6.44758 30.2427 6.44758H20.2901V10.7549C20.2901 11.7338 19.8915 12.6218 19.247 13.2641C18.6048 13.9084 17.7167 14.3071 16.738 14.3071H16.3304V14.307ZM6.70133 13.1355H16.738C17.3935 13.1355 17.987 12.8675 18.4188 12.4357C18.8506 12.0038 19.1186 11.4081 19.1186 10.7548V4.19086C19.1186 3.53758 18.8506 2.94187 18.4188 2.51C17.987 2.07812 17.3935 1.81016 16.738 1.81016H3.87555C3.22 1.81016 2.62648 2.07812 2.19461 2.51C1.76281 2.9418 1.49477 3.5375 1.49477 4.19086V10.7548C1.49477 11.4081 1.76281 12.0038 2.19461 12.4358C2.62641 12.8676 3.22 13.1355 3.87555 13.1355C4.19891 13.1355 4.46016 13.3991 4.46016 13.7224V15.1331L6.28719 13.3084C6.40242 13.193 6.55078 13.1355 6.70133 13.1355ZM30.887 34.7939H9.11531V38.191H30.887V34.7939H30.887Z" fill="#B796F5"/>
</svg>
