<svg width="80" height="80" viewBox="0 0 80 80" fill="none" xmlns="http://www.w3.org/2000/svg">
<path d="M35.7476 38.3609C36.7437 37.8599 37.4967 37.3018 38.0128 36.6988C38.9309 35.6127 39.3839 34.1726 39.3839 32.3874C39.3839 30.6503 38.9309 29.1652 38.0248 27.9201C36.5127 25.8919 33.9535 24.8538 30.3352 24.7998H16V54.0612H29.3661C30.8722 54.0612 32.2673 53.9322 33.5574 53.6681C34.8475 53.4011 35.9636 52.9121 36.9087 52.198C37.7488 51.577 38.4508 50.8059 39.0089 49.8968C39.8909 48.5227 40.332 46.9656 40.332 45.2315C40.332 43.5513 39.9449 42.1202 39.1769 40.9441C38.3998 39.768 37.2597 38.9069 35.7476 38.3609ZM21.9135 29.8822H28.37C29.7891 29.8822 30.9592 30.0352 31.8773 30.3383C32.9394 30.7793 33.4704 31.6764 33.4704 33.0445C33.4704 34.2716 33.0654 35.1296 32.2643 35.6127C31.4573 36.0957 30.4102 36.3387 29.1261 36.3387H21.9135V29.8822ZM32.1233 48.4687C31.4092 48.8138 30.4042 48.9848 29.1171 48.9848H21.9135V41.1811H29.2161C30.4882 41.1901 31.4783 41.3581 32.1863 41.6732C33.4464 42.2432 34.0735 43.2873 34.0735 44.8144C34.0735 46.6146 33.4254 47.8267 32.1233 48.4687Z" fill="white"/>
<path d="M59.3863 26.165H46.6743V29.8073H59.3863V26.165Z" fill="white"/>
<path d="M63.803 40.5393C63.539 38.8442 62.9569 37.3531 62.0508 36.0659C61.0578 34.6078 59.7977 33.5397 58.2645 32.8647C56.7374 32.1866 55.0183 31.8476 53.1041 31.8506C49.8909 31.8506 47.2806 32.8557 45.2615 34.8508C43.2483 36.852 42.2402 39.7292 42.2402 43.4795C42.2402 47.4789 43.3533 50.3681 45.5915 52.1413C47.8207 53.9174 50.3949 54.8025 53.3171 54.8025C56.8544 54.8025 59.6056 53.7494 61.5708 51.6492C62.8279 50.3231 63.539 49.018 63.695 47.7369H57.8385C57.4995 48.3699 57.1064 48.865 56.6564 49.225C55.8403 49.8851 54.7783 50.2151 53.4761 50.2151C52.237 50.2151 51.187 49.9421 50.3109 49.399C48.8648 48.529 48.1087 47.0048 48.0127 44.8357H63.995C64.019 42.9665 63.959 41.5294 63.803 40.5393ZM48.1567 41.1004C48.3667 39.6932 48.8768 38.5772 49.6868 37.7521C50.4969 36.93 51.643 36.516 53.1101 36.513C54.4632 36.513 55.5943 36.9 56.5154 37.6771C57.4245 38.4601 57.9375 39.5972 58.0425 41.1004H48.1567Z" fill="white"/>
<rect x="1" y="1" width="78" height="78" rx="9" stroke="white" stroke-width="2"/>
</svg>
