<svg width="80" height="80" viewBox="0 0 80 80" fill="none" xmlns="http://www.w3.org/2000/svg">
<g clip-path="url(#clip0)">
<path d="M20.478 53.935L20.4312 53.9921L21.4702 55.265C21.7593 55.619 22.0581 55.9628 22.3618 56.289C22.5181 56.4569 22.6748 56.6239 22.7881 56.7269L22.8853 56.8231C23.1411 57.079 23.3979 57.3349 23.6709 57.598C23.896 57.8119 24.1309 58.017 24.394 58.244L24.5 58.331C24.583 58.393 24.6611 58.4579 24.7412 58.5248L24.894 58.6508C25.2261 58.9262 25.5581 59.1781 25.8501 59.3808C26.2339 59.6688 26.6553 59.956 27.1318 60.2592L27.082 60.2792L27.4902 60.4828C27.6289 60.5678 27.7661 60.6527 27.916 60.7421C28.3379 60.9867 28.7612 61.2191 29.1353 61.3998C29.2803 61.476 29.4351 61.5531 29.5898 61.6288L29.877 61.768C30.0469 61.8451 30.2192 61.911 30.3892 61.9857C30.5571 62.06 30.7261 62.1317 30.897 62.203C30.9668 62.2318 31.0352 62.2641 31.105 62.2919L31.5151 62.5209H31.688C31.689 62.5209 31.6909 62.5219 31.6919 62.5219L32.0132 62.643L32.0239 62.6381C32.1182 62.6708 32.2119 62.706 32.3052 62.7367C32.416 62.7738 32.5303 62.806 32.6421 62.8422C32.791 62.89 32.9399 62.9369 33.0898 62.9818C33.1328 62.995 33.1748 63.0102 33.2183 63.0219C33.3198 63.059 33.3901 63.0761 33.4009 63.078C33.5972 63.1361 33.7871 63.1859 33.9683 63.2318C34.0479 63.2528 34.1289 63.2699 34.209 63.2899C34.2319 63.2948 34.2612 63.3031 34.2842 63.308C34.2939 63.3109 34.3042 63.3119 34.314 63.3139C35.002 63.4818 35.7002 63.6239 36.4092 63.7309C36.459 63.7392 36.5093 63.7499 36.5591 63.7577L36.8242 63.7909C36.9722 63.809 37.1191 63.8241 37.2671 63.8407C37.3989 63.8559 37.5288 63.8729 37.6621 63.8852C37.6812 63.8871 37.7012 63.89 37.7212 63.892C38.064 63.9237 38.4028 63.954 38.707 63.9647C39.1362 63.9882 39.5659 64.0009 40 64.0009C40.3599 64.0009 40.707 63.9911 41.043 63.975C41.1821 63.9691 41.3188 63.9608 41.457 63.953C41.729 63.9379 42.0122 63.9159 42.3091 63.8881C42.3828 63.8808 42.457 63.8749 42.5312 63.8671C42.5869 63.8607 42.6362 63.8578 42.6948 63.851L43.0581 63.808C43.3672 63.7728 43.689 63.725 43.9209 63.6791C44.001 63.6669 44.0811 63.6459 44.1611 63.6327C44.4492 63.5819 44.7368 63.5302 45.021 63.4691C45.0239 63.4682 45.0278 63.4682 45.0312 63.4672C45.2549 63.4237 45.4858 63.371 45.6948 63.3212C45.791 63.2987 45.8853 63.2709 45.981 63.246C45.9868 63.244 45.9941 63.2431 46 63.2411C46.1509 63.202 46.3022 63.1649 46.4502 63.1239L46.9082 62.9931C46.9858 62.9691 47.0498 62.9462 47.126 62.9208C47.1289 62.9198 47.1309 62.9188 47.1343 62.9179C47.3369 62.8539 47.543 62.789 47.7168 62.7269L48.0488 62.6229C48.4448 62.4789 48.8408 62.3251 49.1919 62.1752C49.2368 62.1571 49.2812 62.1342 49.3271 62.1151C49.3389 62.1098 49.3501 62.1039 49.3618 62.099C49.708 61.954 50.0542 61.8002 50.3911 61.641C50.7871 61.454 51.1709 61.247 51.5513 61.0399C51.8892 60.8568 52.209 60.6659 52.5278 60.473L52.8999 60.2431C53.1519 60.078 53.3979 59.9169 53.644 59.7431C53.7529 59.6727 53.8701 59.5941 53.959 59.5258C54.189 59.3578 54.4199 59.1879 54.646 59.0131L54.8511 58.8588C55.1621 58.6132 55.4722 58.3559 55.771 58.1L56.0542 57.8568L56.0679 57.831C56.2969 57.6249 56.522 57.4081 56.7559 57.183C57.062 56.8891 57.3662 56.5731 57.6631 56.2538C57.957 55.9379 58.2422 55.6098 58.5151 55.2831L59.5781 54.0067L59.52 53.9369C62.3359 50.0038 64 45.1937 64 40.0009C64 34.808 62.3359 29.9979 59.522 26.0658L59.5801 25.996L58.5171 24.7201C58.2451 24.393 57.959 24.0658 57.6631 23.746C57.376 23.4389 57.0811 23.142 56.7432 22.8061C56.519 22.5922 56.2969 22.3778 56.0688 22.1718L55.772 21.9027C55.4731 21.6469 55.1631 21.3891 54.8521 21.1439L54.647 20.9901C54.4219 20.8148 54.1948 20.6479 53.98 20.4911C53.873 20.411 53.7549 20.331 53.645 20.2611C53.3989 20.0868 53.1528 19.9262 52.9009 19.7611L52.5708 19.5448L52.5288 19.5312C52.2109 19.3378 51.8901 19.1469 51.5562 18.9657C51.1719 18.7567 50.7871 18.5487 50.3921 18.3632C49.999 18.1771 49.5952 17.9931 49.228 17.8441C48.8418 17.6781 48.4473 17.5238 48.0498 17.3808L47.7559 17.2899C47.4771 17.1898 47.1982 17.101 46.8672 16.9989L46.4448 16.8778C46.2231 16.8148 45.9902 16.7519 45.7568 16.6972L45.48 16.6298C45.3481 16.6 45.2119 16.5687 45.082 16.5438L44.8892 16.4809H44.792C44.5771 16.433 44.356 16.392 44.1372 16.3559L43.9971 16.3358C43.688 16.2768 43.3662 16.2289 43.1143 16.2011L42.6201 16.142C42.5752 16.1371 42.5312 16.1342 42.4858 16.1298C42.4492 16.1259 42.4111 16.1229 42.374 16.12C42.0552 16.0897 41.7402 16.0648 41.4482 16.0487C41.3208 16.0409 41.1929 16.0341 41.0649 16.0277C40.3013 15.9892 39.5049 15.994 38.834 16.0312C38.623 16.0409 38.4131 16.06 38.2031 16.0761C38.043 16.0888 37.8828 16.0951 37.7241 16.1107C37.707 16.1132 37.689 16.1151 37.6719 16.1171C37.5249 16.1308 37.3799 16.1498 37.2339 16.1669C37.0859 16.184 36.939 16.1981 36.791 16.2172L36.5791 16.2411C36.5249 16.2489 36.4683 16.2611 36.4141 16.2699C35.9053 16.3471 35.4028 16.4428 34.9053 16.5512L34.8853 16.5551C34.709 16.5878 34.5439 16.6278 34.3472 16.6791C34.2871 16.6918 34.229 16.7079 34.1689 16.7221C34.105 16.7382 34.041 16.7519 33.978 16.768C33.7949 16.8139 33.6191 16.8598 33.4692 16.9052C33.4199 16.9179 33.334 16.9398 33.2261 16.9779L33.1782 16.9911C32.8652 17.0761 32.563 17.1718 32.312 17.2631C32.2158 17.2948 32.1221 17.33 32.0259 17.3632L32.0142 17.3578L31.6709 17.4867C31.6689 17.4882 31.667 17.4882 31.665 17.4892L31.479 17.4931L30.8071 17.8339C30.667 17.892 30.5288 17.954 30.3901 18.015C30.2202 18.0897 30.0469 18.1571 29.8779 18.2328L29.5908 18.372C29.436 18.4491 29.2803 18.5248 29.21 18.5648C28.9551 18.6859 28.7012 18.8187 28.5103 18.9301C28.3462 19.017 28.1738 19.1107 28.0078 19.2069L27.5303 19.4931C27.521 19.4979 27.5122 19.5038 27.5039 19.5102L27.083 19.723L27.1318 19.7421C27.0552 19.7909 26.9761 19.8378 26.8989 19.8881L26.6982 20.0238L26.6919 20.0302C26.415 20.2138 26.1528 20.3979 25.9438 20.5541C25.8818 20.5951 25.8198 20.64 25.7241 20.7108C25.498 20.869 25.2749 21.036 25.0591 21.2211C25 21.266 24.9502 21.3051 24.9102 21.3378L24.4312 21.7338C24.1738 21.9447 23.915 22.1688 23.6353 22.4369L23.3311 22.7318C23.1362 22.9062 22.9512 23.0897 22.7671 23.2929C22.626 23.4281 22.4951 23.5678 22.3682 23.706C22.0571 24.039 21.7593 24.3827 21.4702 24.7367L20.4312 26.0102L20.478 26.0668C17.6631 29.9989 16 34.808 16 40.0009C16 45.1937 17.6631 50.0028 20.478 53.935ZM38.0142 20.102C38.668 20.037 39.3301 20.0009 40 20.0009C41.3618 20.0009 42.6919 20.14 43.978 20.4008C44.001 20.4062 44.0249 20.4091 44.0469 20.4149L44.2812 20.4921H44.3481C48.187 21.3471 51.6108 23.3021 54.272 26.017C52.0513 28.2689 49.312 29.977 46.3271 30.977L46.311 30.9262L46.228 30.952C46.2021 30.8881 46.1689 30.8261 46.1421 30.7621C45.9849 30.3881 45.8179 30.0189 45.6421 29.6527C45.582 29.5277 45.5249 29.4008 45.4619 29.2768C45.2222 28.8012 44.9692 28.3319 44.6992 27.8729C44.6582 27.8031 44.6118 27.7357 44.5698 27.6669C44.3359 27.2792 44.0908 26.8988 43.8359 26.5248C43.7432 26.3891 43.6479 26.2558 43.5522 26.122C43.3242 25.8021 43.0879 25.4892 42.8452 25.1811C42.751 25.0619 42.6592 24.9408 42.563 24.8241C42.2271 24.414 41.8799 24.0121 41.5181 23.6249C41.4829 23.5878 41.4458 23.5531 41.4102 23.516C41.0791 23.1669 40.7368 22.829 40.3872 22.4999C40.2671 22.3871 40.145 22.2777 40.022 22.1679C39.7349 21.9091 39.4419 21.6581 39.1431 21.413C39.0181 21.3109 38.894 21.2069 38.7671 21.1068C38.356 20.7841 37.937 20.4701 37.5049 20.1737C37.6309 20.1581 37.7529 20.1298 37.8799 20.1171C37.9248 20.1117 37.9692 20.1059 38.0142 20.102ZM44.0918 59.577C44.0542 59.5858 44.0142 59.5932 43.9761 59.6019C43.3452 59.7299 42.7051 59.829 42.0542 59.8959C42.0439 59.8969 42.0332 59.8978 42.0229 59.8988C41.3579 59.9657 40.6831 60.0009 40 60.0009C39.3281 60.0009 38.6641 59.9647 38.0093 59.8998C37.9683 59.8959 37.9263 59.891 37.8853 59.8861C37.7559 59.872 37.6328 59.8441 37.5049 59.828C37.937 59.5321 38.356 59.2182 38.7671 58.8949C38.894 58.7948 39.0181 58.6908 39.1431 58.5888C39.4419 58.3441 39.7349 58.0932 40.022 57.8339C40.144 57.724 40.2671 57.6151 40.3872 57.5019C40.7383 57.1727 41.0801 56.8349 41.4102 56.4857C41.4448 56.4491 41.4829 56.414 41.5181 56.3769C41.8799 55.9901 42.2261 55.5878 42.563 55.1781C42.6592 55.0609 42.751 54.9398 42.8452 54.8212C43.0879 54.5131 43.3242 54.1991 43.5522 53.8798C43.6479 53.746 43.7432 53.6117 43.8359 53.4769C44.0908 53.1029 44.3359 52.723 44.5698 52.3349C44.6118 52.266 44.6582 52.1981 44.6992 52.1288C44.9702 51.6698 45.2222 51.202 45.4619 50.725C45.5249 50.601 45.582 50.474 45.6421 50.349C45.8179 49.9838 45.9849 49.6151 46.1421 49.2401C46.1689 49.1762 46.2012 49.1142 46.228 49.0502L46.311 49.0761L46.3271 49.0248C49.312 50.0248 52.0513 51.7328 54.272 53.9848C51.5522 56.7621 48.0361 58.7528 44.0918 59.577ZM42.2329 48.2138C42.0171 48.6898 41.7788 49.1552 41.5269 49.6107C41.478 49.7001 41.4302 49.7909 41.3799 49.8788C41.1152 50.3407 40.832 50.7919 40.5312 51.2309C40.4702 51.3212 40.4062 51.4091 40.3433 51.497C40.0259 51.9462 39.6958 52.3861 39.3433 52.807C39.334 52.8168 39.3252 52.827 39.3159 52.8378C38.9658 53.2538 38.5962 53.6518 38.2139 54.038C38.1431 54.1098 38.0732 54.183 38.001 54.2538C37.6191 54.6298 37.2222 54.9901 36.811 55.3349C36.7339 55.3998 36.6538 55.4628 36.5762 55.5258C36.146 55.8759 35.7061 56.2138 35.248 56.5277C35.2461 56.5292 35.2441 56.5311 35.2422 56.5321C34.7832 56.8461 34.3062 57.1361 33.8223 57.411C33.7319 57.4618 33.6431 57.5141 33.5532 57.5639C33.0791 57.8241 32.5942 58.0648 32.0991 58.286C32.0698 58.2987 32.04 58.3109 32.0112 58.3241C31.52 58.1088 31.0371 57.8798 30.5679 57.6278C30.5122 57.598 30.4561 57.5678 30.4009 57.538C28.6709 56.5868 27.1001 55.3852 25.728 53.9848C30.0142 49.6278 36.1108 47.434 42.2749 48.1308C42.2612 48.1581 42.2461 48.1859 42.2329 48.2138ZM28.7998 23.4398C28.814 23.4311 28.8281 23.4208 28.8418 23.411C29.8369 22.7401 30.8989 22.164 32.0103 21.6771C32.041 21.6908 32.0742 21.703 32.105 21.7172C32.5972 21.9369 33.0791 22.1762 33.5498 22.434C33.6431 22.4848 33.7339 22.538 33.8271 22.5907C34.3101 22.8661 34.7852 23.1542 35.2432 23.4672C35.2461 23.4691 35.249 23.4721 35.2529 23.474C35.71 23.787 36.1489 24.1239 36.5771 24.473C36.6562 24.537 36.7349 24.6 36.813 24.6649C37.2241 25.0102 37.6211 25.37 38.0029 25.746C38.0752 25.8158 38.144 25.8891 38.2148 25.9608C38.5981 26.348 38.9692 26.747 39.3188 27.163C39.3271 27.1728 39.3359 27.182 39.3452 27.1918C39.6982 27.6142 40.0278 28.0541 40.3462 28.5028C40.4082 28.5907 40.4722 28.6791 40.5332 28.768C40.833 29.2069 41.1172 29.6581 41.3818 30.121C41.4331 30.2099 41.48 30.3002 41.5288 30.3891C41.7812 30.8461 42.019 31.31 42.2349 31.786C42.248 31.8139 42.2622 31.8407 42.2749 31.87C36.1089 32.5712 30.0142 30.372 25.728 26.015C26.6631 25.0609 27.689 24.1937 28.7998 23.4398ZM40 36.0009C41.1782 36.0009 42.3599 35.9042 43.5342 35.7309C43.8389 37.1288 44 38.558 44 40.0009C44 41.4437 43.8389 42.8729 43.5342 44.2709C42.3599 44.098 41.1782 44.0009 40 44.0009C33.6792 44.0009 27.6919 46.4682 23.2168 50.8407C21.1899 47.7138 20 43.997 20 40.0009C20 36.0048 21.1899 32.288 23.2168 29.161C27.6919 33.5341 33.6792 36.0009 40 36.0009ZM56.7739 50.8559C54.1538 48.3041 50.978 46.3578 47.519 45.2118L47.5532 45.1039L47.4492 45.08C47.8081 43.4169 48 41.7172 48 40.0009C48 38.2851 47.8081 36.5849 47.4492 34.9208L47.5532 34.8969L47.519 34.789C50.978 33.643 54.1538 31.6972 56.7739 29.1449C58.8062 32.2758 60 35.9989 60 40.0009C60 44.0028 58.8062 47.726 56.7739 50.8559Z" fill="white"/>
</g>
<rect x="1" y="1" width="78" height="78" rx="9" stroke="white" stroke-width="2"/>
<defs>
<clipPath id="clip0">
<rect width="48" height="48" fill="white" transform="translate(16 16)"/>
</clipPath>
</defs>
</svg>
