<svg width="80" height="80" viewBox="0 0 80 80" fill="none" xmlns="http://www.w3.org/2000/svg">
<path d="M50.7535 16H29.246C21.9422 16 16 21.9424 16 29.2463V50.7537C16 58.0578 21.9422 64 29.246 64H50.7535C58.0578 64 64 58.0576 64 50.7537V29.2463C64.0003 21.9424 58.0578 16 50.7535 16ZM59.7415 50.7537C59.7415 55.7095 55.7095 59.7412 50.7537 59.7412H29.246C24.2904 59.7415 20.2588 55.7095 20.2588 50.7537V29.2463C20.2588 24.2907 24.2904 20.2588 29.246 20.2588H50.7535C55.7093 20.2588 59.7412 24.2907 59.7412 29.2463V50.7537H59.7415Z" fill="white"/>
<path d="M40.0002 27.6323C33.1802 27.6323 27.6318 33.1807 27.6318 40.0007C27.6318 46.8205 33.1802 52.3685 40.0002 52.3685C46.8202 52.3685 52.3686 46.8205 52.3686 40.0007C52.3686 33.1807 46.8202 27.6323 40.0002 27.6323ZM40.0002 48.1094C35.5288 48.1094 31.8906 44.4719 31.8906 40.0004C31.8906 35.5287 35.5285 31.8908 40.0002 31.8908C44.472 31.8908 48.1098 35.5287 48.1098 40.0004C48.1098 44.4719 44.4717 48.1094 40.0002 48.1094Z" fill="white"/>
<path d="M52.8873 24.021C52.0667 24.021 51.2607 24.3532 50.6812 24.9352C50.0989 25.5144 49.7642 26.3207 49.7642 27.1441C49.7642 27.9649 50.0992 28.771 50.6812 29.353C51.2604 29.9322 52.0667 30.2672 52.8873 30.2672C53.7106 30.2672 54.5141 29.9322 55.0962 29.353C55.6782 28.771 56.0104 27.9646 56.0104 27.1441C56.0104 26.3207 55.6782 25.5144 55.0962 24.9352C54.517 24.3532 53.7106 24.021 52.8873 24.021Z" fill="white"/>
<rect x="1" y="1" width="78" height="78" rx="9" stroke="white" stroke-width="2"/>
</svg>
