<svg width="80" height="80" viewBox="0 0 80 80" fill="none" xmlns="http://www.w3.org/2000/svg">
<g clip-path="url(#clip0)">
<path d="M51.0625 64C48.4514 64 45.9696 63.2397 43.832 61.7925C36.9066 63.0032 29.6351 60.9246 24.3551 55.6449C19.0776 50.3671 16.9965 43.0963 18.2075 36.168C16.7603 34.0304 16 31.5486 16 28.9375C16 21.8037 21.8037 16 28.9375 16C31.5486 16 34.0304 16.7603 36.168 18.2075C51.2643 15.5686 64.4413 28.6808 61.7925 43.832C63.2397 45.9696 64 48.4514 64 51.0625C64 58.1963 58.1963 64 51.0625 64ZM45.425 58.3171C47.0496 59.5817 48.9989 60.25 51.0625 60.25C56.1283 60.25 60.25 56.1287 60.25 51.0625C60.25 48.9989 59.5817 47.0496 58.3171 45.425C57.9766 44.9874 57.8469 44.4216 57.9637 43.8796C60.7748 30.7931 49.1161 19.2443 36.1204 22.0363C35.5787 22.1527 35.0126 22.0234 34.575 21.6829C32.9504 20.4183 31.0011 19.75 28.9375 19.75C23.8717 19.75 19.75 23.8713 19.75 28.9375C19.75 31.0011 20.4183 32.9504 21.6829 34.575C22.0234 35.0126 22.1531 35.5784 22.0363 36.1204C19.2314 49.1776 30.8535 60.762 43.8796 57.9637C44.4191 57.8477 44.9856 57.9751 45.425 58.3171ZM49.2501 45.5312C49.2501 40.468 42.8491 38.9204 41.4165 38.4806C38.4487 37.5698 34.4999 36.5543 34.4999 34.4688C34.4999 32.4868 37.0187 30.8125 40 30.8125C42.3719 30.8125 44.5344 31.8866 45.2592 33.4243C45.7008 34.3607 46.8181 34.7625 47.7549 34.3208C48.6913 33.8792 49.0927 32.7622 48.6514 31.8254C47.1759 28.6954 43.5068 27.0625 40 27.0625C34.5442 27.0625 30.7499 30.6104 30.7499 34.4688C30.7499 39.532 37.1509 41.0796 38.5835 41.5194C41.5513 42.4302 45.5001 43.4457 45.5001 45.5312C45.5001 47.5132 42.9813 49.1875 40 49.1875C37.6281 49.1875 35.4656 48.1134 34.7408 46.5757C34.2992 45.6393 33.1819 45.2375 32.2451 45.6792C31.3087 46.1208 30.9073 47.2378 31.3486 48.1746C32.8241 51.3046 36.4932 52.9375 40 52.9375C45.4558 52.9375 49.2501 49.3896 49.2501 45.5312Z" fill="white"/>
</g>
<rect x="1" y="1" width="78" height="78" rx="9" stroke="white" stroke-width="2"/>
<defs>
<clipPath id="clip0">
<rect width="48" height="48" fill="white" transform="translate(16 16)"/>
</clipPath>
</defs>
</svg>
