<svg width="80" height="80" viewBox="0 0 80 80" fill="none" xmlns="http://www.w3.org/2000/svg">
<g clip-path="url(#clip0)">
<path d="M34.8339 46.3618L34.0399 57.5298C35.1759 57.5298 35.6679 57.0418 36.2579 56.4558L41.5839 51.3658L52.6199 59.4478C54.6439 60.5758 56.0699 59.9818 56.6159 57.5858L63.8599 23.6418L63.8619 23.6398C64.5039 20.6478 62.7799 19.4778 60.8079 20.2118L18.2279 36.5138C15.3219 37.6418 15.3659 39.2618 17.7339 39.9958L28.6199 43.3818L53.9059 27.5598C55.0959 26.7718 56.1779 27.2078 55.2879 27.9958L34.8339 46.3618Z" fill="white"/>
</g>
<rect x="1" y="1" width="78" height="78" rx="9" stroke="white" stroke-width="2"/>
<defs>
<clipPath id="clip0">
<rect width="48" height="48" fill="white" transform="translate(16 16)"/>
</clipPath>
</defs>
</svg>
