<svg width="80" height="80" viewBox="0 0 80 80" fill="none" xmlns="http://www.w3.org/2000/svg">
<g clip-path="url(#clip0)">
<path d="M62.3102 43.7861C63.7422 31.7321 61.6222 24.1221 57.7982 20.68L57.8002 20.678C51.6282 14.8 30.7842 13.93 23.4002 20.942C20.0842 24.3721 18.9162 29.4061 18.7882 35.6381C18.6602 41.8721 18.5082 53.5501 29.3902 56.7181H29.4002L29.3902 61.5561C29.3902 61.5561 29.3162 63.5161 30.5682 63.9101C32.0002 64.3741 32.6482 63.4641 37.1022 58.1441C44.5502 58.7901 50.2702 57.3101 50.9202 57.0941C52.4242 56.5901 60.9342 55.4641 62.3102 43.7861ZM37.8362 54.7401C37.8362 54.7401 33.1222 60.6181 31.6562 62.1441C31.1762 62.6401 30.6502 62.5941 30.6582 61.6101C30.6582 60.9641 30.6942 53.5781 30.6942 53.5781C21.4682 50.9341 22.0122 40.9901 22.1122 35.7881C22.2122 30.5841 23.1642 26.3221 25.9722 23.4521C32.4502 17.378 50.7242 18.736 55.3802 23.1121C61.0722 28.1581 59.0462 42.4141 59.0582 42.9001C57.8882 52.6481 50.9922 53.2661 49.7242 53.6881C49.1822 53.8681 44.1522 55.1621 37.8362 54.7401Z" fill="white"/>
<path d="M40.4442 24.5938C39.6742 24.5938 39.6742 25.7938 40.4442 25.8038C46.4182 25.8498 51.3382 30.0138 51.3922 37.6518C51.3922 38.4578 52.5722 38.4478 52.5622 37.6418H52.5602C52.4962 29.4118 47.1242 24.6398 40.4442 24.5938Z" fill="white"/>
<path d="M48.3019 36.3861C48.2839 37.1821 49.4619 37.2201 49.4719 36.4141C49.5699 31.8761 46.7719 28.1381 41.5139 27.7441C40.7439 27.6881 40.6639 28.8981 41.4319 28.9541C45.9919 29.3001 48.3939 32.4121 48.3019 36.3861Z" fill="white"/>
<path d="M47.0419 41.5482C46.0539 40.9762 45.0479 41.3322 44.6319 41.8942L43.7619 43.0202C43.3199 43.5922 42.4939 43.5162 42.4939 43.5162C36.4659 41.9222 34.8539 35.6142 34.8539 35.6142C34.8539 35.6142 34.7799 34.7602 35.3319 34.3022L36.4199 33.4022C36.9639 32.9702 37.3079 31.9302 36.7539 30.9082C35.2739 28.2342 34.2799 27.3122 33.7739 26.6042C33.2419 25.9382 32.4419 25.7882 31.6099 26.2382H31.5919C29.8619 27.2502 27.9679 29.1442 28.5739 31.0942C29.6079 33.1502 31.5079 39.7042 37.5639 44.6562C40.4099 46.9982 44.9139 49.3982 46.8259 49.9522L46.8439 49.9802C48.7279 50.6082 50.5599 48.6402 51.5379 46.8582V46.8442C51.9719 45.9822 51.8279 45.1662 51.1939 44.6322C50.0699 43.5362 48.3739 42.3262 47.0419 41.5482Z" fill="white"/>
<path d="M42.3382 32.2079C44.2602 32.3199 45.1922 33.3239 45.2922 35.3859C45.3282 36.1919 46.4982 36.1359 46.4622 35.3299C46.3342 32.6379 44.9302 31.1379 42.4022 30.9979C41.6322 30.9519 41.5602 32.1619 42.3382 32.2079Z" fill="white"/>
</g>
<rect x="1" y="1" width="78" height="78" rx="9" stroke="white" stroke-width="2"/>
<defs>
<clipPath id="clip0">
<rect width="48" height="48" fill="white" transform="translate(16 16)"/>
</clipPath>
</defs>
</svg>
