<svg width="80" height="80" viewBox="0 0 80 80" fill="none" xmlns="http://www.w3.org/2000/svg">
<g clip-path="url(#clip0)">
<path fill-rule="evenodd" clip-rule="evenodd" d="M57.3108 43.6898C58.9031 45.2444 60.5836 46.7069 62.0116 48.4182C62.6425 49.1787 63.2397 49.9635 63.6966 50.846C64.344 52.1006 63.7576 53.4811 62.6327 53.556L55.6399 53.5529C53.8364 53.7026 52.3976 52.9765 51.1878 51.7433C50.2197 50.7572 49.3231 49.7077 48.3921 48.6882C48.0105 48.2716 47.611 47.8795 47.1338 47.5696C46.1792 46.95 45.3506 47.1397 44.8051 48.1353C44.2495 49.1479 44.1235 50.2693 44.0689 51.3978C43.994 53.0444 43.4962 53.4773 41.8422 53.5527C38.3073 53.7194 34.9526 53.1846 31.8361 51.4014C29.0885 49.8294 26.9579 47.6101 25.1034 45.0977C21.4927 40.2054 18.7276 34.8296 16.2424 29.3032C15.683 28.0581 16.0921 27.3898 17.4659 27.3661C19.7472 27.3218 22.0281 27.3249 24.312 27.363C25.2392 27.3765 25.853 27.9083 26.211 28.7842C27.4452 31.819 28.9554 34.7063 30.8511 37.3826C31.3559 38.0951 31.8706 38.8077 32.6037 39.3092C33.4146 39.8645 34.032 39.6804 34.4135 38.7771C34.6556 38.2043 34.7616 37.5873 34.8162 36.9738C34.9969 34.8632 35.0207 32.7563 34.7037 30.6531C34.5091 29.3405 33.7698 28.4907 32.46 28.2423C31.7916 28.1157 31.8911 27.867 32.2148 27.4855C32.7768 26.8275 33.3055 26.418 34.3593 26.418H42.2622C43.5063 26.6635 43.7826 27.2224 43.953 28.4743L43.9597 37.2528C43.9462 37.7375 44.2018 39.1756 45.0747 39.4964C45.7734 39.7247 46.2339 39.1658 46.6531 38.7228C48.5453 36.7146 49.8957 34.3412 51.1022 31.8837C51.6376 30.803 52.098 29.6808 52.5441 28.5595C52.8747 27.7274 53.3934 27.318 54.3306 27.3361L61.9367 27.3429C62.1622 27.3429 62.3904 27.3462 62.6089 27.3836C63.8906 27.602 64.2418 28.1534 63.8459 29.405C63.2222 31.3686 62.0086 33.005 60.822 34.6489C59.5536 36.404 58.197 38.0991 56.9391 39.8646C55.7834 41.4769 55.8752 42.2895 57.3108 43.6898Z" fill="white"/>
</g>
<rect x="1" y="1" width="78" height="78" rx="9" stroke="white" stroke-width="2"/>
<defs>
<clipPath id="clip0">
<rect width="48" height="48" fill="white" transform="translate(16 16)"/>
</clipPath>
</defs>
</svg>
