<svg width="80" height="80" viewBox="0 0 80 80" fill="none" xmlns="http://www.w3.org/2000/svg">
<g clip-path="url(#clip0)">
<path d="M51.5172 43.5814C51.4237 43.5365 47.9244 41.8133 47.3026 41.5895C47.0487 41.4984 46.7768 41.4094 46.4875 41.4094C46.015 41.4094 45.6181 41.6449 45.3089 42.1074C44.9593 42.627 43.9011 43.8639 43.5742 44.2334C43.5315 44.2822 43.4732 44.3405 43.4383 44.3405C43.4069 44.3405 42.8654 44.1175 42.7014 44.0463C38.9476 42.4157 36.0983 38.4945 35.7076 37.8332C35.6518 37.7382 35.6495 37.695 35.649 37.695C35.6627 37.6446 35.789 37.5181 35.8541 37.4528C36.0447 37.2642 36.2512 37.0157 36.451 36.7752C36.5456 36.6613 36.6403 36.5472 36.7334 36.4397C37.0233 36.1024 37.1523 35.8406 37.3019 35.5373L37.3803 35.3798C37.7456 34.654 37.4336 34.0415 37.3328 33.8438C37.25 33.6783 35.7725 30.1122 35.6154 29.7376C35.2376 28.8335 34.7384 28.4126 34.0448 28.4126C33.9804 28.4126 34.0448 28.4126 33.7748 28.424C33.4462 28.4378 31.6563 28.6735 30.8649 29.1723C30.0257 29.7014 28.606 31.388 28.606 34.354C28.606 37.0235 30.3 39.5439 31.0273 40.5025C31.0454 40.5267 31.0786 40.5758 31.1267 40.6462C33.9121 44.714 37.3845 47.7287 40.9046 49.1349C44.2934 50.4885 45.8981 50.645 46.8104 50.645C46.8106 50.645 46.8106 50.645 46.8106 50.645C47.194 50.645 47.5008 50.6149 47.7715 50.5883L47.9433 50.5719C49.114 50.4681 51.6866 49.135 52.2718 47.5088C52.7328 46.2279 52.8544 44.8284 52.5477 44.3205C52.3376 43.9752 51.9756 43.8014 51.5172 43.5814Z" fill="white"/>
<path d="M40.426 16C27.4261 16 16.8499 26.4967 16.8499 39.3989C16.8499 43.5719 17.9667 47.6568 20.0823 51.2318L16.033 63.1765C15.9576 63.3992 16.0137 63.6455 16.1784 63.8131C16.2973 63.9345 16.4586 64 16.6233 64C16.6865 64 16.75 63.9905 16.8121 63.9707L29.2671 60.0129C32.6754 61.8339 36.5276 62.7952 40.4262 62.7952C53.4248 62.7953 64 52.2997 64 39.3989C64 26.4967 53.4248 16 40.426 16ZM40.426 57.9211C36.7576 57.9211 33.2045 56.8619 30.1503 54.8577C30.0476 54.7902 29.9284 54.7556 29.8084 54.7556C29.745 54.7556 29.6814 54.7653 29.6195 54.7849L23.3803 56.7682L25.3944 50.826C25.4595 50.6337 25.427 50.4216 25.307 50.2577C22.9812 47.0797 21.7517 43.3249 21.7517 39.3989C21.7517 29.1844 30.129 20.8742 40.4259 20.8742C50.7216 20.8742 59.0979 29.1844 59.0979 39.3989C59.098 49.6122 50.7219 57.9211 40.426 57.9211Z" fill="white"/>
</g>
<rect x="1" y="1" width="78" height="78" rx="9" stroke="white" stroke-width="2"/>
<defs>
<clipPath id="clip0">
<rect width="48" height="48" fill="white" transform="translate(16 16)"/>
</clipPath>
</defs>
</svg>
